<?xml version="1.0" standalone="yes"?>
<svg xmlns="http://www.w3.org/2000/svg" width="896" height="1024">
<path style="fill:#fdf9be; stroke:none;" d="M0 0L0 1024L263 1024L521 1024L523 1024L527 1024L535 1024L546 1024L565 1024L605 1024L609 1024L617 1024L632 1024L639 1024L643 1024L659 1024L675 1024L691 1024L699 1024L706 1024L711 1024L739 1024L744 1024L752 1024L755 1024L757 1024L761 1024L762 1024L770 1024L775 1024L776 1024L779 1024L785 1024L790 1024L792 1024L824 1024L832 1024L836 1024L843 1024L847 1024L851 1024L853 1024L857 1024L861 1024L862 1024L867 1024L869 1024L874 1024L878 1024L882 1024L883 1024L891 1024L892 1024L896 1024L896 1020.94L896 951L896 919L896 915L896 911L896 908L896 905L896 902L896 898L896 875L896 871L896 868L896 865L896 862L896 858L896 835L896 827L896 764L896 751L896 738L896 736L896 718L896 689L896 688L896 687L896 678L896 665L896 661L896 657L896 654L896 651L896 648L896 644L896 621L896 618L896 616L896 613L896 605L896 542L896 541L896 540L896 531L896 522L896 513L896 511L896 509L896 491L896 487L896 482L896 477L896 432L896 430L896 412L896 411L896 410L896 409L896 405L896 400L896 395L896 387L896 371L896 364L896 356L896 352L896 349L896 333L896 325L896 324L896 315L896 313L896 310L896 309L896 308L896 307L896 303L896 298L896 292L896 288L896 283L896 282L896 278L896 273L896 268L896 266L896 263L896 255L896 254L896 251L896 249L896 247L896 243L896 242L896 241L896 240L896 236L896 231L896 223L896 222L896 221L896 218L896 212L896 208L896 207L896 199L896 191L896 187L896 185L896 184L896 176L896 172L896 168L896 167L896 165L896 159L896 158L896 156L896 155L896 153L896 149L896 147L896 139L896 138L896 134L896 129L896 128L896 0L888 0L884 0L881 0L879 0L877 0L869 0L865 0L860 0L856 0L850 0L845 0L837 0L829 0L824 0L820 0L818 0L817 0L814 0L812 0L811 0L806 0L803 0L799 0L797 0L796 0L788 0L760 0L757 0L753 0L750 0L744 0L728 0L724 0L708 0L704 0L699 0L694 0L685 0L683 0L679 0L676 0L673 0L671 0L669 0L668 0L664 0L656 0L631 0L626 0L623 0L617 0L616 0L608 0L606 0L579 0L569 0L523 0L363 0L0 0z"/>
<path style="fill:#5c340b; stroke:none;" d="M15 42L15 48L15 51L15 54L15 58L15 59L15 64L15 65L15 81L15 85L15 86L15 88L15 90L15 91L15 92L15 97L15 98L15 103L15 104L15 108L15 124L15 125L15 127L15 128L15 133L15 135L15 140L15 148L15 150L15 151L15 153L15 157L15 173L15 177L15 178L15 180L15 184L15 188L15 193L15 194L15 197L15 202L15 203L15 204L15 209L15 217L15 218L15 221L15 225L15 227L15 243L15 246L15 250L15 254L15 258L15 264L15 268L15 274L15 279L15 283L15 289L15 294L15 301L15 306L15 316L15 318L15 323L15 333L15 337L15 345L15 350L15 355L15 357L15 403L15 408L15 414L15 415L15 420L15 428L15 434L15 436L15 437L15 445L15 449L15 457L15 473L15 474L15 493L15 503L15 561L15 982L16 983L284 983L584 983L596 983L601 983L609 983L610 983L615 983L640 983L642 983L654 983L661 983L669 983L671 983L676 983L683 983L687 983L688 983L694 983L698 983L703 983L705 983L713 983L718 983L720 983L722 983L727 983L735 983L737 983L741 983L743 983L747 983L751 983L752 983L756 983L762 983L763 983L767 983L768 983L776 983L778 983L779 983L780 983L781 983L785 983L790 983L796 983L797 983L808 983L809 983L811 983L817 983L827 983L834 983L838 983L846 983L848 983L853 983L859 983L860 983L861 983L866 983L867 983L871 983L873 983L877 983L881 983L881 962L881 958L881 923L881 921L881 915L881 861L881 848L881 844L881 818L881 775L881 649L881 644L881 611L881 609L881 586L881 544L881 543L881 510L881 508L881 485L881 483L881 472L881 467L881 444L881 443L881 432L881 427L881 424L881 411L881 409L881 401L881 400L881 396L881 391L881 386L881 364L881 342L881 334L881 333L881 322L881 317L881 309L881 304L881 272L881 269L881 267L881 259L881 258L881 257L881 249L881 245L881 239L881 231L881 227L881 226L881 218L881 217L881 185L881 183L881 182L881 180L881 179L881 173L881 172L881 168L881 167L881 165L881 161L881 129L881 128L881 126L881 124L881 123L881 119L881 118L881 115L881 109L881 93L881 91L881 83L881 82L881 79L881 73L881 72L881 71L881 70L881 67L881 65L881 61L881 55L881 50L881 48L881 47L881 42L877 42L876 42L875 42L869 42L868 42L867 42L866 42L862 42L861 42L860 42L856 42L852 42L851 42L841 42L837 42L832 42L825 42L823 42L821 42L818 42L810 42L809 42L805 42L801 42L795 42L779 42L774 42L772 42L771 42L767 42L761 42L755 42L754 42L752 42L751 42L747 42L744 42L740 42L724 42L660 42L656 42L653 42L652 42L648 42L645 42L641 42L633 42L627 42L624 42L620 42L619 42L603 42L599 42L596 42L594 42L588 42L581 42L571 42L570 42L569 42L565 42L563 42L561 42L560 42L559 42L547 42L540 42L532 42L531 42L527 42L517 42L501 42L491 42L486 42L465 42L441 42L438 42L428 42L416 42L404 42L387 42L366 42L342 42L339 42L338 42L332 42L304 42L272 42L269 42L213 42L149 42L137 42L120 42L113 42L105 42L104 42L87 42L82 42L81 42L75 42L47 42L15 42z"/>
<path style="fill:#fdf9be; stroke:none;" d="M24 51L24 57L24 58L24 90L24 94L24 222L24 227L24 235L24 243L24 253L24 255L24 260L24 265L24 269L24 274L24 277L24 281L24 286L24 289L24 293L24 297L24 298L24 307L24 331L24 337L24 342L24 350L24 358L24 368L24 371L24 379L24 384L24 386L24 391L24 420L24 445L24 446L24 474L24 479L24 480L24 481L24 505L24 551L24 674L24 974L228 974L410 974L487 974L525 974L565 974L570 974L578 974L594 974L596 974L601 974L609 974L613 974L618 974L623 974L631 974L641 974L652 974L656 974L662 974L678 974L686 974L695 974L711 974L736 974L741 974L743 974L747 974L748 974L751 974L754 974L760 974L761 974L769 974L770 974L772 974L776 974L781 974L785 974L786 974L791 974L795 974L796 974L801 974L803 974L805 974L807 974L823 974L827 974L837 974L853 974L861 974L862 974L866 974L867 974L872 974L872 970L872 961L872 870L872 868L872 866L872 865L872 861L872 857L872 849L872 786L872 783L872 778L872 775L872 766L872 765L872 763L872 762L872 752L872 749L872 739L872 734L872 731L872 725L872 662L872 661L872 659L872 658L872 639L872 635L872 614L872 577L872 564L872 547L872 546L872 545L872 535L872 533L872 495L872 494L872 493L872 492L872 482L872 475L872 467L872 457L872 456L872 455L872 423L872 418L872 411L872 406L872 396L872 394L872 376L872 374L872 370L872 354L872 352L872 348L872 347L872 339L872 338L872 330L872 327L872 324L872 321L872 320L872 314L872 311L872 310L872 308L872 303L872 300L872 296L872 283L872 280L872 276L872 272L872 268L872 267L872 266L872 262L872 257L872 255L872 247L872 239L872 223L872 222L872 218L872 210L872 206L872 201L872 197L872 187L872 181L872 179L872 178L872 174L872 172L872 171L872 166L872 165L872 164L872 160L872 154L872 149L872 145L872 141L872 140L872 139L872 131L872 130L872 128L872 126L872 121L872 120L872 116L872 111L872 109L872 101L872 100L872 99L872 91L872 90L872 86L872 82L872 81L872 80L872 75L872 73L872 68L872 66L872 61L872 60L872 54.0555L872 51L870.5 51L869.944 51L867 51L866 51L862 51L861 51L855 51L839 51L838 51L830 51L826 51L824 51L821 51L818 51L814 51L812 51L809 51L801 51L797 51L789 51L785 51L769 51L763 51L755 51L747 51L743 51L735 51L731 51L729 51L727 51L726 51L725 51L709 51L707 51L706 51L702 51L700 51L697 51L681 51L680 51L648 51L646 51L643 51L640 51L636 51L635 51L631 51L629 51L626 51L618 51L616 51L613 51L601 51L585 51L553 51L550 51L548 51L531 51L507 51L504 51L500 51L449 51L381 51L313 51L279 51L228 51L24 51z"/>
<path style="fill:#5c340b; stroke:none;" d="M32 59L32 63L32 68L32 76L32 80L32 88L32 92L32 97L32 98L32 106L32 107L32 111L32 117L32 121L32 122L32 123L32 127L32 131L32 139L32 143L32 146L32 150L32 158L32 159L32 223L32 224L32 232L32 233L32 241L32 242L32 245L32 250L32 251L32 253L32 261L32 264L32 270L32 272L32 275L32 283L32 291L32 301L32 306L32 309L32 315L32 318L32 324L32 328L32 334L32 337L32 341L32 345L32 347L32 352L32 360L32 382L32 383L32 390L32 400L32 401L32 406L32 414L32 415L32 425L32 428L32 471L32 474L32 478L32 491L32 623L32 966L451 966L500 966L512 966L529 966L540 966L553 966L587 966L591 966L601 966L617 966L630 966L648 966L653 966L660 966L662 966L665 966L667 966L668 966L673 966L679 966L680 966L684 966L688 966L694 966L700 966L701 966L707 966L711 966L712 966L716 966L720 966L726 966L734 966L739 966L742 966L746 966L778 966L780 966L784 966L786 966L789 966L793 966L797 966L799 966L803 966L807 966L813 966L815 966L818 966L819 966L823 966L839 966L841 966L842 966L844 966L849 966L851 966L855 966L856 966L860 966L863.5 966L865 966L865 948L865 941L865 933L865 712L865 711L865 704L865 684L865 637L865 596L865 556L865 497L865 495L865 494L865 493L865 483L865 481L865 476L865 466L865 462L865 461L865 456L865 455L865 453L865 451L865 450L865 445L865 433L865 431L865 429L865 425L865 423L865 420L865 388L865 383L865 378L865 368L865 367L865 363L865 357L865 353L865 345L865 344L865 343L865 339L865 335L865 333L865 332L865 320L865 318L865 313L865 309L865 303L865 298L865 286L865 278L865 214L865 212L865 211L865 208L865 206L865 205L865 199L865 196L865 195L865 188L865 180L865 172L865 168L865 167L865 151L865 150L865 146L865 143L865 140L865 136L865 134L865 126L865 118L865 114L865 112L865 111L865 110L865 108L865 107L865 105L865 100L865 92L865 88L865 87L865 85L865 83L865 80L865 78L865 77L865 76L865 74L865 70L865 65L865 62.0555L865 61.0555L865 59L862.944 59L861 59L860 59L852 59L847 59L839 59L838 59L836 59L831 59L829 59L827 59L826 59L821 59L817 59L815 59L812 59L808 59L804 59L799 59L798 59L766 59L763 59L759 59L756 59L753 59L752 59L751 59L748 59L740 59L739 59L735 59L729 59L728 59L726 59L725 59L724 59L722 59L714 59L709 59L702 59L700 59L699 59L698 59L666 59L538 59L533 59L466 59L465 59L464 59L432 59L383 59L343 59L330 59L316 59L299 59L298 59L287 59L282 59L274 59L272 59L264 59L195 59L194 59L183 59L181 59L171 59L170 59L169 59L152 59L151 59L150 59L133 59L125 59L88 59L77 59L32 59z"/>
<path style="fill:#fdf9be; stroke:none;" d="M37 64L37 65.5L37 68L37 69L37 74L37 76L37 77L37 85L37 89L37 92L37 94L37 96L37 100L37 101L37 106L37 109L37 111L37 113L37 117L37 121L37 122L37 125L37 129L37 134L37 142L37 146L37 147L37 148L37 156L133 156L133 154.5L133 153.944L133 150L133 148L133 140L133 136L133 134L133 131L133 115L133 105L133 100L133 94L133 90L133 85L133 81L133 79L133 71L133 68L133 64L129 64L89 64L86 64L37 64M135 64L135 65.5L135 68L135 69L135 74L135 76L135 84L135 92L135 96L135 100L135 101L135 106L135 109L135 111L135 113L135 117L135 121L135 122L135 123L135 129L135 130L135 134L135 139L135 147L135 148L135 156L142 156L180 156L184 156L185 156L237 156L237 151L237 146L237 144L237 140L237 139L237 134L237 130L237 127L237 125L237 124L237 120L237 116L237 115L237 113L237 112L237 106L237 100L237 92L237 84L237 76L237 71L237 68L237 64L135 64M240 64L240 65.5L240 68L240 69L240 74L240 76L240 77L240 81L240 87L240 92L240 100L240 101L240 106L240 109L240 111L240 113L240 117L240 121L240 122L240 125L240 129L240 134L240 142L240 146L240 147L240 148L240 156L244 156L250 156L341 156L341 153.944L341 149L341 144L341 139L341 137L341 132L341 131L341 129L341 125L341 124L341 119L341 112L341 108L341 107L341 99L341 98L341 95L341 91L341 87L341 86L341 82L341 74L341 70L341 64L335 64L333 64L324 64L322 64L314 64L311 64L307 64L280 64L240 64M344 64L344 65.5L344 68L344 69L344 74L344 76L344 84L344 92L344 96L344 100L344 101L344 106L344 109L344 111L344 113L344 117L344 121L344 122L344 125L344 129L344 134L344 142L344 146L344 147L344 148L344 156L443 156L442.222 154.5L441.694 153.944L440.889 152.944L439.972 152L438 150.083L436 148.389L435 147.611L433 145.917L432 144.972L430 143L429 142L421 134L419 132L417 130.028L416 129.083L414 127.389L413 126.611L411 124.917L410 123.972L409 123L407 121L405 119L403 117L402 116L400 114L398 112L396 110.028L395 109.083L393 107.389L392 106.611L390 104.917L389 103.972L388 103L386 101L380 95L379 94L377 92.0278L376 91.0833L374 89.3889L373 88.6111L371 86.9167L370 85.9722L368 84L366 82L363 79L362 78L360 76.0278L359 75.0833L357 73.3889L356 72.6111L354 70.9167L353 69.9722L351 68L349 66.1111L347.056 64.7222L345.5 64.1111L344 64M351 64L351.778 65.5L352.306 66.0555L353.111 67.0555L354.028 68L356 70L358 71.9722L359 72.9167L361 74.6111L362 75.3889L364 77.0833L365 78.0278L367 80L368 81L371 84L372 85L374 86.9722L375 87.9167L377 89.6111L379 91.2222L380 92.0833L382 94L383 95L385 97L387 99L388 100L390 102L392 104L393 104.972L394 105.917L396 107.611L398 109.222L399 110.083L401 112L402 113L404 115L406 117L410 121L412 123L414 124.972L415 125.917L417 127.611L418 128.389L420 130.083L421 131.028L423 133L425 135L432 142L434 144L435 145L437 146.917L439 148.611L440 149.389L442 151.056L442.944 151.917L443.944 152.694L444.5 153.222L446 154L446 150.944L446 149L446 145L446 141L446 140L446 108L446 100L446 98L446 95L446 90L446 88L446 87L446 83L446 82L446 77L446 73L446 72L446 64L437 64L400 64L351 64M448 64L448 65.5L448 68L448 69L448 74L448 76L448 84L448 87L448 89L448 97L448 98L448 106L448 107L448 115L448 120L448 125L448 127L448 128L448 133L448 136L448 138L448 139L448 147L448 151L448 153.944L448 156L449.5 155.639L451.056 154.667L453 152.972L454 152L455 151L456 150L458 148.028L459 147.083L461 145.389L462 144.611L464 142.917L465 141.972L466 141L468 139L473 134L475 132L477 130.083L478 129.222L480 127.611L482 125.917L483 124.972L485 123L486 122L487 121L492 116L493 115L495 113.028L496 112.083L498 110.389L499 109.611L501 107.917L502 106.972L504 105L505 104L508 101L509 100L511 98.0278L512 97.0833L514 95.3889L515 94.6111L517 92.9167L518 91.9722L520 90L521 89L524 86L526 84L528 82.0833L529 81.2222L531 79.6111L533 77.9167L534 76.9722L536 75L537 74L539 72L540 71L541 70L542.972 68.0833L544.667 66.4445L545.278 65.6667L545.639 65.25L546 64L541 64L532 64L530 64L522 64L519 64L515 64L513 64L488 64L448 64M553 64L553 65.5L553 68L553 69L553 74L553 76L553 78L553 84L553 88L553 90L553 94L553 96L553 97L553 99L553 115L553 120L553 126L553 128L553 131L553 134L553 136L553 138L553 148L553 156L557 156L563 156L564 156L567 156L583 156L594 156L596 156L599 156L607 156L609 156L612 156L628 156L632 156L650 156L654 156L654 154.5L654 152.944L654 146L654 138L654 130L654 122L654 112L654 110L654 105L654 103L654 102L654 98L654 94L654 92L654 91L654 84L654 76L654 71L654 69L654 68L654 64L648 64L639 64L634 64L602 64L600 64L580 64L570 64L562 64L553 64M657 64L657 68L657 71L657 74L657 79L657 80L657 81L657 85L657 86L657 90L657 93L657 97L657 99L657 102L657 104L657 106L657 107L657 110L657 115L657 116L657 121L657 122L657 126L657 134L657 140L657 141L657 148L657 152.944L657 156L661 156L667 156L668 156L700 156L702 156L705 156L707 156L710 156L711 156L717 156L721 156L723 156L726 156L728 156L736 156L738 156L741 156L743 156L747 156L748 156L752 156L758 156L758 153.944L758 150L758 147L758 146L758 143L758 135L758 130L758 128L758 64L753 64L752 64L743 64L711 64L706 64L704 64L688 64L684 64L679 64L677 64L672 64L667 64L663 64L657 64M761 64L761 65.5L761 68L761 70L761 71L761 73L761 75L761 76L761 80L761 96L761 97L761 98L761 100L761 104L761 105L761 108L761 114L761 116L761 119L761 127L761 128L761 133L761 136L761 138L761 139L761 147L761 148L761 153.944L761 156L766 156L769 156L773 156L777 156L783 156L785 156L788 156L790 156L791 156L795 156L797 156L801 156L805 156L811 156L827 156L828 156L860 156L860 154.5L860 152.944L860 151L860 145L860 141L860 125L860 124L860 119L860 111L860 110L860 105L860 98L860 97L860 93L860 85L860 82L860 74L860 70L860 64L856 64L852 64L851 64L847 64L846 64L845 64L844 64L841 64L837 64L835 64L833 64L823 64L807 64L802 64L798 64L796 64L792 64L791 64L789 64L787 64L783 64L777 64L761 64M548 66L542 72L540 74L539 74.9722L538 75.9167L536 77.6111L535 78.3889L533 80.0833L532 81.0278L530 83L529 84L526 87L524 89L522 90.9722L521 91.9167L519 93.6111L518 94.3889L516 96.0833L515 97.0278L513 99L512 100L510 102L509 103L508 104L506 105.972L505 106.917L503 108.611L502 109.389L500 111.083L499 112.028L497 114L496 115L494 117L493 118L491 120L489 121.972L488 122.917L486 124.611L485 125.389L483 127.083L482 128.028L480 130L479 131L476 134L474 136L473 137L471 139L470 139.972L469 140.917L467 142.611L466 143.389L464 145.083L463 146.028L461 148L459 150L457.028 152L456.111 152.944L455.306 153.944L454.778 154.5L454 156L550 156L550 151L550 147L550 143L550 141L550 77L550 73L550 72L550 66L548 66M37 159L37 167L37 183L37 191L37 207L37 210L37 212L37 213L37 217L37 222L37 224L37 232L37 236L37 237L37 238L37 246L37 249L37 257L44 257L51 257L53 257L54 257L133 257L133 253L133 248L133 244L133 236L133 233L133 229L133 224L133 221L133 219L133 211L133 207L133 206L133 201L133 199L133 194L133 186L133 182L133 179L133 175L133 159L129.944 159L127 159L124 159L120 159L116 159L115 159L114 159L107 159L104 159L101 159L37 159M135 159L135 167L135 183L135 191L135 207L135 210L135 212L135 213L135 221L135 237L135 238L135 246L135 249L135 257L140 257L237 257L237 252L237 244L237 242L237 239L237 234L237 228L237 223L237 221L237 220L237 218L237 217L237 215L237 214L237 212L237 211L237 203L237 198L237 190L237 185L237 177L237 173L237 171L237 166L237 163L237 159L197 159L191 159L189 159L175 159L135 159M240 159L240 163L240 164L240 166L240 168L240 172L240 174L240 178L240 183L240 184L240 190L240 195L240 203L240 207L240 208L240 216L240 221L240 231L240 233L240 237L240 241L240 242L240 244L240 246L240 249L240 257L248 257L256 257L341 257L341 253L341 248L341 244L341 236L341 233L341 229L341 224L341 221L341 219L341 211L341 207L341 206L341 201L341 199L341 194L341 186L341 182L341 179L341 175L341 159L240 159M344 159L344 163L344 164L344 166L344 168L344 174L344 176L344 181L344 189L344 191L344 194L344 202L344 206L344 207L344 215L344 216L344 217L344 249L344 257L345.5 256.222L346.056 255.694L347.056 254.889L348 253.972L350 252L351 251L352.972 249.083L353.917 248.222L354.778 247.389L355.611 246.639L356.389 245.861L358.083 244.361L359.028 243.611L361 241.917L362 240.972L363 240L365 238L370 233L374 229L381 222L385 218L387 216.028L388 215.083L390 213.389L392 211.778L393 210.917L395 209L397 207L398 206L400 204L401 203L409 195L410 194L412 192L413 191L415 189.028L416 188.083L418 186.389L419 185.611L421 183.917L422 182.972L424 181L425 180L432 173L434 171L436 169.028L437 168.083L439 166.389L440 165.611L441.972 163.917L443.667 162.056L444.639 160.5L445 159L344 159M451 159L451.778 160.5L452.306 161.056L453.111 162.056L454.028 163L455 164L456 165L458 167L459 168L461 170L462 171L464 172.972L465 173.917L467 175.611L468 176.389L470 178.083L471 179.028L473 181L474 182L475 183L477 185L479 187L487 195L490 198L492 200L494 201.917L494.972 202.778L496.778 204.306L497.611 205L499.222 206.417L500.083 207.222L501.028 208.083L503 210L504 211L506 213L508 215L513 220L515 222L520 227L522 229L524 231L525 232L527 234L529 236L530 237L532 239L536 243L538 245L540 247L541 248L543 249.917L545 251.611L546 252.361L546.944 253.111L547.944 253.778L548.5 254.25L550 255L550 251.944L550 248L550 247L550 245L550 240L550 236L550 230L550 225L550 221L550 217L550 211L550 207L550 206L550 205L550 189L550 185L550 184L550 179L550 178L550 177L550 169L550 168L550 162.056L550 161.056L550 159L541 159L540 159L530 159L529 159L528 159L521 159L520 159L511 159L509 159L508 159L504 159L451 159M553 159L553 167L553 183L553 191L553 207L553 210L553 212L553 213L553 217L553 222L553 224L553 232L553 236L553 237L553 238L553 246L553 249L553 257L561 257L581 257L583 257L594 257L595 257L597 257L607 257L618 257L620 257L623 257L625 257L629 257L632 257L633 257L636 257L640 257L648 257L650 257L654 257L654 252L654 251L654 246L654 238L654 234L654 232L654 231L654 227L654 224L654 223L654 222L654 214L654 209L654 203L654 202L654 198L654 193L654 192L654 191L654 190L654 186L654 182L654 181L654 177L654 176L654 168L654 163L654 159L650.944 159L627 159L625 159L622 159L614 159L609 159L602 159L600 159L580 159L578 159L573 159L566 159L561 159L553 159M657 159L657 160.5L657 166L657 167L657 171L657 172L657 173L657 177L657 178L657 182L657 190L657 194L657 195L657 196L657 198L657 204L657 206L657 216L657 220L657 226L657 231L657 241L657 257L665 257L673 257L674 257L676 257L684 257L688 257L693 257L701 257L705 257L710 257L714 257L718 257L724 257L727 257L731 257L739 257L743 257L753 257L758 257L758 254.944L758 250L758 249L758 247L758 246L758 241L758 240L758 229L758 226L758 222L758 217L758 209L758 208L758 204L758 200L758 198L758 182L758 179L758 175L758 159L755.944 159L754.944 159L751 159L748 159L743 159L740 159L734 159L732 159L731 159L727 159L726 159L721 159L713 159L710 159L704 159L700 159L694 159L678 159L674 159L666 159L657 159M761 159L761 161.056L761 163L761 165L761 166L761 167L761 171L761 172L761 173L761 177L761 178L761 182L761 186L761 187L761 195L761 197L761 198L761 203L761 207L761 209L761 210L761 215L761 223L761 228L761 229L761 230L761 239L761 240L761 248L761 251L761 257L766 257L767 257L775 257L779 257L784 257L792 257L794 257L799 257L801 257L805 257L810 257L811 257L812 257L815 257L817 257L827 257L834 257L838 257L842 257L852 257L860 257L860 251L860 249L860 241L860 236L860 234L860 226L860 225L860 224L860 222L860 214L860 212L860 211L860 209L860 206L860 204L860 200L860 199L860 194L860 178L860 177L860 169L860 168L860 162.056L860 161.056L860 159L857.944 159L853 159L845 159L837 159L833 159L830 159L827 159L822 159L821 159L811 159L810 159L794 159L790 159L788 159L772 159L771 159L761 159M448 161L448 166L448 167L448 171L448 172L448 173L448 177L448 178L448 182L448 186L448 187L448 195L448 200L448 208L448 209L448 213L448 219L448 224L448 232L448 234L448 238L448 239L448 247L448 248L448 251L448 257L547 257L546.222 255.5L545.694 254.944L544.889 253.944L543.972 253L542 251L540 249L539 248L537 246.083L536.028 245.222L534.222 243.611L532.611 242L530.917 240.389L529.972 239.611L528 237.917L527 236.972L525 235L522 232L520 230L514 224L512 222L511 221L509 219L501 211L497 207L496 206L494 204.028L493 203.083L491 201.389L490 200.611L488 198.917L487 197.972L485 196L483 194L475 186L474 185L472 183L468 179L466 177L464 175.028L463 174.083L461 172.389L460 171.611L458 169.917L457 168.972L455 167L453 165L452 164.028L451.056 163.111L450.056 162.306L449.5 161.778L448 161M444 164L442.5 165.5L440.944 167.056L433 175L431 177L430 178L429 179L427 180.972L426 181.917L424 183.611L423 184.389L421 186.083L420 187.028L418 189L415 192L413 194L410 197L406 201L403 204L402 205L400 206.917L399 207.778L397 209.389L395 211.083L394 212.028L392 214L388 218L387 219L385 221L383 223L380 226L378 228L376 230L374 232L372 233.972L371 234.917L369 236.611L368 237.389L366 239.083L365 240.028L364 241L362 243L357 248L355 250L354 251L352.028 253L351.111 253.944L350.306 254.944L349.778 255.5L349 257L351.056 257L354 257L362 257L365 257L367 257L446 257L446 253.944L446 245L446 240L446 232L446 230L446 229L446 227L446 223L446 219L446 215L446 212L446 211L446 207L446 206L446 205L446 202L446 200L446 192L446 184L446 180L446 174L446 172L446 164L444 164z"/>
<path style="fill:#5c340b; stroke:none;" d="M119 223L119 226.056L119 227L119 235L119 240L119 248L116.944 248L100 248L100 251L102.056 251L122 251L122 248.944L122 246L122 245L122 241L122 236L122 231L122 223L119 223M146 223L146 232L146 236L146 241L146 251L148.056 251L168 251L168 248L165.944 248L149 248L149 243L149 242L149 240L149 236L149 231L149 223L146 223M746 223L746 226.056L746 227L746 231L746 233L746 237L746 239L746 240L746 248L744.5 248L743.944 248L740 248L737 248L733 248L731 248L727 248L727 251L732 251L740 251L744 251L749 251L749 247L749 245L749 237L749 232L749 226.056L749 223L747 223L746 223M773 223L773 225.056L773 229L773 237L773 241L773 251L775.056 251L776.056 251L795 251L795 248L791 248L787 248L786 248L785 248L776 248L776 243L776 242L776 240L776 236L776 231L776 223L773 223z"/>
<path style="fill:#fdf9be; stroke:none;" d="M37 260L37 265L37 268L37 282L37 286L37 287L37 293L37 294L37 299L37 308L37 312L37 329L37 334L37 337L37 341L37 344L37 346L37 347L37 349L37 354.944L37 358L133 358L133 353L133 346L133 345L133 337L133 327L133 316L133 314L133 310L133 299L133 279L133 275L133 270L133 266L133 260L129 260L123 260L118 260L115 260L114 260L106 260L37 260M135 260L135 264L135 270L135 286L135 294L135 295L135 320L135 328L135 336L135 346L135 347L135 348L135 358L140 358L237 358L237 353L237 346L237 345L237 337L237 327L237 325L237 322L237 317L237 314L237 310L237 306L237 290L237 286L237 284L237 276L237 260L228 260L218 260L208 260L135 260M240 260L240 265L240 269L240 274L240 288L240 296L240 301L240 309L240 317L240 323L240 333L240 336L240 338L240 343L240 353L240 358L248 358L249 358L254 358L255 358L257 358L259 358L272 358L341 358L341 353L341 346L341 345L341 337L341 327L341 316L341 314L341 310L341 299L341 279L341 275L341 270L341 266L341 260L240 260M344 260L344 264L344 270L344 286L344 294L344 295L344 320L344 328L344 336L344 346L344 347L344 348L344 358L349 358L446 358L446 353L446 346L446 345L446 337L446 327L446 316L446 311L446 309L446 301L446 299L446 291L446 288L446 280L446 276L446 260L437 260L427 260L417 260L344 260M448 260L448 265L448 269L448 274L448 279L448 287L448 295L448 296L448 305L448 307L448 308L448 318L448 322L448 323L448 325L448 326L448 331L448 332L448 333L448 335L448 340L448 346L448 347L448 354.944L448 358L453 358L550 358L550 356.5L550 354L550 350L550 342L550 338L550 333L550 332L550 321L550 313L550 305L550 301L550 293L550 289L550 283L550 282L550 278L550 272L550 263.056L550 260L540 260L539 260L516 260L510 260L507 260L503 260L501 260L499 260L448 260M553 260L553 264L553 270L553 286L553 294L553 295L553 320L553 328L553 336L553 346L553 347L553 348L553 358L561 358L564 358L565 358L604 358L615 358L619 358L624 358L625 358L629 358L634 358L637 358L654 358L654 353L654 350L654 348L654 345L654 343L654 327L654 326L654 318L654 314L654 312L654 309L654 307L654 303L654 297L654 292L654 287L654 284L654 280L654 276L654 260L649 260L645 260L625 260L622 260L606 260L603 260L594 260L556.056 260L553 260M657 260L657 261.5L657 274L657 277L657 281L657 289L657 292L657 294L657 358L665 358L668 358L672 358L676 358L677 358L681 358L713 358L717 358L718 358L721 358L727 358L729 358L747 358L751 358L752 358L758 358L758 344L758 328L758 327L758 325L758 322L758 314L758 312L758 309L758 303L758 302L758 294L758 278L758 277L758 270L758 266L758 260L755.944 260L754.944 260L751 260L748 260L747 260L745 260L742 260L740 260L737 260L733 260L729 260L727 260L718 260L708 260L698 260L694 260L678 260L674 260L666 260L657 260M761 260L761 266L761 268L761 269L761 278L761 280L761 284L761 289L761 293L761 295L761 296L761 302L761 303L761 304L761 313L761 316L761 323L761 331L761 333L761 335L761 338L761 344L761 345L761 350L761 358L765 358L768 358L785 358L786 358L791 358L792 358L794 358L795 358L797 358L801 358L803 358L807 358L815 358L816 358L818 358L819 358L825 358L827 358L831 358L836 358L852 358L860 358L860 354.944L860 352L860 348L860 347L860 339L860 338L860 334L860 328L860 323L860 315L860 313L860 312L860 310L860 309L860 305L860 300L860 286L860 285L860 284L860 273L860 268L860 260L856 260L840 260L839 260L837 260L836 260L831 260L830 260L828 260L824 260L822 260L820 260L816 260L811 260L809 260L804 260L796 260L795 260L791 260L787 260L785 260L769 260L761 260z"/>
<path style="fill:#5c340b; stroke:none;" d="M100 266L100 268L100 269L119 269L119 273L119 281L119 286L119 289L119 293L122 293L122 286L122 278L122 276L122 269.056L122 266L100 266M146 266L146 268.056L146 273L146 280L146 293L149 293L149 285L149 284L149 273L149 269L168 269L168 266L146 266M727 266L727 268L727 269L746 269L746 273L746 276L746 281L746 289L746 293L749 293L749 291.5L749 288L749 282L749 281L749 273L749 270L749 266L745 266L744 266L736 266L727 266M773 266L773 270L773 273L773 276L773 281L773 289L773 293L776 293L776 290.944L776 289.944L776 273L776 269L781 269L785 269L787 269L789 269L790 269L791.944 269L795 269L795 266L791 266L787 266L785 266L784 266L781 266L773 266M48 324L48 326.056L48 333L48 335L48 338L48 343L48 345L48 348.944L48 352L71 352L71 349L51 349L51 324L48 324M223 324L223 349L203 349L203 352L225 352L225 348.944L225 348L225 343L225 338L225 334L225 328L225 324L223 324M250 324L250 326.056L250 328L250 332L250 348.944L250 352L272 352L272 349L268.944 349L252 349L252 324L250 324M432 324L432 349L413 349L413 352L435 352L435 348.944L435 348L435 343L435 338L435 334L435 328L435 324L432 324M459 324L459 326.056L459 328L459 332L459 348.944L459 352L481 352L481 349L462 349L462 345L462 340L462 335L462 334L462 331L462 329L461.972 328L461.944 327.056L461.75 326.056L461.722 325.5L461 324L459 324M642 324L642 349L639.944 349L638.944 349L622 349L622 352L632 352L644 352L644 350.5L644 345L644 343L644 338L644 334L644 328L644 324L642 324M668 324L668 326.056L668 333L668 335L668 338L668 343L668 345L668 348.944L668 352L675 352L683 352L685 352L686 352L687 351.972L687.972 351.889L689.667 351.333L690.639 350.389L691 349L687.944 349L671 349L671 324L669 324L668 324M846 324L846 349L842 349L838 349L837 349L833 349L827 349L827 352L833 352L849 352L849 348.944L849 348L849 343L849 338L849 334L849 328L849 324L847 324L846 324z"/>
<path style="fill:#fdf9be; stroke:none;" d="M37 361L37 393L37 400L37 424L37 459L133 459L133 456.944L133 449L133 439L133 428L133 397L133 390L133 388L133 387L133 364.056L133 361L130.944 361L129 361L116 361L114 361L107 361L102 361L37 361M135 361L135 393L135 400L135 424L135 459L237 459L237 456.944L237 449L237 439L237 428L237 411L237 409L237 361L135 361M240 361L240 393L240 402L240 415L240 419L240 430L240 459L248 459L251 459L254 459L341 459L341 456.944L341 449L341 439L341 428L341 397L341 390L341 388L341 387L341 364.056L341 361L240 361M344 361L344 393L344 400L344 424L344 459L446 459L446 456.944L446 449L446 439L446 428L446 420L446 416L446 414L446 404L446 388L446 383L446 375L446 371L446 361L344 361M448 361L448 393L448 400L448 424L448 459L550 459L550 457.5L550 454L550 446L550 428L550 427L550 425L550 361L540 361L516 361L448 361M553 361L553 393L553 400L553 424L553 459L561 459L564 459L567 459L570 459L571 459L573 459L591 459L593 459L596 459L613 459L623 459L635 459L640 459L648 459L650.944 459L654 459L654 454L654 451L654 446L654 436L654 435L654 434L654 424L654 411L654 409L654 402L654 370L654 368L654 365L654 361L625 361L621 361L602 361L599 361L596 361L594 361L593 361L553 361M657 361L657 362.5L657 375L657 407L657 409L657 410L657 412L657 413L657 415L657 439L657 459L665 459L668 459L671 459L678 459L686 459L687 459L695 459L705 459L721 459L726 459L732 459L737 459L745 459L750 459L758 459L758 454L758 442L758 437L758 429L758 428L758 426L758 409L758 408L758 407L758 405L758 371L758 361L753 361L752 361L736 361L735 361L729 361L728 361L718 361L714 361L706 361L674 361L666 361L657 361M761 361L761 367L761 370L761 379L761 386L761 390L761 394L761 396L761 404L761 405L761 414L761 416L761 434L761 459L765 459L767 459L770 459L773 459L778 459L779 459L780 459L781 459L785 459L790 459L806 459L811 459L819 459L822 459L824 459L829 459L831 459L836 459L844 459L846 459L847 459L852 459L860 459L860 453L860 416L860 414L860 413L860 411L860 410L860 392L860 391L860 390L860 385L860 379L860 361L856 361L852 361L851 361L848 361L847 361L841 361L837 361L805 361L803 361L787 361L786 361L778 361L773 361L769 361L761 361z"/>
<path style="fill:#5c340b; stroke:none;" d="M48 367L48 373L48 384L48 391.944L48 395L51 395L51 370L71 370L71 367L48 367M203 367L203 370L223 370L223 373.056L223 374L223 382L223 387L223 395L225 395L225 392.944L225 383L225 382L225 377L225 367L203 367M250 367L250 373L250 384L250 391.944L250 395L252 395L252 370L272 370L272 367L250 367M413 367L413 370L432 370L432 373.056L432 374L432 376L432 377L432 379L432 381L432 382L432 387L432 395L435 395L435 390L435 387L435 379L435 373L435 372L435 367L413 367M459 367L459 371L459 376L459 378L459 380L459 391.944L459 395L462 395L462 370L481 370L481 367L459 367M622 367L622 370L642 370L642 373.056L642 374L642 382L642 387L642 395L644 395L644 390L644 387L644 379L644 373L644 372L644 367L640 367L632 367L631 367L627 367L622 367M668 367L668 375L668 380L668 385L668 386L668 387L668 389L668 390L668.028 391L668.111 391.972L668.667 393.667L669.611 394.639L671 395L671 370L679 370L680 370L681 370L685 370L691 370L691 367L688.944 367L681 367L671.056 367L668 367M827 367L827 370L831 370L836 370L846 370L846 371.5L846 378L846 381L846 387L846 389L846 390L846.028 391L846.111 391.972L846.667 393.667L847.611 394.639L849 395L849 390L849 388L849 381L849 377L849 367L845 367L841 367L839 367L831 367L827 367z"/>
<path style="fill:#fdf9be; stroke:none;" d="M37 464L37 498L37 559L496 559L538 559L575 559L639 559L647 559L655 559L657 559L660 559L662 559L665 559L667 559L678 559L683 559L684 559L689 559L697 559L715 559L719 559L725 559L730 559L732 559L735 559L739 559L742 559L750 559L752 559L755 559L757 559L761 559L762 559L767 559L770 559L774 559L778 559L779 559L781 559L787 559L792 559L798 559L816 559L820 559L821 559L826 559L842 559L850 559L851 559L856.944 559L860 559L860 554L860 553L860 552L860 541L860 538L860 530L860 529L860 516L860 469L860 467.056L860 464L856 464L852 464L851 464L849 464L844 464L839 464L837 464L832 464L830 464L829 464L821 464L820 464L816 464L815 464L810 464L809 464L801 464L799 464L798 464L796 464L792 464L791 464L783 464L782 464L780 464L778 464L774 464L758 464L756 464L755 464L754 464L750 464L734 464L726 464L721 464L713 464L708 464L702 464L694 464L685 464L681 464L673 464L668 464L666 464L665 464L661 464L659 464L658 464L650 464L641 464L639 464L635 464L634 464L631 464L627 464L626 464L617 464L612 464L605 464L600 464L593 464L592 464L590 464L579 464L550 464L543 464L529 464L506 464L479 464L37 464z"/>
<path style="fill:#5c340b; stroke:none;" d="M608 479L607 480L607 497L608 498L612 498L612 479L608 479M623 479L622.278 480.5L622.056 482.056L622.028 483L622 484L622 486L621.917 488L621.5 490L621.056 491L620.5 492L618.917 493.972L617.972 494.917L616 496.611L614 498.222L612.083 500.028L610.5 502L609.917 503L609.028 505L608.333 507L608 508L607.417 510L607.083 512L607.028 513L607 515L607 516L607 519L607 531L607 535L607 537L607 539L607.028 540L607.056 540.944L607.25 541.944L607.278 542.5L608 544L611 544L612 543L612 522L612 518L612 516L612.083 514L612.389 512L612.639 511L613.167 509L613.472 508L614.5 506L616.083 504.083L618 502.389L619 501.611L621 499.917L621.972 498.972L622.917 498L624.5 496L625.583 494L625.972 493L626.583 491L626.917 489L626.972 488L627 487L627 485L626.972 483L626.944 482.056L626.75 481.056L626.722 480.5L626 479L623 479M644 479L643.278 480.444L643.25 481L643 483L633 483L633 488L634.5 488L643 488L643 490.056L643.028 491.056L643.083 492L643.389 494L643.639 495L644.25 497L644.694 497.972L646.083 499.778L646.917 500.611L647.667 501.333L648.278 502.167L648.639 502.583L649 504L645 504L639 504L639 491L638 490L634 490L633 491L633 503L633 505L633 506L633.083 508L633.222 509L633.694 511L634.417 513L634.917 514L635.5 514.972L636.25 515.917L637.083 516.75L638.028 517.5L640 518.5L641 518.75L642 518.917L644 519L645 519L646.944 519L650 519L650 523L634 523L633 524L633 528L634 529L638 529L643 529L643 531.056L642.972 532.056L642.917 533L642.611 534.944L642.25 536.5L642 538L634 538L633 539L633 543L637 543L639 543L641 542.972L642 542.889L643 542.667L643.972 542.278L644.889 541.667L646.361 539.972L646.889 539L647.583 537L647.917 535L648 533L648 531.056L648 529L656 529L656 531.056L656 533L656.083 535L656.417 537L657.111 539L657.639 539.972L659.111 541.667L660.028 542.278L661 542.667L662 542.889L663 542.972L665 543L667 543L672 543L672 539L671 538L663 538L662 537L662 529L666 529L671 529L672 528L672 524L671 523L655 523L655 519L657.056 519L658.056 519L659 519L661 518.972L662 518.917L664 518.528L665 518.139L665.972 517.722L667.75 516.528L668.528 515.75L669.722 513.972L670.528 512L670.917 510L670.972 509L671 508L671 506L671 504L671 501L671 490L666 490L666 504L655 504L655.361 502.583L656.333 501.417L657.083 500.833L658.75 499.528L660.056 497.917L660.833 496L661.361 494L661.611 493L661.917 491.056L661.972 490.056L662 488L665.056 488L667 488L668 487.972L668.944 487.944L669.944 487.75L670.5 487.722L672 487L672 484L671 483L669.5 483L663.5 483L662 483L661.75 481L661.722 480.444L661 479L657 479L656.278 480.444L656.25 481L656 483L652.056 483L649 483L648.75 481L648.722 480.444L648 479L644 479M722 479.417L721 479.722L719.028 480.556L718.083 481.083L716.5 482.417L715.917 483.222L715.028 485.028L714.417 487L714.083 489L714.028 490L714 492L714.028 494L714.083 495L714.417 497L715.111 499L716.306 500.917L717.111 501.75L719 503.056L720 503.5L722 503.917L724 504L725 504L726 504L728 504L733 504L736 504L744 504L746 504L749 504L759 504L764 504L766 504L767 504L768 504L770 503.917L771 503.75L772 503.5L773.917 502.5L775.528 500.917L776.722 499L777.528 497L777.75 496L777.917 495L778 493L778 492L778 491L777.917 489L777.583 487L777.278 486L776.361 484L774.889 482.111L773.972 481.306L772 480.111L771 479.722L770 479.417L768 479.083L767 479.028L765 479L764 479L762 479L757 479L741 479L738 479L734 479L729 479L727 479L726 479L724 479.083L722 479.417M239 481L238.278 482.5L238.25 483.056L238.056 484.056L238.028 485L238 486L238 487L238 490L238 494L238 502L243 502L243 490L243 487L243 486L242.972 485L242.944 484.056L242.75 483.056L242.722 482.5L242 481L239 481M254 481L253.278 482.5L253.25 483.056L253.056 484.056L253 486L253 487L253 488L253 490L253 491L253 493L252.972 494L252.889 495L252.361 497L251.889 498L250.583 499.917L248.917 501.528L247 502.833L246 503.444L244.083 504.861L242.417 506.389L241.083 508.083L240.556 509.028L240.083 510L239.417 512L239.194 513L238.806 515L238.389 517L238.222 518L238.083 519L238 521L238 522L238 523L238 525L238 534L238 538L238 540L238.028 542L238.056 542.944L238.25 543.944L238.278 544.5L239 546L242 546L243 545L243 525L243 522L243 521L243.028 519L243.083 518L243.417 516L243.722 515L244.083 514L245.083 512.028L245.722 511.083L246.417 510.222L247.222 509.417L248.083 508.694L250 507.306L251 506.583L252.972 504.917L253.917 503.972L254.75 503L255.5 502L256.583 500L257.306 498L257.583 497L257.917 495L258 493L258 492L258 490L258 487L258 486L257.972 485L257.944 484.056L257.75 483.056L257.722 482.5L257 481L254 481M264 481L263.417 483L263.222 484L263.083 484.5L263 486L264.5 486.722L265.056 486.75L266.056 486.944L267 486.972L269 487L271 487L274 487L292 487L292 511L292 515L292 517L291.972 519L291.889 520L291.667 521L291.278 522L289.889 523.889L288.972 524.667L288 525.278L286 525.889L285 525.972L284 526L282 526L280 526L279 526L277 526.083L276 526.222L275 526.389L273 526.806L272 527L270 527.5L268.083 528.5L267.25 529.25L266.5 530.083L265.5 532L265.083 534L265.028 535L265.028 537L265.083 538L265.5 540L266.5 541.917L268.083 543.5L270 544.5L271 544.75L272 544.917L274 545L276 545L280 545L301 545L301 540L285 540L282 540L280 540L279 540L277 539.917L276 539.75L275 539.528L273.056 538.806L272.5 538.5L271 538L271 533L272 532L280 532L283 532L284 532L286 531.972L287 531.917L289 531.611L290 531.361L291 531.111L292.972 530.306L293.917 529.667L295.5 527.972L296.583 526L296.972 525L297.306 524L297.583 523L297.917 521L298 519L298 518L298 516L298 487L300 487L301 486L301 482L300 481L264 481M132 482L132 487L132 489L132.111 491L132.333 491.972L132.722 492.917L133.333 493.75L134.111 494.5L136 495.5L138 495.917L140 496L141.944 496L144 496L144 500L141.944 500.028L140.944 500.083L139 500.417L137 501.111L136.028 501.639L135.083 502.306L133.5 504.028L132.5 506L132.083 508L132.028 509L132 511L132 512L132 515L132 534L132 538L132 540L132.028 542L132.056 542.944L132.25 543.944L132.278 544.5L133 546L136 546L137 545L137 523L137 515L137 513L137.028 512L137.083 511L137.472 509L138.194 507.056L138.5 506.5L139 505L144 505L144 510L144 513L144 515L144 517L144.083 519L144.417 521L145.111 523L145.639 523.972L147.111 525.75L148.028 526.5L150 527.5L151 527.75L152 527.917L154 528L155.944 528L159 528L159.5 529.5L159.806 530.056L160.528 532L160.75 533L160.917 534L161 536L161 536.944L161 537.944L161 540L157.944 540L157 540L156 540L154 539.889L152.028 539.278L150.333 537.889L149.722 536.972L149.333 536L149.111 535L149 533L149 531.056L149 528L147.556 527.583L146.444 527.25L145 527L144.278 528.5L144.25 529.056L144.056 530.056L144 532L144 533L144 535L144 536L144.083 538L144.5 540L145.5 541.917L146.25 542.75L148.028 544.056L149 544.5L151 544.917L153 545L154 545L156 545L159 545L184 545L184 541L183 540L166 540L166 537L183 537L184 536L184 532L183 531L166 531L165.917 528.944L165.75 527.944L165.5 527L164.5 525.028L162.917 523.333L161.972 522.722L161 522.333L159 522.028L157 522L155 522L154 521.972L153 521.889L152.028 521.667L150.333 520.722L149.361 519.472L149 518L178 518L177.75 519.444L177.417 520.556L177 522L168 522L167 523L167 527L168 528L171.056 528L172 528L173 528L175 527.917L177 527.528L177.972 527.139L178.917 526.722L180.5 525.528L181.583 523.917L182.306 522L182.583 521L182.778 520L182.917 519L183 517L183 516L183 514L183 505L185.056 505.111L186.056 505.333L187.917 506.333L189.5 508.028L190.5 510L190.917 512L191 514L191 515L191 517L191 535L191 538L191 540L191.028 542L191.056 542.944L191.25 543.944L191.278 544.5L192 546L193.444 545.75L194.556 545.417L196 545L196 518L196 516L196 515L196 514L195.917 512L195.611 510L195.361 509L195.139 508L194.528 506L194.056 505L193.5 504.028L191.917 502.25L190.972 501.5L189 500.5L188 500.25L187 500.083L185.056 500L183 500L183 496L186.056 496L188 495.972L190 495.75L191 495.5L192.917 494.5L193.75 493.75L195.056 491.972L195.5 491L195.917 489L196 487L196 486.056L196 483L194.556 482.583L193.444 482.25L192 482L190 484L190.278 486.056L190.278 487.056L189.583 488.889L187.972 490.278L186.056 490.889L184.5 491L183 491L183 487.944L183 487L182.972 486L182.944 485.056L182.75 484.056L182.722 483.5L182 482L179 482L178 483L178 491L175.944 490.972L174.944 490.917L173.056 490.611L171.5 490.25L170 490L170 487.944L170 486.944L169.972 486L169.944 485.056L169.75 484.056L169.722 483.5L169 482L166 482L165 483L165 487L165.028 489L165.083 490L165.5 491.972L166.5 493.694L168.083 494.889L169.028 495.278L170 495.583L172 495.917L174 496L174.944 496L178 496L178 500L175.944 500L174.944 500.028L174 500.083L172 500.417L171 500.722L170.028 501.111L168.25 502.306L167.5 503.111L166.417 505L165.694 507L165.417 508L165.083 509.944L165.028 510.944L165 513L162 513L162 510.944L161.917 509L161.528 507L161.139 506L160.722 505L159.528 503.111L157.917 501.639L156.972 501.111L155 500.417L154 500.222L153 500.083L151.056 500L149 500L149 496L151.056 496L152.056 496L154 495.972L155 495.917L157 495.528L157.972 495.139L158.917 494.722L160.5 493.528L161.5 491.917L161.75 490.972L161.917 490L162 488L162 486L162 482L157 482L157 490L155.5 490.25L153.944 490.611L152.056 490.917L151.056 490.972L149 491L149 487.944L149 487L148.972 486L148.944 485.056L148.75 484.056L148.722 483.5L148 482L145 482L144 483L144 491L138 491L137 490L137 483L136 482L132 482z"/>
<path style="fill:#fdf9be; stroke:none;" d="M719 489L730 489L732 489L735 489L740.944 489L743 489L743 485L732 485L729 485L727 485L725 485L723 485.083L721.111 485.5L719.722 486.444L719.333 487.194L719 489M748 485L748 489L760 489L765 489L773 489L772.639 487.528L771.667 486.278L769.972 485.333L769 485.111L768 485.028L767 485L766 485L764 485L760 485L751.056 485L748 485M649 488L649 495L650 496L655 496L656 495L656 488L652.056 488L649 488z"/>
<path style="fill:#5c340b; stroke:none;" d="M266 489L265.278 490.5L265.25 491.056L265.056 492.056L265.028 493L265 494L265 496L265 499L265 507L265 509L265.028 511L265.083 512L265.389 514L265.639 515L265.889 516L266.694 517.972L267.333 518.917L269.028 520.5L271 521.5L273 521.917L274 521.972L276 522L277 522L278 522L280 521.917L282 521.5L283.972 520.5L285.694 518.917L286.889 517L287.278 516L287.583 515L287.917 513L287.972 512L288 510L288 509L288 507L288 501L288 497L288 495L287.972 493L287.944 492.056L287.75 491.056L287.722 490.5L287 489L284 489L283 490L283 496L270 496L270 493.944L269.972 492.944L269.944 492.056L269.75 491.056L269.722 490.5L269 489L266 489z"/>
<path style="fill:#fdf9be; stroke:none;" d="M719 495L719.25 497L719.278 497.556L720 499L722.056 499L723.056 499L730 499L732 499L735 499L740.944 499L743 499L743 495L739 495L723 495L719 495M748 495L748 499L756 499L760 499L765 499L767 499L768 499L769 498.972L769.972 498.889L770.889 498.667L772.278 497.722L772.667 496.944L773 495L763 495L757 495L756 495L748 495z"/>
<path style="fill:#5c340b; stroke:none;" d="M623 501L622.278 502.5L622.25 503.056L622.056 504.056L622.028 505L622 507L622 509L622 512L622 530L622 535L622 537L622 539L622.028 540L622.056 540.944L622.25 541.944L622.278 542.5L623 544L626 544L627 543L627 541.5L627 516L627 511L627 509L627 508L627 506L626.972 505L626.944 504.056L626.75 503.056L626.722 502.5L626 501L623 501z"/>
<path style="fill:#fdf9be; stroke:none;" d="M270 502L270 505.056L270 507L270 509L270.083 511L270.417 513L271.028 514.944L271.194 515.5L272 517L281 517L281.972 515.5L282.556 513.944L282.917 512L283 510L283 508L283 506L283 502L270 502M149 505L149 512L157 512L156.972 509.944L156.889 508.944L156.278 507.111L154.889 505.722L153 505.111L152.056 505.028L151.056 505L149 505M170 512L178 512L178 505L175.944 505L174.944 505.028L174 505.111L172.111 505.722L170.722 507.111L170.111 508.944L170.028 509.944L170 512z"/>
<path style="fill:#5c340b; stroke:none;" d="M254 507L253.278 508.5L253.25 509.056L253.056 510.056L253.028 511L253 513L253 515L253 518L253 533L253 537L253 539L253 541L253.028 542L253.056 542.944L253.25 543.944L253.278 544.5L254 546L255.444 545.75L256.556 545.417L258 545L258 521L258 516L258 514L258 512L257.972 511L257.944 510.056L257.75 509.056L257.722 508.5L257 507L254 507M715 509L715 514L720 514L730 514L734 514L733.639 515.472L732.667 516.806L731.889 517.5L730 518.5L728 518.917L726 519L724 519L723 519L721 519L715 519L715 524L721 524L722 524L725 524L726 524L728 524L730 523.917L732 523.583L734 522.889L735.889 521.694L737.361 519.972L738.278 518L738.583 517.056L738.778 516.056L738.917 515.5L739 514L741.056 514L746 514L750 514L752 514L755 514L763 514L766 514L767 514L768 514.028L769 514.111L769.972 514.333L771.667 515.278L772.639 516.528L773 518L771.5 518.25L769.944 518.611L768 518.917L767 518.972L766 519L764 519L761 519L757 519L755 519L754 519L752 519.083L750 519.472L748.028 520.278L747.083 520.861L746.25 521.472L744.917 523.083L744.417 524.028L744.028 525L743.417 527L743.222 528L743.083 529L743 531L743 532L743 534L743 543L744.444 543.417L745.556 543.75L747 544L747.722 542.5L747.944 540.944L747.972 540L748 538L748 537L748 535L748 534L748.028 532L748.083 531L748.5 529L749.5 527.083L751.083 525.5L752.028 524.944L753 524.5L755 524.083L756 524.028L758 524L760 524L765 524L767 524L769 523.972L771 523.75L772 523.528L773.972 522.722L775.75 521.528L776.5 520.75L777.5 518.972L777.75 518L777.889 516L777.75 515L777.056 513.028L775.75 511.306L773.972 510.111L772 509.417L770 509.083L768 509L766 509L764 509L760 509L749 509L748 509L743 509L740 509L734 509L732 509L731 509L727 509L726 509L722 509L715 509z"/>
<path style="fill:#fdf9be; stroke:none;" d="M639 510L639 513L650 513L650 510L639 510M655 510L655 513L657.056 513L658.056 513L660 513L662 512.972L662.972 512.889L664.667 512.333L665.639 511.389L666 510L655 510z"/>
<path style="fill:#5c340b; stroke:none;" d="M716 528L715 529L715 534L721 534L722 534L725 534L726 534L728 534L729 534.028L730 534.111L730.972 534.333L732.667 535.278L733.639 536.528L734 538L726 538L716 538L715 539L715 543L719 543L724 543L727 543L728 543L730 543L732 542.917L733 542.75L734.972 542.056L735.917 541.5L737.5 539.917L738.5 538L738.722 537L738.833 536L738.722 535L738.056 533L737.5 532.028L736.75 531.111L734.972 529.722L733 529.083L732 528.944L730 528.611L729 528.389L727 528.083L725 528L724 528L722 528L716 528M778 543L778 539L777 538L763 538L762 538L758 538L758 534L762 534L767 534L771 534L777 534L778 533L778 529L777 528L769 528L767 528L766 528L764 528.083L762 528.389L761 528.611L759 529L758 529.222L756.083 529.944L754.5 531.25L753.5 533.028L753.083 535L753.056 536L753.083 537L753.5 538.917L754.5 540.528L755.25 541.139L757.028 542.139L758 542.528L760 542.917L762 543L763 543L765 543L768 543L769 543L773 543L778 543z"/>
<path style="fill:#fdf9be; stroke:none;" d="M37 564L37 661L38 662L133 662L133 564L37 564M135 564L135 661L136 662L237 662L237 564L135 564M240 564L240 662L341 662L341 564L240 564M344 564L344 662L345.5 662L446 662L446 564L437 564L344 564M448 564L448 604L448 662L453 662L550 662L550 660.5L550 564L540 564L516 564L448 564M553 564L553 662L585 662L595 662L598 662L603 662L609 662L610 662L618 662L620 662L624 662L632 662L640 662L644 662L649 662L654 662L654 657L654 654L654 649L654 564L625 564L593 564L553 564M657 564L657 565.5L657 571L657 662L661 662L665 662L671 662L676 662L684 662L689 662L696 662L700 662L705 662L707 662L712 662L716 662L724 662L734 662L738 662L746 662L748 662L754.944 662L758 662L758 564L747 564L743 564L735 564L703 564L687 564L686 564L677 564L669 564L664 564L661 564L657 564M761 564L761 570L761 573L761 582L761 589L761 593L761 597L761 662L767 662L775 662L783 662L787 662L810 662L815 662L818 662L819 662L823 662L827 662L837 662L838 662L839 662L840 662L843 662L847 662L855 662L859 662L860 661L860 658.944L860 657L860 649L860 640L860 626L860 624L860 611L860 564L857.944 564L850 564L847 564L843 564L835 564L833 564L830 564L828 564L827 564L819 564L815 564L811 564L809 564L804 564L803 564L795 564L790 564L787 564L783 564L777 564L761 564z"/>
<path style="fill:#5c340b; stroke:none;" d="M48 628L48 655L70 655L70 652L51 652L51 628L48 628M223 628L223 652L203 652L203 655L225 655L225 628L223 628M250 628L250 655L272 655L272 652L252 652L252 628L250 628M432 628L432 652L413 652L413 655L435 655L435 653.5L435 628L432 628M459 628L459 655L481 655L481 652L462 652L462 628L459 628M642 628L642 652L634 652L629 652L626 652L622 652L622 655L632 655L644 655L644 628L642 628M668 628L668 629.5L668 655L671.056 655L691 655L691 653L690 652L681 652L671 652L671 628L669 628L668 628M846 628L846 652L842 652L838 652L837 652L833 652L827 652L827 655L833 655L849 655L849 628L847 628L846 628z"/>
<path style="fill:#fdf9be; stroke:none;" d="M37 664L37 763L133 763L133 664L37 664M135 664L135 763L237 763L237 664L135 664M240 664L240 763L341 763L341 664L240 664M344 664L344 763L446 763L446 664L344 664M448 664L448 673L448 763L550 763L550 664L540 664L516 664L514 664L512 664L448 664M553 664L553 666.056L553 673L553 763L585 763L632 763L640 763L645 763L650.944 763L654 763L654 761.5L654 664L650.944 664L627 664L625 664L593 664L553 664M657 664L657 672L657 763L663 763L666 763L672 763L682 763L683 763L699 763L706 763L711 763L719 763L724 763L738 763L746 763L748 763L754.944 763L758 763L758 749L758 664L750 664L747 664L743 664L738 664L735 664L731 664L730 664L726 664L721 664L712 664L704 664L703 664L699 664L693 664L661 664L657 664M761 664L761 668L761 763L769 763L773 763L778 763L786 763L790 763L796 763L804 763L808 763L812 763L813 763L814 763L818 763L823 763L831 763L837 763L841 763L842 763L845 763L849 763L853 763L854 763L856 763L860 763L860 759L860 754L860 753L860 748L860 737L860 664L856 664L854 664L853 664L843 664L833 664L825 664L821 664L813 664L812 664L810 664L806 664L804 664L772 664L771 664L761 664z"/>
<path style="fill:#5c340b; stroke:none;" d="M48 670L48 698L51 698L51 673L71 673L71 671L70 670L48 670M203 670L203 673L223 673L223 698L225 698L225 670L203 670M250 670L250 698L252 698L252 673L272 673L272 670L250 670M413 670L413 673L432 673L432 698L435 698L435 670L413 670M459 670L459 698L462 698L462 673L481 673L481 670L459 670M622 670L622 673L642 673L642 698L644 698L644 670L640 670L632 670L631 670L627 670L622 670M668 670L668 698L671 698L671 673L679 673L680 673L691 673L691 670L688.944 670L681 670L671.056 670L668 670M827 670L827 673L831 673L836 673L846 673L846 698L849 698L849 670L845 670L841 670L839 670L831 670L827 670M119 729L119 753L100 753L100 756L122 756L122 729L119 729M146 729L146 756L168 756L168 753L149 753L149 729L146 729M746 729L746 753L740 753L737 753L733 753L731 753L727 753L727 756L732 756L740 756L744 756L749 756L749 754.5L749 729L747 729L746 729M773 729L773 733L773 736L773 756L774.5 756L783 756L788 756L790 756L791.944 756L795 756L795 753L791 753L787 753L786 753L776 753L776 729L773 729z"/>
<path style="fill:#fdf9be; stroke:none;" d="M38 765L37 766L37 864L133 864L133 765L38 765M136 765L135 766L135 864L237 864L237 765L136 765M240 765L240 864L341 864L341 765L240 765M346 765L346.778 766.5L347.306 767.056L349.028 768.917L351 770.611L352 771.389L354 773.083L355 774.028L357 776L358 777L361 780L363 782L365 783.972L366 784.917L368 786.611L369 787.389L371 789.083L372 790.028L374 792L376 794L379 797L381 799L382 799.972L383 800.917L385 802.611L386 803.389L388 805.083L389 806.028L391 808L392 809L399 816L401 818L403 819.972L404 820.917L406 822.611L407 823.389L409 825.083L410 826.028L412 828L413 829L415 831L421 837L423 839L424 839.972L425 840.917L427 842.611L428 843.389L430 845.083L431 846.028L433 848L435 850L438 853L439 854L441 855.972L442 856.889L442.944 857.667L444.5 858.639L446 859L446 765L424 765L346 765M448 765L448 861L449.5 860.222L450.056 859.722L452 858.194L453 857.389L454 856.611L456 854.917L457 853.972L458 853L460 851L466 845L467 844L469 842.028L470 841.083L472 839.389L473 838.611L475 836.917L476 835.972L477 835L479 833L484 828L485 827L487 825.028L488 824.083L490 822.389L491 821.611L493 819.917L494 818.972L496 817L498 815L501 812L503 810L504 809.028L505 808.083L507 806.389L508 805.611L510 803.917L511 802.972L513 801L514 800L517 797L518 796L520 794.028L521 793.083L523 791.389L524 790.611L526 788.917L527 787.972L529 786L530 785L534 781L536 779.028L537 778.083L539 776.389L540 775.611L542 773.917L543 772.972L545 771L546.972 769L547.889 768.056L548.694 767.056L549.222 766.5L550 765L540 765L516 765L448 765M553 765L553 767.056L553 774L553 864L585 864L587 864L592 864L603 864L635 864L640 864L645 864L650.944 864L654 864L654 862.5L654 765L625 765L593 765L553 765M657 765L657 773L657 864L663 864L666 864L672 864L682 864L683 864L699 864L706 864L711 864L719 864L724 864L738 864L746 864L748 864L754.944 864L758 864L758 849L758 847L758 844L758 843L758 838L758 765L755.944 765L754.944 765L751 765L743 765L739 765L733 765L717 765L701 765L697 765L689 765L684 765L678 765L677 765L675 765L674 765L666 765L657 765M761 765L761 769L761 864L762.5 864L766 864L770 864L772 864L776 864L781 864L786 864L802 864L807 864L815 864L823 864L831 864L835 864L839 864L841 864L846 864L852 864L853 864L854 864L856 864L860 864L860 860L860 855L860 854L860 853L860 842L860 839L860 765L856 765L854 765L853 765L843 765L833 765L825 765L821 765L813 765L812 765L810 765L806 765L804 765L772 765L771 765L761 765M344 768L344 864L445 864L444.639 862.75L444.278 862.333L443.667 861.556L441.972 859.917L440 858L439 857L437 855L430 848L428 846L427 845.028L426 844.083L424 842.389L423 841.611L421 839.917L420 838.972L418 837L417 836L415 834L410 829L408 827L406 825.028L405 824.083L403 822.389L402 821.611L400 819.917L399 818.972L397 817L395 815L389 809L388 808L386 806.028L385 805.083L383 803.389L381 801.778L380 800.917L378 799L376 797L371 792L369 790L368 789.028L367 788.083L365 786.389L363 784.778L362 783.917L360 782L358 780L356 778L355 777L353 775.028L352 774.083L350 772.389L349 771.611L348 770.806L346.056 769.278L345.5 768.778L344 768M549 770L546.944 772.056L545.944 773.028L545 773.917L543 775.611L542 776.389L540 778.083L539 779.028L537 781L536 782L534 784L533 785L532 786L530 787.972L529 788.917L527 790.611L526 791.389L524 793.083L523 794.028L521 796L520 797L517 800L516 801L514 802.972L513 803.917L511 805.611L510 806.389L508 808.083L507 809.028L505 811L503 813L500 816L499 817L497 818.972L496 819.917L494 821.611L493 822.389L491 824.083L490 825.028L489 826L487 828L482 833L481 834L479 835.972L478 836.917L476 838.611L475 839.389L473 841.083L472 842.028L470 844L469 845L466 848L464 850L462 851.972L461 852.917L459 854.611L458 855.389L456 857.083L454 859L453.028 860L452.111 860.944L451.306 861.944L450.778 862.5L450 864L550 864L550 797L550 779L550 776L550 775L549.972 773.028L549.944 772.111L549.75 771.306L549.722 770.778L549 770z"/>
<path style="fill:#5c340b; stroke:none;" d="M100 772L100 774L119 774L119 799L122 799L122 772L100 772M146 772L146 799L149 799L149 774L168 774L168 772L146 772M727 772L727 774L746 774L746 799L749 799L749 797.5L749 772L745 772L742 772L740 772L737 772L733 772L732 772L727 772M773 772L773 776L773 779L773 799L776 799L776 774L781 774L785 774L787 774L789 774L790 774L791.944 774L795 774L795 772L791 772L787 772L785 772L784 772L782 772L779 772L773 772z"/>
<path style="fill:#fdf9be; stroke:none;" d="M38 866L37 867L37 961L133 961L133 866L38 866M136 866L135 867L135 961L237 961L237 866L136 866M240 866L240 961L341 961L341 866L240 866M344 866L344 961L345.5 960.222L346.056 959.694L348 958.056L350 956.389L351 955.611L353 953.917L354 952.972L356 951L358 949L369 938L376 931L378 929L379 928.028L380 927.083L382 925.389L384 923.778L385 922.917L387 921L389 919L392 916L401 907L404 904L406 902.028L407 901.083L409 899.389L411 897.778L412 896.917L414 895L415 894L418 891L425 884L427 882L429 880.028L430 879.083L432 877.389L433 876.611L435 874.917L436 873.972L438 872L439.972 870L440.889 869.056L441.694 868.056L442.222 867.5L443 866L344 866M453 866L453.361 867.25L453.722 867.667L454.333 868.444L456.028 870.083L457 871.028L458 872L459 873L462 876L470 884L472 886L473 887L475 888.917L475.972 889.778L477.778 891.306L478.611 892L480.222 893.417L481.083 894.222L482.028 895.083L483 896.028L485 898L486 899L489 902L501 914L505 918L507 920L509 921.917L510 922.778L512 924.389L514 926.083L515 927.028L517 929L519 931L526 938L540 952L543 955L544 956L546 957.972L546.944 958.889L547.944 959.694L548.5 960.222L550 961L550 955L550 866L537 866L513 866L453 866M553 866L553 870L553 961L564 961L567 961L570 961L580 961L584 961L589 961L599 961L603 961L613 961L641 961L646 961L650.944 961L654 961L654 955L654 948L654 866L625 866L620 866L612 866L603 866L602 866L597 866L596 866L587 866L585 866L584 866L577 866L573 866L572 866L563 866L553 866M657 866L657 875L657 878L657 881L657 882L657 961L662 961L669 961L674 961L682 961L686 961L691 961L692 961L697 961L701 961L707 961L709 961L711 961L714 961L717 961L721 961L726 961L738 961L746 961L748 961L754.944 961L758 961L758 955L758 943L758 866L747 866L743 866L736 866L731 866L729 866L727 866L726 866L724 866L716 866L711 866L703 866L702 866L693 866L683 866L678 866L676 866L672 866L671 866L670 866L665 866L657 866M761 866L761 867.5L761 869.056L761 874L761 961L769 961L774 961L779 961L785 961L790 961L798 961L817 961L823 961L855 961L860 961L860 956L860 955L860 954L860 943L860 940L860 866L857.944 866L853 866L850 866L846 866L841 866L833 866L830 866L828 866L827 866L819 866L814 866L807 866L806 866L796 866L790 866L789 866L785 866L780 866L779 866L771 866L761 866M448 867L448 961L545 961L544.639 959.75L544.278 959.333L543.667 958.556L541.972 956.917L540 955L538 953L536 951L533 948L524 939L515 930L513 928L512 927L510 925.028L509 924.083L507 922.389L505 920.778L504 919.917L502 918L500 916L496 912L483 899L479 895L477 893L475 891.083L474 890.222L473 889.389L471 887.778L470 886.917L468 885L467 884L465 882L457 874L455 872L454 871L453 870.028L451.056 868.333L449.5 867.361L448 867M445 868L442.944 870.056L441.944 871.056L440 872.972L439 873.917L437 875.611L436 876.389L434 878.083L433 879.028L431 881L429 883L421 891L418 894L416 895.972L415 896.917L413 898.611L412 899.389L410 901.083L409 902.028L407 904L405 906L398 913L395 916L394 917L392 918.917L390.083 920.611L389.222 921.361L388.389 922.139L386.778 923.639L385.917 924.389L384 926.083L382 928L380 930L375 935L366 944L364 946L363 947L361 948.972L360 949.917L358 951.611L357 952.389L355 954.083L353 956L352.028 957L351.111 957.944L350.306 958.944L349.778 959.5L349 961L446 961L446 894L446 877L446 874L446 873L445.972 871.028L445.944 870.111L445.75 869.306L445.722 868.778L445 868z"/>
</svg>
