<?xml version="1.0" encoding="UTF-8" standalone="no"?>
<!-- Created with Inkscape (http://www.inkscape.org/) -->

<svg
   xmlns:dc="http://purl.org/dc/elements/1.1/"
   xmlns:cc="http://creativecommons.org/ns#"
   xmlns:rdf="http://www.w3.org/1999/02/22-rdf-syntax-ns#"
   xmlns:svg="http://www.w3.org/2000/svg"
   xmlns="http://www.w3.org/2000/svg"
   xmlns:sodipodi="http://sodipodi.sourceforge.net/DTD/sodipodi-0.dtd"
   xmlns:inkscape="http://www.inkscape.org/namespaces/inkscape"
   width="128px"
   height="128px"
   viewBox="0 0 128 128"
   version="1.1"
   id="SVGRoot"
   sodipodi:docname="r7.svg"
   inkscape:version="0.92.3 (2405546, 2018-03-11)">
  <sodipodi:namedview
     id="base"
     pagecolor="#ffffff"
     bordercolor="#666666"
     borderopacity="1.0"
     inkscape:pageopacity="0.0"
     inkscape:pageshadow="2"
     inkscape:zoom="1"
     inkscape:cx="62.99458"
     inkscape:cy="116.04616"
     inkscape:document-units="px"
     inkscape:current-layer="layer1"
     showgrid="false"
     inkscape:window-width="728"
     inkscape:window-height="419"
     inkscape:window-x="484"
     inkscape:window-y="97"
     inkscape:window-maximized="0"
     inkscape:grid-bbox="true"
     inkscape:snap-grids="true" />
  <defs
     id="defs4701" />
  <metadata
     id="metadata4704">
    <rdf:RDF>
      <cc:Work
         rdf:about="">
        <dc:format>image/svg+xml</dc:format>
        <dc:type
           rdf:resource="http://purl.org/dc/dcmitype/StillImage" />
      </cc:Work>
    </rdf:RDF>
  </metadata>
  <g
     id="layer1"
     inkscape:groupmode="layer"
     inkscape:label="Layer 1">
    <circle
       style="fill:#ff0000;stroke:#fb0000;stroke-width:1.25490201;stroke-opacity:1"
       id="path4717"
       cx="64"
       cy="64"
       r="63.372547" />
    <circle
       style="fill:#fffabe;fill-opacity:1;stroke:#ff0000;stroke-width:1.23051584;stroke-opacity:1"
       id="path4719"
       cx="64"
       cy="64"
       r="59.384743" />
    <path
       style="fill:#00ff00;fill-opacity:0;stroke-width:0.25"
       d="M 59.311724,122.4651 C 44.820917,121.15335 31.949867,115.02312 21.905919,104.64945 13.230829,95.689572 7.811833,84.65516 5.9157116,72.08944 5.2924992,67.95937 5.2975785,59.994675 5.9260746,55.83944 7.791605,43.505687 13.124844,32.513157 21.534202,23.66897 30.264272,14.487488 41.528222,8.4758435 54.317197,6.1724686 57.973614,5.513925 66.537707,5.2637452 70.348294,5.7041578 c 13.74238,1.5882906 25.887173,7.5667542 35.740586,17.5938592 1.36307,1.387103 2.47832,2.610749 2.47832,2.719214 0,0.108465 -8.618173,0.197209 -19.151491,0.197209 H 70.264224 l 1.838985,-2.031921 c 3.132813,-3.461484 5.463988,-6.223889 5.463988,-6.474734 0,-0.132004 -1.58759,-1.035316 -3.527978,-2.00736 -3.49455,-1.750608 -3.531455,-1.762387 -3.89512,-1.243181 -1.668825,2.38258 -5.700387,6.918598 -9.682282,10.893788 -4.878283,4.87007 -9.172363,8.49474 -14.413608,12.166645 -1.626467,1.13947 -2.934442,2.147105 -2.906612,2.239188 0.04476,0.14811 2.3829,2.957007 4.208632,5.055997 l 0.65803,0.756518 1.96697,-1.47312 c 2.712443,-2.031428 8.804335,-6.983245 11.213683,-9.115085 l 1.996717,-1.766735 18.003283,0.0105 18.003285,0.0105 -1.863768,1.765557 c -3.98121,3.771428 -10.188735,8.010745 -16.67693,11.389208 -3.22428,1.678915 -3.654425,1.840757 -4.0342,1.51788 -0.233807,-0.198775 -1.268852,-1.086675 -2.300102,-1.97311 -1.03125,-0.886433 -3.533855,-2.941433 -5.561343,-4.566665 l -3.686345,-2.95497 -2.438655,2.30794 c -1.341262,1.269365 -2.438657,2.450825 -2.438657,2.625465 0,0.17464 1.117107,1.174955 2.482462,2.222927 1.365355,1.04797 3.497818,2.768965 4.738808,3.824438 l 2.256345,1.919037 -0.988808,0.44809 c -2.359087,1.069048 -12.021907,4.049385 -17.395907,5.36548 -3.213595,0.787013 -5.893898,1.47033 -5.956225,1.518488 -0.167663,0.129535 3.315125,7.069235 3.5478,7.069235 0.109305,0 1.462515,-0.34665 3.007132,-0.770333 23.00616,-6.310507 39.93478,-14.262677 50.067696,-23.519155 2.387,-2.180535 4.61096,-4.55912 6.06178,-6.48323 l 1.05392,-1.397717 0.0118,-3.477282 0.0117,-3.477283 0.67576,0.841313 c 6.86079,8.541592 11.32026,19.349417 12.54707,30.408687 0.32708,2.948505 0.32198,9.26585 -0.01,12.322352 -0.89449,8.237058 -3.9404,17.271865 -8.10886,24.052648 -3.4588,5.626387 -8.47626,11.41297 -13.20862,15.23338 -8.249971,6.66014 -18.425626,11.10249 -28.918893,12.62501 -3.30405,0.4794 -9.640318,0.67426 -12.755473,0.39227 z M 40.317197,64.33944 v -48.875 h -3.875 -3.875 v 23.94017 23.94017 l -4.297517,4.74733 c -2.363635,2.611032 -6.579124,7.025777 -9.367753,9.810547 l -5.070236,5.06322 2.555253,3.611433 c 1.405389,1.98629 2.667753,3.58077 2.805253,3.543295 0.1375,-0.03748 1.575833,-1.63482 3.196296,-3.549653 1.620464,-1.914832 4.545464,-5.29742 6.5,-7.516862 l 3.553704,-4.03535 0.06405,19.09785 0.06405,19.09785 h 3.873447 3.873448 z m 51.035995,46.51426 c 2.06969,-0.43868 3.44353,-1.12965 4.88152,-2.45514 1.484737,-1.36858 2.228182,-2.69632 2.832237,-5.05815 0.468435,-1.83157 0.500248,-2.77216 0.500248,-14.79096 V 75.71444 h 7.250003 7.25 v -3.625 -3.625 h -7.25 -7.250003 v -6.25 -6.25 h -4.125 -4.125 v 6.25 6.25 h -23.25 -23.25 v 3.625 3.625 h 23.25 23.25 v 11.408495 c 0,7.93492 -0.08834,11.703345 -0.29014,12.376895 -0.453775,1.51457 -1.760308,2.85814 -3.265508,3.35809 -1.117367,0.37113 -1.913192,0.40942 -5.68431,0.27344 -2.411775,-0.087 -5.661925,-0.28009 -7.222557,-0.42917 -1.560633,-0.14908 -2.868463,-0.23544 -2.906288,-0.1919 -0.04986,0.0574 1.45316,8.18012 1.599048,8.64165 0.01087,0.0344 3.64788,0.0606 8.082255,0.0582 5.965935,-0.003 8.494422,-0.0959 9.723495,-0.3564 z M 71.622412,95.236432 c 1.336617,-1.085832 2.725585,-2.20658 3.086595,-2.49055 l 0.656382,-0.51631 -0.544847,-0.695067 C 74.020724,90.514172 66.972742,82.747527 64.138684,79.76345 l -2.446487,-2.575993 -2.8125,2.269995 c -1.546875,1.248498 -2.810485,2.351443 -2.808023,2.45099 0.0025,0.09955 1.621615,2.06452 3.598115,4.366605 1.9765,2.302085 4.81511,5.703068 6.308023,7.55774 1.492912,1.85467 2.826885,3.373425 2.964385,3.375008 0.1375,0.0015 1.343597,-0.88553 2.680215,-1.971363 z M 27.71934,50.06957 c 1.841321,-1.03935 3.347857,-1.956728 3.347857,-2.038615 0,-0.388548 -9.108299,-17.445253 -9.617759,-18.010747 -0.07124,-0.07907 -6.154386,3.381642 -6.453196,3.671232 -0.107775,0.10445 0.855411,2.26173 2.140413,4.793955 2.025533,3.991515 4.997822,10.289317 6.106404,12.938487 0.419513,1.002508 0.163935,1.079833 4.476281,-1.354312 z"
       id="path4537"
       inkscape:connector-curvature="0" />
    <path
       style="fill:#00ff00;fill-opacity:0;stroke-width:0.25"
       d="M 59.275187,122.46261 C 41.069187,120.8207 24.964372,111.22811 14.997751,96.08944 10.373696,89.06579 7.1588138,80.572312 5.9087358,72.076942 5.2941897,67.900567 5.3008835,59.91469 5.9223463,55.83944 7.476977,45.64493 11.191654,36.770117 17.354307,28.52711 c 2.045235,-2.735655 7.422609,-8.253229 10.103937,-10.367368 6.696688,-5.28012 15.445593,-9.4910003 23.483953,-11.3029131 8.419282,-1.897776 18.153852,-1.8891353 26.25,0.0233 8.505887,2.0092229 16.75856,6.0357511 23.567123,11.4985381 2.31213,1.855117 7.80788,7.221061 7.80788,7.623463 0,0.11677 -8.618173,0.21231 -19.151491,0.21231 H 70.264224 l 1.838985,-2.034572 c 3.03451,-3.357245 5.463988,-6.239901 5.463988,-6.483205 0,-0.125887 -1.58759,-1.024194 -3.527978,-1.996238 -3.49455,-1.750608 -3.531455,-1.762387 -3.89512,-1.243181 -1.684375,2.404781 -5.69711,6.920927 -9.679195,10.893481 -4.773587,4.762164 -9.61809,8.854327 -14.647707,12.372955 -1.44375,1.01002 -2.666088,1.865342 -2.716303,1.900717 -0.05022,0.03537 0.231033,0.44455 0.625,0.909278 0.393965,0.46473 1.485773,1.764267 2.426238,2.887865 0.940462,1.123595 1.784212,2.039577 1.875,2.03552 0.459917,-0.02058 10.175387,-7.795675 13.50165,-10.80512 l 1.588832,-1.4375 18.03729,0.0083 18.037293,0.0083 -1.630743,1.560752 c -4.30713,4.12227 -11.013355,8.671945 -17.797715,12.07443 -2.407645,1.207478 -2.799715,1.335203 -3.160105,1.029465 -0.22629,-0.191975 -1.255187,-1.07431 -2.286437,-1.960745 C 73.285947,45.04851 70.780212,42.991 68.748897,41.3627 l -3.6933,-2.960548 -2.4317,2.34363 c -1.337435,1.288998 -2.463845,2.462298 -2.503135,2.607335 -0.03929,0.145038 0.466962,0.64907 1.125,1.120075 1.82991,1.309795 7.12303,5.605103 7.778392,6.31208 l 0.581958,0.62779 -1.956958,0.749563 c -4.075107,1.560867 -10.835177,3.610285 -16.418527,4.977527 -3.183638,0.779605 -5.839428,1.456863 -5.901755,1.50502 -0.167663,0.129543 3.315125,7.069243 3.5478,7.069243 0.319007,0 5.508235,-1.448523 9.440525,-2.635233 24.28034,-7.327457 40.3383,-16.348355 49.367353,-27.73315 l 1.38265,-1.74338 0.009,-3.506619 0.009,-3.506618 0.63293,0.75 c 1.28271,1.519947 4.17455,5.819455 5.50368,8.182722 3.64895,6.48804 6.26332,14.69992 7.08199,22.244925 0.33807,3.115735 0.33797,9.280533 -2.2e-4,12.394705 -1.67738,15.446325 -9.65926,30.002323 -21.73637,39.639113 -6.520118,5.20266 -15.022281,9.33609 -23.124996,11.24251 -5.685585,1.33771 -12.857822,1.898 -18.16701,1.41919 z M 40.317197,64.33944 v -48.875 h -3.875 -3.875 l -0.0057,23.9375 -0.0057,23.9375 -1.781628,2 C 26.650251,69.968828 19.972217,76.996417 16.989908,79.845227 l -3.20229,3.058945 2.57729,3.643248 c 1.41751,2.003785 2.650848,3.648595 2.740751,3.655132 0.0899,0.0065 2.413667,-2.603737 5.16392,-5.800612 2.750254,-3.196875 5.714198,-6.61625 6.58654,-7.59861 l 1.58608,-1.78611 0.06405,19.09861 0.06405,19.09861 h 3.873448 3.873447 v -48.875 z m 50.411785,46.64173 c 2.172392,-0.41199 4.02301,-1.25672 5.332545,-2.43411 1.626525,-1.46239 2.38296,-2.77285 3.005422,-5.20665 0.468435,-1.83157 0.500248,-2.77216 0.500248,-14.79096 V 75.71444 h 7.250003 7.25 v -3.625 -3.625 h -7.25 -7.250003 v -6.256193 -6.256192 l -4.0625,0.06869 -4.0625,0.06869 -0.06687,6.1875 -0.06687,6.1875 H 68.062829 44.817197 v 3.625 3.625 h 23.25 23.25 V 87.12293 c 0,8.267712 -0.08415,11.68936 -0.305663,12.428702 -0.429637,1.434008 -2.04648,3.039588 -3.444337,3.420358 -1.25325,0.34137 -7.76013,0.20329 -12.712515,-0.26981 -1.560633,-0.14908 -2.868463,-0.23544 -2.906288,-0.1919 -0.04986,0.0574 1.45316,8.18012 1.599048,8.64165 0.05868,0.18566 16.145167,0.0258 17.18154,-0.17077 z M 71.935389,94.969875 c 1.54636,-1.234513 2.937233,-2.395985 3.090825,-2.581053 0.218568,-0.26336 -0.24287,-0.93011 -2.123217,-3.067935 -4.136328,-4.702715 -10.911543,-11.856447 -11.2291,-11.856447 -0.329983,0 -5.60981,4.211467 -5.601835,4.468317 0.0027,0.08618 1.695352,2.125433 3.761507,4.531683 2.066155,2.40625 4.90459,5.80759 6.307635,7.558532 1.403045,1.750943 2.64811,3.185318 2.766808,3.1875 0.118697,0.0023 1.481017,-1.006087 3.027377,-2.240597 z M 27.71934,50.06957 c 1.841321,-1.03935 3.347857,-1.956728 3.347857,-2.038615 0,-0.380755 -8.892025,-17.028675 -9.613509,-17.998704 -0.05594,-0.07521 -6.204783,3.401866 -6.452484,3.648784 -0.105047,0.104715 0.857715,2.264445 2.13947,4.799397 1.281755,2.534955 3.271448,6.666735 4.421541,9.181735 1.544937,3.37844 2.184865,4.53674 2.450173,4.43493 0.197503,-0.07579 1.865631,-0.988175 3.706952,-2.027527 z"
       id="path4539"
       inkscape:connector-curvature="0" />
    <path
       style="fill:#00ff00;fill-opacity:0;stroke-width:0.25"
       d="M 59.275187,122.46261 C 41.069187,120.8207 24.964372,111.22811 14.997751,96.08944 10.373696,89.06579 7.1588138,80.572312 5.9087358,72.076942 5.2941897,67.900567 5.3008835,59.91469 5.9223463,55.83944 7.476977,45.64493 11.191654,36.770117 17.354307,28.52711 c 2.045235,-2.735655 7.422609,-8.253229 10.103937,-10.367368 6.696688,-5.28012 15.445593,-9.4910003 23.483953,-11.3029131 8.419282,-1.897776 18.153852,-1.8891353 26.25,0.0233 8.505887,2.0092229 16.75856,6.0357511 23.567123,11.4985381 2.31213,1.855117 7.80788,7.221061 7.80788,7.623463 0,0.11677 -8.618173,0.21231 -19.151491,0.21231 H 70.264224 l 1.838985,-2.034572 c 3.03451,-3.357245 5.463988,-6.239901 5.463988,-6.483205 0,-0.125887 -1.58759,-1.024194 -3.527978,-1.996238 -3.49455,-1.750608 -3.531455,-1.762387 -3.89512,-1.243181 -1.684375,2.404781 -5.69711,6.920927 -9.679195,10.893481 -4.773587,4.762164 -9.61809,8.854327 -14.647707,12.372955 -1.44375,1.01002 -2.666088,1.865342 -2.716303,1.900717 -0.05022,0.03537 0.231033,0.44455 0.625,0.909278 0.393965,0.46473 1.485773,1.764267 2.426238,2.887865 0.940462,1.123595 1.784212,2.039577 1.875,2.03552 0.459917,-0.02058 10.175387,-7.795675 13.50165,-10.80512 l 1.588832,-1.4375 18.03729,0.0083 18.037293,0.0083 -1.630743,1.560752 c -4.30713,4.12227 -11.013355,8.671945 -17.797715,12.07443 -2.407645,1.207478 -2.799715,1.335203 -3.160105,1.029465 -0.22629,-0.191975 -1.255187,-1.07431 -2.286437,-1.960745 C 73.285947,45.04851 70.780212,42.991 68.748897,41.3627 l -3.6933,-2.960548 -2.4317,2.34363 c -1.337435,1.288998 -2.463845,2.462298 -2.503135,2.607335 -0.03929,0.145038 0.466962,0.64907 1.125,1.120075 1.82991,1.309795 7.12303,5.605103 7.778392,6.31208 l 0.581958,0.62779 -1.956958,0.749563 c -4.075107,1.560867 -10.835177,3.610285 -16.418527,4.977527 -3.183638,0.779605 -5.839428,1.456863 -5.901755,1.50502 -0.167663,0.129543 3.315125,7.069243 3.5478,7.069243 0.319007,0 5.508235,-1.448523 9.440525,-2.635233 24.28034,-7.327457 40.3383,-16.348355 49.367353,-27.73315 l 1.38265,-1.74338 0.009,-3.506619 0.009,-3.506618 0.63293,0.75 c 1.28271,1.519947 4.17455,5.819455 5.50368,8.182722 3.64895,6.48804 6.26332,14.69992 7.08199,22.244925 0.33807,3.115735 0.33797,9.280533 -2.2e-4,12.394705 -1.67738,15.446325 -9.65926,30.002323 -21.73637,39.639113 -6.520118,5.20266 -15.022281,9.33609 -23.124996,11.24251 -5.685585,1.33771 -12.857822,1.898 -18.16701,1.41919 z M 40.317197,64.33944 v -48.875 h -3.875 -3.875 l -0.0057,23.9375 -0.0057,23.9375 -1.781628,2 C 26.650251,69.968828 19.972217,76.996417 16.989908,79.845227 l -3.20229,3.058945 2.57729,3.643248 c 1.41751,2.003785 2.650848,3.648595 2.740751,3.655132 0.0899,0.0065 2.413667,-2.603737 5.16392,-5.800612 2.750254,-3.196875 5.714198,-6.61625 6.58654,-7.59861 l 1.58608,-1.78611 0.06405,19.09861 0.06405,19.09861 h 3.873448 3.873447 v -48.875 z m 50.411785,46.64173 c 2.172392,-0.41199 4.02301,-1.25672 5.332545,-2.43411 1.626525,-1.46239 2.38296,-2.77285 3.005422,-5.20665 0.468435,-1.83157 0.500248,-2.77216 0.500248,-14.79096 V 75.71444 h 7.250003 7.25 v -3.625 -3.625 h -7.25 -7.250003 v -6.256193 -6.256192 l -4.0625,0.06869 -4.0625,0.06869 -0.06687,6.1875 -0.06687,6.1875 H 68.062829 44.817197 v 3.625 3.625 h 23.25 23.25 V 87.12293 c 0,8.267712 -0.08415,11.68936 -0.305663,12.428702 -0.429637,1.434008 -2.04648,3.039588 -3.444337,3.420358 -1.25325,0.34137 -7.76013,0.20329 -12.712515,-0.26981 -1.560633,-0.14908 -2.868463,-0.23544 -2.906288,-0.1919 -0.04986,0.0574 1.45316,8.18012 1.599048,8.64165 0.05868,0.18566 16.145167,0.0258 17.18154,-0.17077 z M 71.935389,94.969875 c 1.54636,-1.234513 2.937233,-2.395985 3.090825,-2.581053 0.218568,-0.26336 -0.24287,-0.93011 -2.123217,-3.067935 -4.136328,-4.702715 -10.911543,-11.856447 -11.2291,-11.856447 -0.329983,0 -5.60981,4.211467 -5.601835,4.468317 0.0027,0.08618 1.695352,2.125433 3.761507,4.531683 2.066155,2.40625 4.90459,5.80759 6.307635,7.558532 1.403045,1.750943 2.64811,3.185318 2.766808,3.1875 0.118697,0.0023 1.481017,-1.006087 3.027377,-2.240597 z M 27.71934,50.06957 c 1.841321,-1.03935 3.347857,-1.956728 3.347857,-2.038615 0,-0.380755 -8.892025,-17.028675 -9.613509,-17.998704 -0.05594,-0.07521 -6.204783,3.401866 -6.452484,3.648784 -0.105047,0.104715 0.857715,2.264445 2.13947,4.799397 1.281755,2.534955 3.271448,6.666735 4.421541,9.181735 1.544937,3.37844 2.184865,4.53674 2.450173,4.43493 0.197503,-0.07579 1.865631,-0.988175 3.706952,-2.027527 z"
       id="path4541"
       inkscape:connector-curvature="0" />
    <path
       style="fill:#00ff00;fill-opacity:0;stroke-width:0.25"
       d="M 59.014344,122.46206 C 38.486357,120.61109 20.582385,108.33564 11.433641,89.83944 -2.4814023,61.707112 8.2914325,27.789275 35.999627,12.494426 c 4.495505,-2.481507 10.316255,-4.6531775 15.49962,-5.7827722 7.767582,-1.6927652 17.482555,-1.6923326 25.0507,0.00112 11.812765,2.6432233 22.982817,9.0777292 30.671183,17.6681222 l 1.64101,1.833548 H 89.570189 70.278234 l 0.831983,-0.953259 c 0.457587,-0.524293 2.097605,-2.392704 3.64448,-4.152025 1.546875,-1.759321 2.8125,-3.298353 2.8125,-3.420072 0,-0.121718 -1.56926,-1.007433 -3.487248,-1.968255 l -3.487247,-1.74695 -2.430825,3.05778 c -3.064998,3.85552 -11.777855,12.5749 -15.71968,15.731451 -2.70698,2.167705 -8.068385,6.114987 -9.057665,6.668617 -0.319858,0.179 -0.03385,0.637235 1.583655,2.537275 1.085705,1.275353 2.209257,2.602225 2.496782,2.948608 l 0.52277,0.629785 2.10223,-1.5919 c 3.630823,-2.74942 7.75614,-6.0956 10.430855,-8.460813 l 2.57863,-2.280242 18.17137,10e-4 18.171373,0.001 -1.601515,1.436375 c -5.379035,4.824382 -11.25929,8.808272 -18.009223,12.201305 -2.411727,1.21232 -2.845335,1.35653 -3.212102,1.068292 -0.233203,-0.18327 -1.212215,-1.01109 -2.175583,-1.839597 -0.963367,-0.828508 -3.479557,-2.895338 -5.591532,-4.592958 l -3.839953,-3.086582 -2.472547,2.463267 c -1.3599,1.354798 -2.470143,2.52163 -2.467208,2.59296 0.0029,0.07133 0.457455,0.449608 1.01004,0.84062 1.535608,1.0866 6.21681,4.86066 7.518888,6.061848 l 1.159265,1.069437 -3.15202,1.154203 c -5.413168,1.982187 -16.045128,4.993632 -20.36489,5.768247 -0.521608,0.09354 -0.915358,0.254973 -0.875,0.358753 0.04036,0.10378 0.796455,1.72615 1.680212,3.605265 l 1.606835,3.41657 0.768165,-0.165953 c 2.063288,-0.445747 10.83191,-3.0593 15.414195,-4.594312 18.116163,-6.068715 31.191263,-13.326558 39.485616,-21.918033 1.3099,-1.356825 2.90976,-3.1573 3.55526,-4.001057 l 1.17362,-1.534103 0.0697,-3.465897 0.0697,-3.46565 1.76332,2.375 c 6.23615,8.399427 9.86843,17.43653 11.25403,28 0.56209,4.285195 0.3821,12.646562 -0.36056,16.75 -4.64646,25.67314 -24.393676,44.797286 -49.965238,48.388716 -3.276,0.46011 -9.745973,0.64054 -12.869408,0.3589 z M 40.317197,64.33944 v -48.875 h -3.875 -3.875 V 39.429405 63.39437 l -3.684879,4.097535 c -2.026683,2.253645 -6.228089,6.662157 -9.336459,9.796695 l -5.65158,5.69916 2.348435,3.30084 c 1.291639,1.815462 2.496237,3.450012 2.676884,3.632335 0.272037,0.274562 0.928051,-0.376735 3.819563,-3.792093 1.920113,-2.267972 4.888796,-5.704042 6.597075,-7.635709 l 3.105961,-3.512126 0.06405,19.116718 0.06405,19.116715 h 3.873447 3.873448 z m 50.87064,46.49655 c 3.404565,-0.72116 5.58203,-2.31472 7.007997,-5.12873 1.281493,-2.52891 1.362315,-3.55205 1.367023,-17.30532 l 0.0043,-12.6875 h 7.250003 7.25 v -3.625 -3.625 h -7.25 -7.250003 v -6.256193 -6.256192 l -4.0625,0.06869 -4.0625,0.06869 -0.06687,6.1875 -0.06687,6.1875 H 68.062829 44.817197 v 3.625 3.625 h 23.25 23.25 l -0.0015,11.4375 c -0.001,7.606597 -0.0943,11.772165 -0.27878,12.436675 -0.38026,1.36973 -2.044973,2.9906 -3.474123,3.38261 -1.261162,0.34593 -8.170527,0.19857 -12.829195,-0.27361 -1.489672,-0.15099 -2.742622,-0.2371 -2.784332,-0.19135 -0.06817,0.0748 1.293937,7.63701 1.51222,8.39567 0.140277,0.48755 15.380905,0.43085 17.726245,-0.066 z m -18.88141,-16.202338 3.026705,-2.455787 -0.980013,-1.169213 c -1.45675,-1.737987 -6.738342,-7.521892 -9.8444,-10.78066 -2.564865,-2.69097 -2.759415,-2.841427 -3.265482,-2.525382 -0.919408,0.57418 -5.17662,4.057555 -5.165568,4.22662 0.0057,0.08812 1.754465,2.18521 3.886013,4.66021 2.131547,2.475 4.967462,5.873575 6.30203,7.552387 1.334567,1.678815 2.558677,3.028815 2.720247,3 0.161568,-0.02881 1.65578,-1.157492 3.320468,-2.508175 z M 27.459316,50.18785 c 1.984334,-1.114625 3.607881,-2.091313 3.607881,-2.170415 0,-0.214215 -5.686609,-10.956815 -7.698973,-14.544165 -0.961428,-1.713895 -1.87143,-3.157298 -2.022226,-3.207563 -0.236137,-0.07871 -6.528801,3.354548 -6.528801,3.562095 0,0.04174 1.000086,2.030178 2.222414,4.41876 1.222327,2.388583 3.211605,6.508503 4.420617,9.155378 1.209013,2.646875 2.24163,4.8125 2.294705,4.8125 0.05308,0 1.720048,-0.911965 3.704383,-2.02659 z"
       id="path4543"
       inkscape:connector-curvature="0" />
    <path
       style="fill:#00ff00;fill-opacity:0;stroke-width:0.25"
       d="M 59.014344,122.46206 C 38.486357,120.61109 20.582385,108.33564 11.433641,89.83944 -2.4814023,61.707112 8.2914325,27.789275 35.999627,12.494426 c 4.495505,-2.481507 10.316255,-4.6531775 15.49962,-5.7827722 7.767582,-1.6927652 17.482555,-1.6923326 25.0507,0.00112 11.812765,2.6432233 22.982817,9.0777292 30.671183,17.6681222 l 1.64101,1.833548 H 89.570189 70.278234 l 0.831983,-0.953259 c 0.457587,-0.524293 2.097605,-2.392704 3.64448,-4.152025 1.546875,-1.759321 2.8125,-3.298353 2.8125,-3.420072 0,-0.121718 -1.56926,-1.007433 -3.487248,-1.968255 l -3.487247,-1.74695 -2.430825,3.05778 c -3.064998,3.85552 -11.777855,12.5749 -15.71968,15.731451 -2.70698,2.167705 -8.068385,6.114987 -9.057665,6.668617 -0.319858,0.179 -0.03385,0.637235 1.583655,2.537275 1.085705,1.275353 2.209257,2.602225 2.496782,2.948608 l 0.52277,0.629785 2.10223,-1.5919 c 3.630823,-2.74942 7.75614,-6.0956 10.430855,-8.460813 l 2.57863,-2.280242 18.17137,10e-4 18.171373,0.001 -1.601515,1.436375 c -5.379035,4.824382 -11.25929,8.808272 -18.009223,12.201305 -2.411727,1.21232 -2.845335,1.35653 -3.212102,1.068292 -0.233203,-0.18327 -1.212215,-1.01109 -2.175583,-1.839597 -0.963367,-0.828508 -3.479557,-2.895338 -5.591532,-4.592958 l -3.839953,-3.086582 -2.472547,2.463267 c -1.3599,1.354798 -2.470143,2.52163 -2.467208,2.59296 0.0029,0.07133 0.457455,0.449608 1.01004,0.84062 1.535608,1.0866 6.21681,4.86066 7.518888,6.061848 l 1.159265,1.069437 -3.15202,1.154203 c -5.413168,1.982187 -16.045128,4.993632 -20.36489,5.768247 -0.521608,0.09354 -0.915358,0.254973 -0.875,0.358753 0.04036,0.10378 0.796455,1.72615 1.680212,3.605265 l 1.606835,3.41657 0.768165,-0.165953 c 2.063288,-0.445747 10.83191,-3.0593 15.414195,-4.594312 18.116163,-6.068715 31.191263,-13.326558 39.485616,-21.918033 1.3099,-1.356825 2.90976,-3.1573 3.55526,-4.001057 l 1.17362,-1.534103 0.0697,-3.465897 0.0697,-3.46565 1.76332,2.375 c 6.23615,8.399427 9.86843,17.43653 11.25403,28 0.56209,4.285195 0.3821,12.646562 -0.36056,16.75 -4.64646,25.67314 -24.393676,44.797286 -49.965238,48.388716 -3.276,0.46011 -9.745973,0.64054 -12.869408,0.3589 z M 40.317197,64.33944 v -48.875 h -3.875 -3.875 V 39.429405 63.39437 l -3.684879,4.097535 c -2.026683,2.253645 -6.228089,6.662157 -9.336459,9.796695 l -5.65158,5.69916 2.348435,3.30084 c 1.291639,1.815462 2.496237,3.450012 2.676884,3.632335 0.272037,0.274562 0.928051,-0.376735 3.819563,-3.792093 1.920113,-2.267972 4.888796,-5.704042 6.597075,-7.635709 l 3.105961,-3.512126 0.06405,19.116718 0.06405,19.116715 h 3.873447 3.873448 z m 50.87064,46.49655 c 3.404565,-0.72116 5.58203,-2.31472 7.007997,-5.12873 1.281493,-2.52891 1.362315,-3.55205 1.367023,-17.30532 l 0.0043,-12.6875 h 7.250003 7.25 v -3.625 -3.625 h -7.25 -7.250003 v -6.256193 -6.256192 l -4.0625,0.06869 -4.0625,0.06869 -0.06687,6.1875 -0.06687,6.1875 H 68.062829 44.817197 v 3.625 3.625 h 23.25 23.25 l -0.0015,11.4375 c -0.001,7.606597 -0.0943,11.772165 -0.27878,12.436675 -0.38026,1.36973 -2.044973,2.9906 -3.474123,3.38261 -1.261162,0.34593 -8.170527,0.19857 -12.829195,-0.27361 -1.489672,-0.15099 -2.742622,-0.2371 -2.784332,-0.19135 -0.06817,0.0748 1.293937,7.63701 1.51222,8.39567 0.140277,0.48755 15.380905,0.43085 17.726245,-0.066 z m -18.88141,-16.202338 3.026705,-2.455787 -0.980013,-1.169213 c -1.45675,-1.737987 -6.738342,-7.521892 -9.8444,-10.78066 -2.564865,-2.69097 -2.759415,-2.841427 -3.265482,-2.525382 -0.919408,0.57418 -5.17662,4.057555 -5.165568,4.22662 0.0057,0.08812 1.754465,2.18521 3.886013,4.66021 2.131547,2.475 4.967462,5.873575 6.30203,7.552387 1.334567,1.678815 2.558677,3.028815 2.720247,3 0.161568,-0.02881 1.65578,-1.157492 3.320468,-2.508175 z M 27.459316,50.18785 c 1.984334,-1.114625 3.607881,-2.091313 3.607881,-2.170415 0,-0.214215 -5.686609,-10.956815 -7.698973,-14.544165 -0.961428,-1.713895 -1.87143,-3.157298 -2.022226,-3.207563 -0.236137,-0.07871 -6.528801,3.354548 -6.528801,3.562095 0,0.04174 1.000086,2.030178 2.222414,4.41876 1.222327,2.388583 3.211605,6.508503 4.420617,9.155378 1.209013,2.646875 2.24163,4.8125 2.294705,4.8125 0.05308,0 1.720048,-0.911965 3.704383,-2.02659 z"
       id="path4545"
       inkscape:connector-curvature="0" />
    <path
       style="fill:#00ff00;fill-opacity:0;stroke-width:0.25"
       d="M 59.014344,122.46206 C 38.486357,120.61109 20.582385,108.33564 11.433641,89.83944 -2.4814023,61.707112 8.2914325,27.789275 35.999627,12.494426 c 4.495505,-2.481507 10.316255,-4.6531775 15.49962,-5.7827722 7.767582,-1.6927652 17.482555,-1.6923326 25.0507,0.00112 11.812765,2.6432233 22.982817,9.0777292 30.671183,17.6681222 l 1.64101,1.833548 H 89.570189 70.278234 l 0.831983,-0.953259 c 0.457587,-0.524293 2.097605,-2.392704 3.64448,-4.152025 1.546875,-1.759321 2.8125,-3.298353 2.8125,-3.420072 0,-0.121718 -1.56926,-1.007433 -3.487248,-1.968255 l -3.487247,-1.74695 -2.430825,3.05778 c -3.064998,3.85552 -11.777855,12.5749 -15.71968,15.731451 -2.70698,2.167705 -8.068385,6.114987 -9.057665,6.668617 -0.319858,0.179 -0.03385,0.637235 1.583655,2.537275 1.085705,1.275353 2.209257,2.602225 2.496782,2.948608 l 0.52277,0.629785 2.10223,-1.5919 c 3.630823,-2.74942 7.75614,-6.0956 10.430855,-8.460813 l 2.57863,-2.280242 18.17137,10e-4 18.171373,0.001 -1.601515,1.436375 c -5.379035,4.824382 -11.25929,8.808272 -18.009223,12.201305 -2.411727,1.21232 -2.845335,1.35653 -3.212102,1.068292 -0.233203,-0.18327 -1.212215,-1.01109 -2.175583,-1.839597 -0.963367,-0.828508 -3.479557,-2.895338 -5.591532,-4.592958 l -3.839953,-3.086582 -2.472547,2.463267 c -1.3599,1.354798 -2.470143,2.52163 -2.467208,2.59296 0.0029,0.07133 0.457455,0.449608 1.01004,0.84062 1.535608,1.0866 6.21681,4.86066 7.518888,6.061848 l 1.159265,1.069437 -3.15202,1.154203 c -5.413168,1.982187 -16.045128,4.993632 -20.36489,5.768247 -0.521608,0.09354 -0.915358,0.254973 -0.875,0.358753 0.04036,0.10378 0.796455,1.72615 1.680212,3.605265 l 1.606835,3.41657 0.768165,-0.165953 c 2.063288,-0.445747 10.83191,-3.0593 15.414195,-4.594312 18.116163,-6.068715 31.191263,-13.326558 39.485616,-21.918033 1.3099,-1.356825 2.90976,-3.1573 3.55526,-4.001057 l 1.17362,-1.534103 0.0697,-3.465897 0.0697,-3.46565 1.76332,2.375 c 6.23615,8.399427 9.86843,17.43653 11.25403,28 0.56209,4.285195 0.3821,12.646562 -0.36056,16.75 -4.64646,25.67314 -24.393676,44.797286 -49.965238,48.388716 -3.276,0.46011 -9.745973,0.64054 -12.869408,0.3589 z M 40.317197,64.33944 v -48.875 h -3.875 -3.875 V 39.429405 63.39437 l -3.684879,4.097535 c -2.026683,2.253645 -6.228089,6.662157 -9.336459,9.796695 l -5.65158,5.69916 2.348435,3.30084 c 1.291639,1.815462 2.496237,3.450012 2.676884,3.632335 0.272037,0.274562 0.928051,-0.376735 3.819563,-3.792093 1.920113,-2.267972 4.888796,-5.704042 6.597075,-7.635709 l 3.105961,-3.512126 0.06405,19.116718 0.06405,19.116715 h 3.873447 3.873448 z m 50.87064,46.49655 c 3.404565,-0.72116 5.58203,-2.31472 7.007997,-5.12873 1.281493,-2.52891 1.362315,-3.55205 1.367023,-17.30532 l 0.0043,-12.6875 h 7.250003 7.25 v -3.625 -3.625 h -7.25 -7.250003 v -6.256193 -6.256192 l -4.0625,0.06869 -4.0625,0.06869 -0.06687,6.1875 -0.06687,6.1875 H 68.062829 44.817197 v 3.625 3.625 h 23.25 23.25 l -0.0015,11.4375 c -0.001,7.606597 -0.0943,11.772165 -0.27878,12.436675 -0.38026,1.36973 -2.044973,2.9906 -3.474123,3.38261 -1.261162,0.34593 -8.170527,0.19857 -12.829195,-0.27361 -1.489672,-0.15099 -2.742622,-0.2371 -2.784332,-0.19135 -0.06817,0.0748 1.293937,7.63701 1.51222,8.39567 0.140277,0.48755 15.380905,0.43085 17.726245,-0.066 z m -18.88141,-16.202338 3.026705,-2.455787 -0.980013,-1.169213 c -1.45675,-1.737987 -6.738342,-7.521892 -9.8444,-10.78066 -2.564865,-2.69097 -2.759415,-2.841427 -3.265482,-2.525382 -0.919408,0.57418 -5.17662,4.057555 -5.165568,4.22662 0.0057,0.08812 1.754465,2.18521 3.886013,4.66021 2.131547,2.475 4.967462,5.873575 6.30203,7.552387 1.334567,1.678815 2.558677,3.028815 2.720247,3 0.161568,-0.02881 1.65578,-1.157492 3.320468,-2.508175 z M 27.459316,50.18785 c 1.984334,-1.114625 3.607881,-2.091313 3.607881,-2.170415 0,-0.214215 -5.686609,-10.956815 -7.698973,-14.544165 -0.961428,-1.713895 -1.87143,-3.157298 -2.022226,-3.207563 -0.236137,-0.07871 -6.528801,3.354548 -6.528801,3.562095 0,0.04174 1.000086,2.030178 2.222414,4.41876 1.222327,2.388583 3.211605,6.508503 4.420617,9.155378 1.209013,2.646875 2.24163,4.8125 2.294705,4.8125 0.05308,0 1.720048,-0.911965 3.704383,-2.02659 z"
       id="path4547"
       inkscape:connector-curvature="0" />
    <path
       style="fill:#00ff00;fill-opacity:0;stroke-width:0.25"
       d="M 59.014344,122.46206 C 38.486357,120.61109 20.582385,108.33564 11.433641,89.83944 -2.4814023,61.707112 8.2914325,27.789275 35.999627,12.494426 c 4.495505,-2.481507 10.316255,-4.6531775 15.49962,-5.7827722 7.767582,-1.6927652 17.482555,-1.6923326 25.0507,0.00112 11.812765,2.6432233 22.982817,9.0777292 30.671183,17.6681222 l 1.64101,1.833548 H 89.570189 70.278234 l 0.831983,-0.953259 c 0.457587,-0.524293 2.097605,-2.392704 3.64448,-4.152025 1.546875,-1.759321 2.8125,-3.298353 2.8125,-3.420072 0,-0.121718 -1.56926,-1.007433 -3.487248,-1.968255 l -3.487247,-1.74695 -2.430825,3.05778 c -3.064998,3.85552 -11.777855,12.5749 -15.71968,15.731451 -2.70698,2.167705 -8.068385,6.114987 -9.057665,6.668617 -0.319858,0.179 -0.03385,0.637235 1.583655,2.537275 1.085705,1.275353 2.209257,2.602225 2.496782,2.948608 l 0.52277,0.629785 2.10223,-1.5919 c 3.630823,-2.74942 7.75614,-6.0956 10.430855,-8.460813 l 2.57863,-2.280242 18.17137,10e-4 18.171373,0.001 -1.601515,1.436375 c -5.379035,4.824382 -11.25929,8.808272 -18.009223,12.201305 -2.411727,1.21232 -2.845335,1.35653 -3.212102,1.068292 -0.233203,-0.18327 -1.212215,-1.01109 -2.175583,-1.839597 -0.963367,-0.828508 -3.479557,-2.895338 -5.591532,-4.592958 l -3.839953,-3.086582 -2.472547,2.463267 c -1.3599,1.354798 -2.470143,2.52163 -2.467208,2.59296 0.0029,0.07133 0.457455,0.449608 1.01004,0.84062 1.535608,1.0866 6.21681,4.86066 7.518888,6.061848 l 1.159265,1.069437 -3.15202,1.154203 c -5.413168,1.982187 -16.045128,4.993632 -20.36489,5.768247 -0.521608,0.09354 -0.915358,0.254973 -0.875,0.358753 0.04036,0.10378 0.796455,1.72615 1.680212,3.605265 l 1.606835,3.41657 0.768165,-0.165953 c 2.063288,-0.445747 10.83191,-3.0593 15.414195,-4.594312 18.116163,-6.068715 31.191263,-13.326558 39.485616,-21.918033 1.3099,-1.356825 2.90976,-3.1573 3.55526,-4.001057 l 1.17362,-1.534103 0.0697,-3.465897 0.0697,-3.46565 1.76332,2.375 c 6.23615,8.399427 9.86843,17.43653 11.25403,28 0.56209,4.285195 0.3821,12.646562 -0.36056,16.75 -4.64646,25.67314 -24.393676,44.797286 -49.965238,48.388716 -3.276,0.46011 -9.745973,0.64054 -12.869408,0.3589 z M 40.317197,64.33944 v -48.875 h -3.875 -3.875 V 39.429405 63.39437 l -3.684879,4.097535 c -2.026683,2.253645 -6.228089,6.662157 -9.336459,9.796695 l -5.65158,5.69916 2.348435,3.30084 c 1.291639,1.815462 2.496237,3.450012 2.676884,3.632335 0.272037,0.274562 0.928051,-0.376735 3.819563,-3.792093 1.920113,-2.267972 4.888796,-5.704042 6.597075,-7.635709 l 3.105961,-3.512126 0.06405,19.116718 0.06405,19.116715 h 3.873447 3.873448 z m 50.87064,46.49655 c 3.404565,-0.72116 5.58203,-2.31472 7.007997,-5.12873 1.281493,-2.52891 1.362315,-3.55205 1.367023,-17.30532 l 0.0043,-12.6875 h 7.250003 7.25 v -3.625 -3.625 h -7.25 -7.250003 v -6.256193 -6.256192 l -4.0625,0.06869 -4.0625,0.06869 -0.06687,6.1875 -0.06687,6.1875 H 68.062829 44.817197 v 3.625 3.625 h 23.25 23.25 l -0.0015,11.4375 c -0.001,7.606597 -0.0943,11.772165 -0.27878,12.436675 -0.38026,1.36973 -2.044973,2.9906 -3.474123,3.38261 -1.261162,0.34593 -8.170527,0.19857 -12.829195,-0.27361 -1.489672,-0.15099 -2.742622,-0.2371 -2.784332,-0.19135 -0.06817,0.0748 1.293937,7.63701 1.51222,8.39567 0.140277,0.48755 15.380905,0.43085 17.726245,-0.066 z m -18.88141,-16.202338 3.026705,-2.455787 -0.980013,-1.169213 c -1.45675,-1.737987 -6.738342,-7.521892 -9.8444,-10.78066 -2.564865,-2.69097 -2.759415,-2.841427 -3.265482,-2.525382 -0.919408,0.57418 -5.17662,4.057555 -5.165568,4.22662 0.0057,0.08812 1.754465,2.18521 3.886013,4.66021 2.131547,2.475 4.967462,5.873575 6.30203,7.552387 1.334567,1.678815 2.558677,3.028815 2.720247,3 0.161568,-0.02881 1.65578,-1.157492 3.320468,-2.508175 z M 27.459316,50.18785 c 1.984334,-1.114625 3.607881,-2.091313 3.607881,-2.170415 0,-0.214215 -5.686609,-10.956815 -7.698973,-14.544165 -0.961428,-1.713895 -1.87143,-3.157298 -2.022226,-3.207563 -0.236137,-0.07871 -6.528801,3.354548 -6.528801,3.562095 0,0.04174 1.000086,2.030178 2.222414,4.41876 1.222327,2.388583 3.211605,6.508503 4.420617,9.155378 1.209013,2.646875 2.24163,4.8125 2.294705,4.8125 0.05308,0 1.720048,-0.911965 3.704383,-2.02659 z"
       id="path4549"
       inkscape:connector-curvature="0" />
    <path
       style="fill:#00ff00;fill-opacity:0;stroke-width:0.25"
       d="M 59.014344,122.46206 C 38.486357,120.61109 20.582385,108.33564 11.433641,89.83944 -2.4814023,61.707112 8.2914325,27.789275 35.999627,12.494426 c 4.495505,-2.481507 10.316255,-4.6531775 15.49962,-5.7827722 7.767582,-1.6927652 17.482555,-1.6923326 25.0507,0.00112 11.812765,2.6432233 22.982817,9.0777292 30.671183,17.6681222 l 1.64101,1.833548 H 89.570189 70.278234 l 0.831983,-0.953259 c 0.457587,-0.524293 2.097605,-2.392704 3.64448,-4.152025 1.546875,-1.759321 2.8125,-3.298353 2.8125,-3.420072 0,-0.121718 -1.56926,-1.007433 -3.487248,-1.968255 l -3.487247,-1.74695 -2.430825,3.05778 c -3.064998,3.85552 -11.777855,12.5749 -15.71968,15.731451 -2.70698,2.167705 -8.068385,6.114987 -9.057665,6.668617 -0.319858,0.179 -0.03385,0.637235 1.583655,2.537275 1.085705,1.275353 2.209257,2.602225 2.496782,2.948608 l 0.52277,0.629785 2.10223,-1.5919 c 3.630823,-2.74942 7.75614,-6.0956 10.430855,-8.460813 l 2.57863,-2.280242 18.17137,10e-4 18.171373,0.001 -1.601515,1.436375 c -5.379035,4.824382 -11.25929,8.808272 -18.009223,12.201305 -2.411727,1.21232 -2.845335,1.35653 -3.212102,1.068292 -0.233203,-0.18327 -1.212215,-1.01109 -2.175583,-1.839597 -0.963367,-0.828508 -3.479557,-2.895338 -5.591532,-4.592958 l -3.839953,-3.086582 -2.472547,2.463267 c -1.3599,1.354798 -2.470143,2.52163 -2.467208,2.59296 0.0029,0.07133 0.457455,0.449608 1.01004,0.84062 1.535608,1.0866 6.21681,4.86066 7.518888,6.061848 l 1.159265,1.069437 -3.15202,1.154203 c -5.413168,1.982187 -16.045128,4.993632 -20.36489,5.768247 -0.521608,0.09354 -0.915358,0.254973 -0.875,0.358753 0.04036,0.10378 0.796455,1.72615 1.680212,3.605265 l 1.606835,3.41657 0.768165,-0.165953 c 2.063288,-0.445747 10.83191,-3.0593 15.414195,-4.594312 18.116163,-6.068715 31.191263,-13.326558 39.485616,-21.918033 1.3099,-1.356825 2.90976,-3.1573 3.55526,-4.001057 l 1.17362,-1.534103 0.0697,-3.465897 0.0697,-3.46565 1.76332,2.375 c 6.23615,8.399427 9.86843,17.43653 11.25403,28 0.56209,4.285195 0.3821,12.646562 -0.36056,16.75 -4.64646,25.67314 -24.393676,44.797286 -49.965238,48.388716 -3.276,0.46011 -9.745973,0.64054 -12.869408,0.3589 z M 40.317197,64.33944 v -48.875 h -3.875 -3.875 V 39.429405 63.39437 l -3.684879,4.097535 c -2.026683,2.253645 -6.228089,6.662157 -9.336459,9.796695 l -5.65158,5.69916 2.348435,3.30084 c 1.291639,1.815462 2.496237,3.450012 2.676884,3.632335 0.272037,0.274562 0.928051,-0.376735 3.819563,-3.792093 1.920113,-2.267972 4.888796,-5.704042 6.597075,-7.635709 l 3.105961,-3.512126 0.06405,19.116718 0.06405,19.116715 h 3.873447 3.873448 z m 50.87064,46.49655 c 3.404565,-0.72116 5.58203,-2.31472 7.007997,-5.12873 1.281493,-2.52891 1.362315,-3.55205 1.367023,-17.30532 l 0.0043,-12.6875 h 7.250003 7.25 v -3.625 -3.625 h -7.25 -7.250003 v -6.256193 -6.256192 l -4.0625,0.06869 -4.0625,0.06869 -0.06687,6.1875 -0.06687,6.1875 H 68.062829 44.817197 v 3.625 3.625 h 23.25 23.25 l -0.0015,11.4375 c -0.001,7.606597 -0.0943,11.772165 -0.27878,12.436675 -0.38026,1.36973 -2.044973,2.9906 -3.474123,3.38261 -1.261162,0.34593 -8.170527,0.19857 -12.829195,-0.27361 -1.489672,-0.15099 -2.742622,-0.2371 -2.784332,-0.19135 -0.06817,0.0748 1.293937,7.63701 1.51222,8.39567 0.140277,0.48755 15.380905,0.43085 17.726245,-0.066 z m -18.88141,-16.202338 3.026705,-2.455787 -0.980013,-1.169213 c -1.45675,-1.737987 -6.738342,-7.521892 -9.8444,-10.78066 -2.564865,-2.69097 -2.759415,-2.841427 -3.265482,-2.525382 -0.919408,0.57418 -5.17662,4.057555 -5.165568,4.22662 0.0057,0.08812 1.754465,2.18521 3.886013,4.66021 2.131547,2.475 4.967462,5.873575 6.30203,7.552387 1.334567,1.678815 2.558677,3.028815 2.720247,3 0.161568,-0.02881 1.65578,-1.157492 3.320468,-2.508175 z M 27.459316,50.18785 c 1.984334,-1.114625 3.607881,-2.091313 3.607881,-2.170415 0,-0.214215 -5.686609,-10.956815 -7.698973,-14.544165 -0.961428,-1.713895 -1.87143,-3.157298 -2.022226,-3.207563 -0.236137,-0.07871 -6.528801,3.354548 -6.528801,3.562095 0,0.04174 1.000086,2.030178 2.222414,4.41876 1.222327,2.388583 3.211605,6.508503 4.420617,9.155378 1.209013,2.646875 2.24163,4.8125 2.294705,4.8125 0.05308,0 1.720048,-0.911965 3.704383,-2.02659 z"
       id="path4551"
       inkscape:connector-curvature="0" />
    <path
       style="fill:#00ff00;fill-opacity:0;stroke-width:0.25"
       d="M 59.014344,122.46206 C 38.486357,120.61109 20.582385,108.33564 11.433641,89.83944 -2.4814023,61.707112 8.2914325,27.789275 35.999627,12.494426 c 4.495505,-2.481507 10.316255,-4.6531775 15.49962,-5.7827722 7.767582,-1.6927652 17.482555,-1.6923326 25.0507,0.00112 11.812765,2.6432233 22.982817,9.0777292 30.671183,17.6681222 l 1.64101,1.833548 H 89.570189 70.278234 l 0.831983,-0.953259 c 0.457587,-0.524293 2.097605,-2.392704 3.64448,-4.152025 1.546875,-1.759321 2.8125,-3.298353 2.8125,-3.420072 0,-0.121718 -1.56926,-1.007433 -3.487248,-1.968255 l -3.487247,-1.74695 -2.430825,3.05778 c -3.064998,3.85552 -11.777855,12.5749 -15.71968,15.731451 -2.70698,2.167705 -8.068385,6.114987 -9.057665,6.668617 -0.319858,0.179 -0.03385,0.637235 1.583655,2.537275 1.085705,1.275353 2.209257,2.602225 2.496782,2.948608 l 0.52277,0.629785 2.10223,-1.5919 c 3.630823,-2.74942 7.75614,-6.0956 10.430855,-8.460813 l 2.57863,-2.280242 18.17137,10e-4 18.171373,0.001 -1.601515,1.436375 c -5.379035,4.824382 -11.25929,8.808272 -18.009223,12.201305 -2.411727,1.21232 -2.845335,1.35653 -3.212102,1.068292 -0.233203,-0.18327 -1.212215,-1.01109 -2.175583,-1.839597 -0.963367,-0.828508 -3.479557,-2.895338 -5.591532,-4.592958 l -3.839953,-3.086582 -2.472547,2.463267 c -1.3599,1.354798 -2.470143,2.52163 -2.467208,2.59296 0.0029,0.07133 0.457455,0.449608 1.01004,0.84062 1.535608,1.0866 6.21681,4.86066 7.518888,6.061848 l 1.159265,1.069437 -3.15202,1.154203 c -5.413168,1.982187 -16.045128,4.993632 -20.36489,5.768247 -0.521608,0.09354 -0.915358,0.254973 -0.875,0.358753 0.04036,0.10378 0.796455,1.72615 1.680212,3.605265 l 1.606835,3.41657 0.768165,-0.165953 c 2.063288,-0.445747 10.83191,-3.0593 15.414195,-4.594312 18.116163,-6.068715 31.191263,-13.326558 39.485616,-21.918033 1.3099,-1.356825 2.90976,-3.1573 3.55526,-4.001057 l 1.17362,-1.534103 0.0697,-3.465897 0.0697,-3.46565 1.76332,2.375 c 6.23615,8.399427 9.86843,17.43653 11.25403,28 0.56209,4.285195 0.3821,12.646562 -0.36056,16.75 -4.64646,25.67314 -24.393676,44.797286 -49.965238,48.388716 -3.276,0.46011 -9.745973,0.64054 -12.869408,0.3589 z M 40.317197,64.33944 v -48.875 h -3.875 -3.875 V 39.429405 63.39437 l -3.684879,4.097535 c -2.026683,2.253645 -6.228089,6.662157 -9.336459,9.796695 l -5.65158,5.69916 2.348435,3.30084 c 1.291639,1.815462 2.496237,3.450012 2.676884,3.632335 0.272037,0.274562 0.928051,-0.376735 3.819563,-3.792093 1.920113,-2.267972 4.888796,-5.704042 6.597075,-7.635709 l 3.105961,-3.512126 0.06405,19.116718 0.06405,19.116715 h 3.873447 3.873448 z m 50.87064,46.49655 c 3.404565,-0.72116 5.58203,-2.31472 7.007997,-5.12873 1.281493,-2.52891 1.362315,-3.55205 1.367023,-17.30532 l 0.0043,-12.6875 h 7.250003 7.25 v -3.625 -3.625 h -7.25 -7.250003 v -6.256193 -6.256192 l -4.0625,0.06869 -4.0625,0.06869 -0.06687,6.1875 -0.06687,6.1875 H 68.062829 44.817197 v 3.625 3.625 h 23.25 23.25 l -0.0015,11.4375 c -0.001,7.606597 -0.0943,11.772165 -0.27878,12.436675 -0.38026,1.36973 -2.044973,2.9906 -3.474123,3.38261 -1.261162,0.34593 -8.170527,0.19857 -12.829195,-0.27361 -1.489672,-0.15099 -2.742622,-0.2371 -2.784332,-0.19135 -0.06817,0.0748 1.293937,7.63701 1.51222,8.39567 0.140277,0.48755 15.380905,0.43085 17.726245,-0.066 z m -18.88141,-16.202338 3.026705,-2.455787 -0.980013,-1.169213 c -1.45675,-1.737987 -6.738342,-7.521892 -9.8444,-10.78066 -2.564865,-2.69097 -2.759415,-2.841427 -3.265482,-2.525382 -0.919408,0.57418 -5.17662,4.057555 -5.165568,4.22662 0.0057,0.08812 1.754465,2.18521 3.886013,4.66021 2.131547,2.475 4.967462,5.873575 6.30203,7.552387 1.334567,1.678815 2.558677,3.028815 2.720247,3 0.161568,-0.02881 1.65578,-1.157492 3.320468,-2.508175 z M 27.459316,50.18785 c 1.984334,-1.114625 3.607881,-2.091313 3.607881,-2.170415 0,-0.214215 -5.686609,-10.956815 -7.698973,-14.544165 -0.961428,-1.713895 -1.87143,-3.157298 -2.022226,-3.207563 -0.236137,-0.07871 -6.528801,3.354548 -6.528801,3.562095 0,0.04174 1.000086,2.030178 2.222414,4.41876 1.222327,2.388583 3.211605,6.508503 4.420617,9.155378 1.209013,2.646875 2.24163,4.8125 2.294705,4.8125 0.05308,0 1.720048,-0.911965 3.704383,-2.02659 z"
       id="path4553"
       inkscape:connector-curvature="0" />
    <path
       style="fill:#00ff00;fill-opacity:0;stroke-width:0.25"
       d="M 59.014344,122.46206 C 38.486357,120.61109 20.582385,108.33564 11.433641,89.83944 -2.4814023,61.707112 8.2914325,27.789275 35.999627,12.494426 c 4.495505,-2.481507 10.316255,-4.6531775 15.49962,-5.7827722 7.767582,-1.6927652 17.482555,-1.6923326 25.0507,0.00112 11.812765,2.6432233 22.982817,9.0777292 30.671183,17.6681222 l 1.64101,1.833548 H 89.570189 70.278234 l 0.831983,-0.953259 c 0.457587,-0.524293 2.097605,-2.392704 3.64448,-4.152025 1.546875,-1.759321 2.8125,-3.298353 2.8125,-3.420072 0,-0.121718 -1.56926,-1.007433 -3.487248,-1.968255 l -3.487247,-1.74695 -2.430825,3.05778 c -3.064998,3.85552 -11.777855,12.5749 -15.71968,15.731451 -2.70698,2.167705 -8.068385,6.114987 -9.057665,6.668617 -0.319858,0.179 -0.03385,0.637235 1.583655,2.537275 1.085705,1.275353 2.209257,2.602225 2.496782,2.948608 l 0.52277,0.629785 2.10223,-1.5919 c 3.630823,-2.74942 7.75614,-6.0956 10.430855,-8.460813 l 2.57863,-2.280242 18.17137,10e-4 18.171373,0.001 -1.601515,1.436375 c -5.379035,4.824382 -11.25929,8.808272 -18.009223,12.201305 -2.411727,1.21232 -2.845335,1.35653 -3.212102,1.068292 -0.233203,-0.18327 -1.212215,-1.01109 -2.175583,-1.839597 -0.963367,-0.828508 -3.479557,-2.895338 -5.591532,-4.592958 l -3.839953,-3.086582 -2.472547,2.463267 c -1.3599,1.354798 -2.470143,2.52163 -2.467208,2.59296 0.0029,0.07133 0.457455,0.449608 1.01004,0.84062 1.535608,1.0866 6.21681,4.86066 7.518888,6.061848 l 1.159265,1.069437 -3.15202,1.154203 c -5.413168,1.982187 -16.045128,4.993632 -20.36489,5.768247 -0.521608,0.09354 -0.915358,0.254973 -0.875,0.358753 0.04036,0.10378 0.796455,1.72615 1.680212,3.605265 l 1.606835,3.41657 0.768165,-0.165953 c 2.063288,-0.445747 10.83191,-3.0593 15.414195,-4.594312 18.116163,-6.068715 31.191263,-13.326558 39.485616,-21.918033 1.3099,-1.356825 2.90976,-3.1573 3.55526,-4.001057 l 1.17362,-1.534103 0.0697,-3.465897 0.0697,-3.46565 1.76332,2.375 c 6.23615,8.399427 9.86843,17.43653 11.25403,28 0.56209,4.285195 0.3821,12.646562 -0.36056,16.75 -4.64646,25.67314 -24.393676,44.797286 -49.965238,48.388716 -3.276,0.46011 -9.745973,0.64054 -12.869408,0.3589 z M 40.317197,64.33944 v -48.875 h -3.875 -3.875 V 39.429405 63.39437 l -3.684879,4.097535 c -2.026683,2.253645 -6.228089,6.662157 -9.336459,9.796695 l -5.65158,5.69916 2.348435,3.30084 c 1.291639,1.815462 2.496237,3.450012 2.676884,3.632335 0.272037,0.274562 0.928051,-0.376735 3.819563,-3.792093 1.920113,-2.267972 4.888796,-5.704042 6.597075,-7.635709 l 3.105961,-3.512126 0.06405,19.116718 0.06405,19.116715 h 3.873447 3.873448 z m 50.87064,46.49655 c 3.404565,-0.72116 5.58203,-2.31472 7.007997,-5.12873 1.281493,-2.52891 1.362315,-3.55205 1.367023,-17.30532 l 0.0043,-12.6875 h 7.250003 7.25 v -3.625 -3.625 h -7.25 -7.250003 v -6.256193 -6.256192 l -4.0625,0.06869 -4.0625,0.06869 -0.06687,6.1875 -0.06687,6.1875 H 68.062829 44.817197 v 3.625 3.625 h 23.25 23.25 l -0.0015,11.4375 c -0.001,7.606597 -0.0943,11.772165 -0.27878,12.436675 -0.38026,1.36973 -2.044973,2.9906 -3.474123,3.38261 -1.261162,0.34593 -8.170527,0.19857 -12.829195,-0.27361 -1.489672,-0.15099 -2.742622,-0.2371 -2.784332,-0.19135 -0.06817,0.0748 1.293937,7.63701 1.51222,8.39567 0.140277,0.48755 15.380905,0.43085 17.726245,-0.066 z m -18.88141,-16.202338 3.026705,-2.455787 -0.980013,-1.169213 c -1.45675,-1.737987 -6.738342,-7.521892 -9.8444,-10.78066 -2.564865,-2.69097 -2.759415,-2.841427 -3.265482,-2.525382 -0.919408,0.57418 -5.17662,4.057555 -5.165568,4.22662 0.0057,0.08812 1.754465,2.18521 3.886013,4.66021 2.131547,2.475 4.967462,5.873575 6.30203,7.552387 1.334567,1.678815 2.558677,3.028815 2.720247,3 0.161568,-0.02881 1.65578,-1.157492 3.320468,-2.508175 z M 27.459316,50.18785 c 1.984334,-1.114625 3.607881,-2.091313 3.607881,-2.170415 0,-0.214215 -5.686609,-10.956815 -7.698973,-14.544165 -0.961428,-1.713895 -1.87143,-3.157298 -2.022226,-3.207563 -0.236137,-0.07871 -6.528801,3.354548 -6.528801,3.562095 0,0.04174 1.000086,2.030178 2.222414,4.41876 1.222327,2.388583 3.211605,6.508503 4.420617,9.155378 1.209013,2.646875 2.24163,4.8125 2.294705,4.8125 0.05308,0 1.720048,-0.911965 3.704383,-2.02659 z"
       id="path4555"
       inkscape:connector-curvature="0" />
    <path
       style="fill:#00ff00;fill-opacity:0;stroke-width:0.08838835"
       d="M 31.047619,112.59785 C 20.833012,105.69026 12.950149,95.540164 8.7551687,83.893736 6.9246307,78.811655 5.851011,73.722834 5.4078834,68.028028 5.2706731,66.264685 5.2716905,61.660771 5.4096804,59.8963 6.0279044,51.991093 8.0150415,44.705425 11.412465,37.887601 l 0.770792,-1.546796 2.011606,-0.02376 2.011606,-0.02376 1.759008,3.559294 c 1.652502,3.343783 3.693981,7.702339 5.09286,10.873254 0.337739,0.765567 0.651578,1.39202 0.697423,1.392116 0.143512,3.03e-4 7.208684,-3.997738 7.208684,-4.079251 0,-0.199751 -3.082368,-6.134816 -5.696574,-10.968689 l -0.41826,-0.773398 h 3.852912 3.852913 v 13.60352 13.60352 l -1.562758,1.753955 c -5.40276,6.063767 -11.720141,12.641322 -16.004426,16.663549 -0.546903,0.51345 -0.994369,0.961734 -0.994369,0.996186 0,0.04743 4.401867,6.268617 5.056453,7.146319 0.108239,0.145131 0.254186,-0.0023 1.61853,-1.635184 3.173364,-3.797932 7.266025,-8.527408 10.380776,-11.996019 l 1.4616,-1.627649 0.0223,19.106444 0.0223,19.106448 h 3.888886 3.888886 V 74.657154 36.296611 h 3.800699 c 2.090385,0 3.800699,0.01601 3.800699,0.03558 0,0.04556 -2.002911,1.468238 -3.491339,2.479917 -0.631977,0.429553 -1.184927,0.812992 -1.228777,0.852088 -0.04454,0.03971 0.230556,0.414269 0.623355,0.848722 0.931822,1.030635 1.998497,2.285414 3.159403,3.716552 0.522504,0.64413 0.964926,1.171146 0.98316,1.171146 0.01823,0 1.059476,-0.769342 2.31387,-1.709648 2.569432,-1.926071 5.754429,-4.454943 7.825684,-6.213556 l 1.390717,-1.180796 H 77.819533 96.12798 l -0.857252,0.708485 C 90.65682,40.8183 85.690022,44.008957 79.418996,47.1882 l -2.412942,1.223297 -0.289318,-0.245909 c -0.159125,-0.13525 -1.121701,-0.96262 -2.139058,-1.838599 -2.108743,-1.815701 -4.777152,-4.006917 -7.578755,-6.223441 -1.919042,-1.518275 -1.929239,-1.524829 -2.119999,-1.362547 -0.440997,0.375161 -4.790519,4.587218 -4.790519,4.639116 0,0.03115 0.775608,0.644855 1.723573,1.363793 3.521557,2.670756 8.187729,6.553162 8.043339,6.692321 -0.125256,0.120719 -4.303763,1.625786 -6.938485,2.49919 -4.773761,1.582491 -10.119848,3.052739 -15.356655,4.223294 -1.154121,0.257974 -2.120997,0.491639 -2.148612,0.519253 -0.02761,0.02761 0.355179,0.85994 0.850651,1.84961 0.495473,0.989671 1.236138,2.515347 1.645921,3.390392 0.409784,0.875044 0.779734,1.626167 0.822112,1.669162 0.08501,0.08626 2.736542,-0.603521 6.761962,-1.759075 18.070168,-5.187298 32.184812,-11.521772 41.984465,-18.842096 3.418884,-2.553906 6.043004,-4.957059 8.740304,-8.00434 l 0.60633,-0.68501 h 4.48857 4.48857 l 0.79547,1.613087 c 3.27819,6.647594 5.16475,13.313755 5.89715,20.837553 0.19514,2.004706 0.2672,6.440389 0.13855,8.529476 -0.65986,10.71519 -3.95832,20.56294 -9.84375,29.389125 -4.13095,6.195058 -9.80794,11.899828 -15.904872,15.982688 l -0.947222,0.63432 h -31.9376 -31.937598 z m 58.297329,-1.52814 c 5.278146,-0.49769 8.396814,-2.96741 9.63859,-7.63293 0.530861,-1.99451 0.507464,-1.34316 0.544031,-15.145724 l 0.03354,-12.66163 h 7.244201 7.24418 v -3.535534 -3.535534 h -7.24784 -7.247851 V 62.371173 56.183989 H 95.53213 91.51046 v 6.187184 6.187185 H 68.22013 44.9298 v 3.535534 3.535534 h 23.29033 23.29033 l -5.31e-4,10.938058 c -5.3e-4,11.666842 -0.0083,11.902594 -0.43321,13.127905 -0.603993,1.741881 -1.656608,2.772731 -3.411161,3.340641 -0.545545,0.17658 -0.848694,0.20482 -2.563262,0.23875 -2.635893,0.0522 -6.863157,-0.16706 -11.402097,-0.59132 -0.923658,-0.0863 -1.693086,-0.14602 -1.70984,-0.13265 -0.01675,0.0134 0.191566,1.15083 0.462932,2.52766 0.271366,1.37684 0.614428,3.1994 0.76236,4.05014 0.147932,0.85074 0.288282,1.63582 0.31189,1.74463 l 0.04292,0.19784 3.423625,0.0242 c 9.124808,0.0645 11.44658,0.0597 12.350847,-0.0256 z M 72.111563,94.682195 c 1.679405,-1.358387 3.042077,-2.518225 3.028162,-2.577421 -0.02888,-0.122845 -2.20546,-2.621075 -4.496941,-5.161484 -3.80579,-4.219221 -8.903774,-9.565729 -9.041215,-9.481968 -0.05442,0.03317 -1.31208,1.033642 -2.794795,2.223278 -1.482715,1.189635 -2.710922,2.174398 -2.729349,2.188362 -0.01843,0.01396 0.272552,0.374912 0.646619,0.80211 3.809605,4.350694 7.417933,8.64202 10.302846,12.253008 0.996579,1.247397 1.861292,2.258076 1.921585,2.245951 0.06029,-0.01212 1.483683,-1.13345 3.163088,-2.491836 z"
       id="path4557"
       inkscape:connector-curvature="0" />
    <path
       style="fill:#fffbbe;fill-opacity:0;stroke-width:0.08838835"
       d="M 31.047619,112.59785 C 20.833012,105.69026 12.950149,95.540164 8.7551687,83.893736 6.9246307,78.811655 5.851011,73.722834 5.4078834,68.028028 5.2706731,66.264685 5.2716905,61.660771 5.4096804,59.8963 6.0279044,51.991093 8.0150415,44.705425 11.412465,37.887601 l 0.770792,-1.546796 2.011606,-0.02376 2.011606,-0.02376 1.759008,3.559294 c 1.652502,3.343783 3.693981,7.702339 5.09286,10.873254 0.337739,0.765567 0.651578,1.39202 0.697423,1.392116 0.143512,3.03e-4 7.208684,-3.997738 7.208684,-4.079251 0,-0.199751 -3.082368,-6.134816 -5.696574,-10.968689 l -0.41826,-0.773398 h 3.852912 3.852913 v 13.60352 13.60352 l -1.562758,1.753955 c -5.40276,6.063767 -11.720141,12.641322 -16.004426,16.663549 -0.546903,0.51345 -0.994369,0.961734 -0.994369,0.996186 0,0.04743 4.401867,6.268617 5.056453,7.146319 0.108239,0.145131 0.254186,-0.0023 1.61853,-1.635184 3.173364,-3.797932 7.266025,-8.527408 10.380776,-11.996019 l 1.4616,-1.627649 0.0223,19.106444 0.0223,19.106448 h 3.888886 3.888886 V 74.657154 36.296611 h 3.800699 c 2.090385,0 3.800699,0.01601 3.800699,0.03558 0,0.04556 -2.002911,1.468238 -3.491339,2.479917 -0.631977,0.429553 -1.184927,0.812992 -1.228777,0.852088 -0.04454,0.03971 0.230556,0.414269 0.623355,0.848722 0.931822,1.030635 1.998497,2.285414 3.159403,3.716552 0.522504,0.64413 0.964926,1.171146 0.98316,1.171146 0.01823,0 1.059476,-0.769342 2.31387,-1.709648 2.569432,-1.926071 5.754429,-4.454943 7.825684,-6.213556 l 1.390717,-1.180796 H 77.819533 96.12798 l -0.857252,0.708485 C 90.65682,40.8183 85.690022,44.008957 79.418996,47.1882 l -2.412942,1.223297 -0.289318,-0.245909 c -0.159125,-0.13525 -1.121701,-0.96262 -2.139058,-1.838599 -2.108743,-1.815701 -4.777152,-4.006917 -7.578755,-6.223441 -1.919042,-1.518275 -1.929239,-1.524829 -2.119999,-1.362547 -0.440997,0.375161 -4.790519,4.587218 -4.790519,4.639116 0,0.03115 0.775608,0.644855 1.723573,1.363793 3.521557,2.670756 8.187729,6.553162 8.043339,6.692321 -0.125256,0.120719 -4.303763,1.625786 -6.938485,2.49919 -4.773761,1.582491 -10.119848,3.052739 -15.356655,4.223294 -1.154121,0.257974 -2.120997,0.491639 -2.148612,0.519253 -0.02761,0.02761 0.355179,0.85994 0.850651,1.84961 0.495473,0.989671 1.236138,2.515347 1.645921,3.390392 0.409784,0.875044 0.779734,1.626167 0.822112,1.669162 0.08501,0.08626 2.736542,-0.603521 6.761962,-1.759075 18.070168,-5.187298 32.184812,-11.521772 41.984465,-18.842096 3.418884,-2.553906 6.043004,-4.957059 8.740304,-8.00434 l 0.60633,-0.68501 h 4.48857 4.48857 l 0.79547,1.613087 c 3.27819,6.647594 5.16475,13.313755 5.89715,20.837553 0.19514,2.004706 0.2672,6.440389 0.13855,8.529476 -0.65986,10.71519 -3.95832,20.56294 -9.84375,29.389125 -4.13095,6.195058 -9.80794,11.899828 -15.904872,15.982688 l -0.947222,0.63432 h -31.9376 -31.937598 z m 58.297329,-1.52814 c 5.278146,-0.49769 8.396814,-2.96741 9.63859,-7.63293 0.530861,-1.99451 0.507464,-1.34316 0.544031,-15.145724 l 0.03354,-12.66163 h 7.244201 7.24418 v -3.535534 -3.535534 h -7.24784 -7.247851 V 62.371173 56.183989 H 95.53213 91.51046 v 6.187184 6.187185 H 68.22013 44.9298 v 3.535534 3.535534 h 23.29033 23.29033 l -5.31e-4,10.938058 c -5.3e-4,11.666842 -0.0083,11.902594 -0.43321,13.127905 -0.603993,1.741881 -1.656608,2.772731 -3.411161,3.340641 -0.545545,0.17658 -0.848694,0.20482 -2.563262,0.23875 -2.635893,0.0522 -6.863157,-0.16706 -11.402097,-0.59132 -0.923658,-0.0863 -1.693086,-0.14602 -1.70984,-0.13265 -0.01675,0.0134 0.191566,1.15083 0.462932,2.52766 0.271366,1.37684 0.614428,3.1994 0.76236,4.05014 0.147932,0.85074 0.288282,1.63582 0.31189,1.74463 l 0.04292,0.19784 3.423625,0.0242 c 9.124808,0.0645 11.44658,0.0597 12.350847,-0.0256 z M 72.111563,94.682195 c 1.679405,-1.358387 3.042077,-2.518225 3.028162,-2.577421 -0.02888,-0.122845 -2.20546,-2.621075 -4.496941,-5.161484 -3.80579,-4.219221 -8.903774,-9.565729 -9.041215,-9.481968 -0.05442,0.03317 -1.31208,1.033642 -2.794795,2.223278 -1.482715,1.189635 -2.710922,2.174398 -2.729349,2.188362 -0.01843,0.01396 0.272552,0.374912 0.646619,0.80211 3.809605,4.350694 7.417933,8.64202 10.302846,12.253008 0.996579,1.247397 1.861292,2.258076 1.921585,2.245951 0.06029,-0.01212 1.483683,-1.13345 3.163088,-2.491836 z"
       id="path4559"
       inkscape:connector-curvature="0" />
    <path
       style="fill:#fffbbe;fill-opacity:0;stroke-width:0.08838835"
       d="M 30.973172,112.54936 C 24.690951,108.25623 19.162748,102.66163 15.065628,96.450757 9.6394385,88.225139 6.531635,79.391867 5.5010473,69.265465 5.2765957,67.060037 5.2760061,60.962794 5.5000302,58.747251 6.2844454,50.989582 8.3427979,43.836457 11.636512,37.421935 l 0.5795,-1.128578 1.992884,0.02372 1.992885,0.02372 0.952306,1.856155 c 1.223763,2.385255 3.162867,6.470377 5.033516,10.604132 0.813352,1.797345 1.515264,3.280046 1.559805,3.294894 0.06073,0.02024 7.082935,-3.857103 7.259288,-4.008255 0.06087,-0.05217 -5.546924,-10.788599 -6.054797,-11.592246 l -0.125681,-0.198874 h 3.846931 3.84693 l -0.004,13.633902 -0.004,13.633903 -1.420476,1.59099 C 25.736906,71.1528 20.502735,76.632455 15.965874,80.99046 l -2.014321,1.934911 2.588846,3.641224 2.588846,3.641225 0.265165,-0.288293 c 0.145841,-0.158562 1.319196,-1.538256 2.607456,-3.065989 2.896598,-3.435039 5.246666,-6.149208 7.951234,-9.183136 1.144464,-1.283836 2.188607,-2.457191 2.320319,-2.607456 l 0.239476,-0.27321 0.0036,19.11398 0.0036,19.113984 h 3.933282 3.933281 V 74.657154 36.296611 h 3.822514 3.822514 l -0.44166,0.317248 c -0.475188,0.341332 -2.439164,1.711897 -3.679258,2.567577 l -0.762725,0.526291 1.410704,1.62829 c 0.775887,0.895559 1.81152,2.12674 2.301407,2.735956 0.489886,0.609217 0.942009,1.163846 1.004717,1.232507 0.09631,0.105453 0.413293,-0.09937 2.041047,-1.318853 3.145409,-2.356479 6.44244,-4.979499 8.814808,-7.0128 l 0.78898,-0.676216 18.302903,0.0029 c 17.307279,0.0028 18.293127,0.0112 18.1232,0.15468 -4.864934,4.107884 -10.323237,7.63601 -16.902799,10.925595 l -2.056482,1.02818 -1.390663,-1.217432 c -1.827147,-1.599545 -4.539194,-3.853717 -7.003324,-5.820955 -2.924595,-2.33485 -3.43661,-2.730717 -3.53192,-2.730717 -0.04737,0 -1.201738,1.068269 -2.565263,2.37393 l -2.479135,2.373931 1.481828,1.110865 c 3.504897,2.627474 8.547595,6.824295 8.347978,6.947665 -0.138281,0.08546 -2.760425,1.064537 -4.557911,1.701866 -4.973534,1.76345 -11.979991,3.743453 -17.776198,5.023501 -1.020885,0.225454 -1.924759,0.429894 -2.008609,0.454309 -0.129222,0.03763 -0.01366,0.323088 0.758313,1.873202 0.500922,1.005845 1.262332,2.574585 1.692023,3.48609 0.429691,0.911505 0.827105,1.657281 0.883141,1.657281 0.217598,0 6.685583,-1.799569 9.370122,-2.607022 15.014146,-4.515941 26.778652,-9.661229 35.974058,-15.733502 4.716155,-3.114355 9.104742,-6.868349 11.988252,-10.254741 l 0.63834,-0.749666 h 3.03377 3.03378 v 16.130873 16.130874 h -6.67332 -6.673327 v -6.187185 -6.187184 h -4.02167 -4.02167 v 6.187184 6.187185 H 68.228972 44.982836 v 3.535534 3.535534 h 23.248367 23.248366 l -0.02748,11.468388 -0.02748,11.468388 -0.191926,0.660343 c -0.607565,2.090395 -1.787812,3.308735 -3.742576,3.863365 -0.499483,0.14172 -0.919531,0.16017 -3.527999,0.15494 -3.031753,-0.006 -5.365554,-0.12992 -9.722718,-0.51594 -1.239647,-0.10982 -2.262265,-0.19469 -2.272485,-0.1886 -0.01022,0.006 0.176469,0.98382 0.414866,2.17273 0.238395,1.18892 0.598646,3.09637 0.800556,4.23879 0.20191,1.14242 0.375051,2.08562 0.384758,2.09599 0.0097,0.0104 3.575632,0.0303 7.924278,0.0442 8.463014,0.0271 8.482679,0.0263 10.28495,-0.42402 3.70155,-0.92489 6.043108,-3.19877 7.137356,-6.93107 0.09264,-0.31599 0.254266,-1.01205 0.359174,-1.5468 0.189098,-0.96395 0.19099,-1.0817 0.220998,-13.766481 l 0.03028,-12.794213 h 6.670489 6.67049 v 10.480278 10.480277 l -0.41415,0.590363 c -4.45702,6.353326 -9.3485,11.225626 -15.444421,15.383876 l -1.053519,0.71864 -31.959531,-0.004 -31.959527,-0.004 z M 72.140496,94.665027 c 1.664829,-1.34643 3.043179,-2.460957 3.063001,-2.476728 0.156692,-0.124669 -8.25992,-9.377444 -12.109368,-13.312394 l -1.450089,-1.482297 -2.73992,2.211145 c -1.506956,1.216129 -2.7526,2.249183 -2.768097,2.295676 -0.0155,0.04649 0.661816,0.871979 1.505141,1.834414 3.336988,3.808301 6.0723,7.066308 9.228031,10.991428 1.334635,1.660028 2.036857,2.466429 2.120006,2.434522 0.06838,-0.02624 1.486466,-1.149335 3.151295,-2.495766 z"
       id="path4561"
       inkscape:connector-curvature="0" />
    <path
       style="fill:#fffbbe;fill-opacity:0;stroke-width:0.08838835"
       d="M 30.973172,112.54936 C 24.690951,108.25623 19.162748,102.66163 15.065628,96.450757 9.6394385,88.225139 6.531635,79.391867 5.5010473,69.265465 5.2765957,67.060037 5.2760061,60.962794 5.5000302,58.747251 6.2844454,50.989582 8.3427979,43.836457 11.636512,37.421935 l 0.5795,-1.128578 1.992884,0.02372 1.992885,0.02372 0.952306,1.856155 c 1.223763,2.385255 3.162867,6.470377 5.033516,10.604132 0.813352,1.797345 1.515264,3.280046 1.559805,3.294894 0.06073,0.02024 7.082935,-3.857103 7.259288,-4.008255 0.06087,-0.05217 -5.546924,-10.788599 -6.054797,-11.592246 l -0.125681,-0.198874 h 3.846931 3.84693 l -0.004,13.633902 -0.004,13.633903 -1.420476,1.59099 C 25.736906,71.1528 20.502735,76.632455 15.965874,80.99046 l -2.014321,1.934911 2.588846,3.641224 2.588846,3.641225 0.265165,-0.288293 c 0.145841,-0.158562 1.319196,-1.538256 2.607456,-3.065989 2.896598,-3.435039 5.246666,-6.149208 7.951234,-9.183136 1.144464,-1.283836 2.188607,-2.457191 2.320319,-2.607456 l 0.239476,-0.27321 0.0036,19.11398 0.0036,19.113984 h 3.933282 3.933281 V 74.657154 36.296611 h 3.822514 3.822514 l -0.44166,0.317248 c -0.475188,0.341332 -2.439164,1.711897 -3.679258,2.567577 l -0.762725,0.526291 1.410704,1.62829 c 0.775887,0.895559 1.81152,2.12674 2.301407,2.735956 0.489886,0.609217 0.942009,1.163846 1.004717,1.232507 0.09631,0.105453 0.413293,-0.09937 2.041047,-1.318853 3.145409,-2.356479 6.44244,-4.979499 8.814808,-7.0128 l 0.78898,-0.676216 18.302903,0.0029 c 17.307279,0.0028 18.293127,0.0112 18.1232,0.15468 -4.864934,4.107884 -10.323237,7.63601 -16.902799,10.925595 l -2.056482,1.02818 -1.390663,-1.217432 c -1.827147,-1.599545 -4.539194,-3.853717 -7.003324,-5.820955 -2.924595,-2.33485 -3.43661,-2.730717 -3.53192,-2.730717 -0.04737,0 -1.201738,1.068269 -2.565263,2.37393 l -2.479135,2.373931 1.481828,1.110865 c 3.504897,2.627474 8.547595,6.824295 8.347978,6.947665 -0.138281,0.08546 -2.760425,1.064537 -4.557911,1.701866 -4.973534,1.76345 -11.979991,3.743453 -17.776198,5.023501 -1.020885,0.225454 -1.924759,0.429894 -2.008609,0.454309 -0.129222,0.03763 -0.01366,0.323088 0.758313,1.873202 0.500922,1.005845 1.262332,2.574585 1.692023,3.48609 0.429691,0.911505 0.827105,1.657281 0.883141,1.657281 0.217598,0 6.685583,-1.799569 9.370122,-2.607022 15.014146,-4.515941 26.778652,-9.661229 35.974058,-15.733502 4.716155,-3.114355 9.104742,-6.868349 11.988252,-10.254741 l 0.63834,-0.749666 h 3.03377 3.03378 v 16.130873 16.130874 h -6.67332 -6.673327 v -6.187185 -6.187184 h -4.02167 -4.02167 v 6.187184 6.187185 H 68.228972 44.982836 v 3.535534 3.535534 h 23.248367 23.248366 l -0.02748,11.468388 -0.02748,11.468388 -0.191926,0.660343 c -0.607565,2.090395 -1.787812,3.308735 -3.742576,3.863365 -0.499483,0.14172 -0.919531,0.16017 -3.527999,0.15494 -3.031753,-0.006 -5.365554,-0.12992 -9.722718,-0.51594 -1.239647,-0.10982 -2.262265,-0.19469 -2.272485,-0.1886 -0.01022,0.006 0.176469,0.98382 0.414866,2.17273 0.238395,1.18892 0.598646,3.09637 0.800556,4.23879 0.20191,1.14242 0.375051,2.08562 0.384758,2.09599 0.0097,0.0104 3.575632,0.0303 7.924278,0.0442 8.463014,0.0271 8.482679,0.0263 10.28495,-0.42402 3.70155,-0.92489 6.043108,-3.19877 7.137356,-6.93107 0.09264,-0.31599 0.254266,-1.01205 0.359174,-1.5468 0.189098,-0.96395 0.19099,-1.0817 0.220998,-13.766481 l 0.03028,-12.794213 h 6.670489 6.67049 v 10.480278 10.480277 l -0.41415,0.590363 c -4.45702,6.353326 -9.3485,11.225626 -15.444421,15.383876 l -1.053519,0.71864 -31.959531,-0.004 -31.959527,-0.004 z M 72.140496,94.665027 c 1.664829,-1.34643 3.043179,-2.460957 3.063001,-2.476728 0.156692,-0.124669 -8.25992,-9.377444 -12.109368,-13.312394 l -1.450089,-1.482297 -2.73992,2.211145 c -1.506956,1.216129 -2.7526,2.249183 -2.768097,2.295676 -0.0155,0.04649 0.661816,0.871979 1.505141,1.834414 3.336988,3.808301 6.0723,7.066308 9.228031,10.991428 1.334635,1.660028 2.036857,2.466429 2.120006,2.434522 0.06838,-0.02624 1.486466,-1.149335 3.151295,-2.495766 z"
       id="path4563"
       inkscape:connector-curvature="0" />
    <path
       style="fill:#fffbbe;fill-opacity:0;stroke-width:0.08838835"
       d="M 30.973172,112.54936 C 24.690951,108.25623 19.162748,102.66163 15.065628,96.450757 9.6394385,88.225139 6.531635,79.391867 5.5010473,69.265465 5.2765957,67.060037 5.2760061,60.962794 5.5000302,58.747251 6.2844454,50.989582 8.3427979,43.836457 11.636512,37.421935 l 0.5795,-1.128578 1.992884,0.02372 1.992885,0.02372 0.952306,1.856155 c 1.223763,2.385255 3.162867,6.470377 5.033516,10.604132 0.813352,1.797345 1.515264,3.280046 1.559805,3.294894 0.06073,0.02024 7.082935,-3.857103 7.259288,-4.008255 0.06087,-0.05217 -5.546924,-10.788599 -6.054797,-11.592246 l -0.125681,-0.198874 h 3.846931 3.84693 l -0.004,13.633902 -0.004,13.633903 -1.420476,1.59099 C 25.736906,71.1528 20.502735,76.632455 15.965874,80.99046 l -2.014321,1.934911 2.588846,3.641224 2.588846,3.641225 0.265165,-0.288293 c 0.145841,-0.158562 1.319196,-1.538256 2.607456,-3.065989 2.896598,-3.435039 5.246666,-6.149208 7.951234,-9.183136 1.144464,-1.283836 2.188607,-2.457191 2.320319,-2.607456 l 0.239476,-0.27321 0.0036,19.11398 0.0036,19.113984 h 3.933282 3.933281 V 74.657154 36.296611 h 3.822514 3.822514 l -0.44166,0.317248 c -0.475188,0.341332 -2.439164,1.711897 -3.679258,2.567577 l -0.762725,0.526291 1.410704,1.62829 c 0.775887,0.895559 1.81152,2.12674 2.301407,2.735956 0.489886,0.609217 0.942009,1.163846 1.004717,1.232507 0.09631,0.105453 0.413293,-0.09937 2.041047,-1.318853 3.145409,-2.356479 6.44244,-4.979499 8.814808,-7.0128 l 0.78898,-0.676216 18.302903,0.0029 c 17.307279,0.0028 18.293127,0.0112 18.1232,0.15468 -4.864934,4.107884 -10.323237,7.63601 -16.902799,10.925595 l -2.056482,1.02818 -1.390663,-1.217432 c -1.827147,-1.599545 -4.539194,-3.853717 -7.003324,-5.820955 -2.924595,-2.33485 -3.43661,-2.730717 -3.53192,-2.730717 -0.04737,0 -1.201738,1.068269 -2.565263,2.37393 l -2.479135,2.373931 1.481828,1.110865 c 3.504897,2.627474 8.547595,6.824295 8.347978,6.947665 -0.138281,0.08546 -2.760425,1.064537 -4.557911,1.701866 -4.973534,1.76345 -11.979991,3.743453 -17.776198,5.023501 -1.020885,0.225454 -1.924759,0.429894 -2.008609,0.454309 -0.129222,0.03763 -0.01366,0.323088 0.758313,1.873202 0.500922,1.005845 1.262332,2.574585 1.692023,3.48609 0.429691,0.911505 0.827105,1.657281 0.883141,1.657281 0.217598,0 6.685583,-1.799569 9.370122,-2.607022 15.014146,-4.515941 26.778652,-9.661229 35.974058,-15.733502 4.716155,-3.114355 9.104742,-6.868349 11.988252,-10.254741 l 0.63834,-0.749666 h 3.03377 3.03378 v 16.130873 16.130874 h -6.67332 -6.673327 v -6.187185 -6.187184 h -4.02167 -4.02167 v 6.187184 6.187185 H 68.228972 44.982836 v 3.535534 3.535534 h 23.248367 23.248366 l -0.02748,11.468388 -0.02748,11.468388 -0.191926,0.660343 c -0.607565,2.090395 -1.787812,3.308735 -3.742576,3.863365 -0.499483,0.14172 -0.919531,0.16017 -3.527999,0.15494 -3.031753,-0.006 -5.365554,-0.12992 -9.722718,-0.51594 -1.239647,-0.10982 -2.262265,-0.19469 -2.272485,-0.1886 -0.01022,0.006 0.176469,0.98382 0.414866,2.17273 0.238395,1.18892 0.598646,3.09637 0.800556,4.23879 0.20191,1.14242 0.375051,2.08562 0.384758,2.09599 0.0097,0.0104 3.575632,0.0303 7.924278,0.0442 8.463014,0.0271 8.482679,0.0263 10.28495,-0.42402 3.70155,-0.92489 6.043108,-3.19877 7.137356,-6.93107 0.09264,-0.31599 0.254266,-1.01205 0.359174,-1.5468 0.189098,-0.96395 0.19099,-1.0817 0.220998,-13.766481 l 0.03028,-12.794213 h 6.670489 6.67049 v 10.480278 10.480277 l -0.41415,0.590363 c -4.45702,6.353326 -9.3485,11.225626 -15.444421,15.383876 l -1.053519,0.71864 -31.959531,-0.004 -31.959527,-0.004 z M 72.140496,94.665027 c 1.664829,-1.34643 3.043179,-2.460957 3.063001,-2.476728 0.156692,-0.124669 -8.25992,-9.377444 -12.109368,-13.312394 l -1.450089,-1.482297 -2.73992,2.211145 c -1.506956,1.216129 -2.7526,2.249183 -2.768097,2.295676 -0.0155,0.04649 0.661816,0.871979 1.505141,1.834414 3.336988,3.808301 6.0723,7.066308 9.228031,10.991428 1.334635,1.660028 2.036857,2.466429 2.120006,2.434522 0.06838,-0.02624 1.486466,-1.149335 3.151295,-2.495766 z"
       id="path4565"
       inkscape:connector-curvature="0" />
    <path
       style="fill:#fff230;fill-opacity:0;stroke-width:0.08838835"
       d="M 30.973172,112.54936 C 24.690951,108.25623 19.162748,102.66163 15.065628,96.450757 9.6394385,88.225139 6.531635,79.391867 5.5010473,69.265465 5.2765957,67.060037 5.2760061,60.962794 5.5000302,58.747251 6.2844454,50.989582 8.3427979,43.836457 11.636512,37.421935 l 0.5795,-1.128578 1.992884,0.02372 1.992885,0.02372 0.952306,1.856155 c 1.223763,2.385255 3.162867,6.470377 5.033516,10.604132 0.813352,1.797345 1.515264,3.280046 1.559805,3.294894 0.06073,0.02024 7.082935,-3.857103 7.259288,-4.008255 0.06087,-0.05217 -5.546924,-10.788599 -6.054797,-11.592246 l -0.125681,-0.198874 h 3.846931 3.84693 l -0.004,13.633902 -0.004,13.633903 -1.420476,1.59099 C 25.736906,71.1528 20.502735,76.632455 15.965874,80.99046 l -2.014321,1.934911 2.588846,3.641224 2.588846,3.641225 0.265165,-0.288293 c 0.145841,-0.158562 1.319196,-1.538256 2.607456,-3.065989 2.896598,-3.435039 5.246666,-6.149208 7.951234,-9.183136 1.144464,-1.283836 2.188607,-2.457191 2.320319,-2.607456 l 0.239476,-0.27321 0.0036,19.11398 0.0036,19.113984 h 3.933282 3.933281 V 74.657154 36.296611 h 3.822514 3.822514 l -0.44166,0.317248 c -0.475188,0.341332 -2.439164,1.711897 -3.679258,2.567577 l -0.762725,0.526291 1.410704,1.62829 c 0.775887,0.895559 1.81152,2.12674 2.301407,2.735956 0.489886,0.609217 0.942009,1.163846 1.004717,1.232507 0.09631,0.105453 0.413293,-0.09937 2.041047,-1.318853 3.145409,-2.356479 6.44244,-4.979499 8.814808,-7.0128 l 0.78898,-0.676216 18.302903,0.0029 c 17.307279,0.0028 18.293127,0.0112 18.1232,0.15468 -4.864934,4.107884 -10.323237,7.63601 -16.902799,10.925595 l -2.056482,1.02818 -1.390663,-1.217432 c -1.827147,-1.599545 -4.539194,-3.853717 -7.003324,-5.820955 -2.924595,-2.33485 -3.43661,-2.730717 -3.53192,-2.730717 -0.04737,0 -1.201738,1.068269 -2.565263,2.37393 l -2.479135,2.373931 1.481828,1.110865 c 3.504897,2.627474 8.547595,6.824295 8.347978,6.947665 -0.138281,0.08546 -2.760425,1.064537 -4.557911,1.701866 -4.973534,1.76345 -11.979991,3.743453 -17.776198,5.023501 -1.020885,0.225454 -1.924759,0.429894 -2.008609,0.454309 -0.129222,0.03763 -0.01366,0.323088 0.758313,1.873202 0.500922,1.005845 1.262332,2.574585 1.692023,3.48609 0.429691,0.911505 0.827105,1.657281 0.883141,1.657281 0.217598,0 6.685583,-1.799569 9.370122,-2.607022 15.014146,-4.515941 26.778652,-9.661229 35.974058,-15.733502 4.716155,-3.114355 9.104742,-6.868349 11.988252,-10.254741 l 0.63834,-0.749666 h 3.03377 3.03378 v 16.130873 16.130874 h -6.67332 -6.673327 v -6.187185 -6.187184 h -4.02167 -4.02167 v 6.187184 6.187185 H 68.228972 44.982836 v 3.535534 3.535534 h 23.248367 23.248366 l -0.02748,11.468388 -0.02748,11.468388 -0.191926,0.660343 c -0.607565,2.090395 -1.787812,3.308735 -3.742576,3.863365 -0.499483,0.14172 -0.919531,0.16017 -3.527999,0.15494 -3.031753,-0.006 -5.365554,-0.12992 -9.722718,-0.51594 -1.239647,-0.10982 -2.262265,-0.19469 -2.272485,-0.1886 -0.01022,0.006 0.176469,0.98382 0.414866,2.17273 0.238395,1.18892 0.598646,3.09637 0.800556,4.23879 0.20191,1.14242 0.375051,2.08562 0.384758,2.09599 0.0097,0.0104 3.575632,0.0303 7.924278,0.0442 8.463014,0.0271 8.482679,0.0263 10.28495,-0.42402 3.70155,-0.92489 6.043108,-3.19877 7.137356,-6.93107 0.09264,-0.31599 0.254266,-1.01205 0.359174,-1.5468 0.189098,-0.96395 0.19099,-1.0817 0.220998,-13.766481 l 0.03028,-12.794213 h 6.670489 6.67049 v 10.480278 10.480277 l -0.41415,0.590363 c -4.45702,6.353326 -9.3485,11.225626 -15.444421,15.383876 l -1.053519,0.71864 -31.959531,-0.004 -31.959527,-0.004 z M 72.140496,94.665027 c 1.664829,-1.34643 3.043179,-2.460957 3.063001,-2.476728 0.156692,-0.124669 -8.25992,-9.377444 -12.109368,-13.312394 l -1.450089,-1.482297 -2.73992,2.211145 c -1.506956,1.216129 -2.7526,2.249183 -2.768097,2.295676 -0.0155,0.04649 0.661816,0.871979 1.505141,1.834414 3.336988,3.808301 6.0723,7.066308 9.228031,10.991428 1.334635,1.660028 2.036857,2.466429 2.120006,2.434522 0.06838,-0.02624 1.486466,-1.149335 3.151295,-2.495766 z"
       id="path4567"
       inkscape:connector-curvature="0" />
    <path
       style="fill:#fff230;fill-opacity:0;stroke-width:0.17677669"
       d="m 60.914406,122.63488 c -2.529784,-0.19259 -4.985105,-0.47541 -6.805903,-0.78396 C 35.724208,118.73553 19.911337,106.99688 11.515526,90.232116 7.0984177,81.412029 5.0773319,72.209347 5.3770901,62.281759 5.5692963,55.916145 6.5185679,50.634437 8.5066071,44.869254 11.370777,36.563352 15.709008,29.545393 21.934417,23.147079 30.157596,14.695511 40.41788,9.0014538 51.737111,6.6077486 56.419238,5.6176076 58.121255,5.457883 64.007998,5.4561955 c 4.185165,-0.0012 5.876289,0.067356 7.557259,0.3063596 11.136,1.5833408 20.552963,5.6255819 29.344823,12.5962949 1.70998,1.355776 5.50848,4.98986 7.15363,6.843997 l 1.05876,1.193242 H 89.551283 69.9801 l 0.858841,-0.957885 c 2.580143,-2.877689 6.52172,-7.386494 6.636433,-7.591475 0.09755,-0.174317 -0.793959,-0.710702 -3.384832,-2.036508 l -3.517268,-1.799863 -1.094739,1.438109 c -4.116339,5.407448 -10.363099,11.858137 -16.165527,16.693263 -1.975842,1.646457 -5.815267,4.543299 -8.185385,6.175863 -1.777893,1.224635 -1.971684,1.408308 -1.757701,1.665926 0.132277,0.159248 0.758911,0.886162 1.392525,1.615366 0.633613,0.729204 1.610359,1.899879 2.170547,2.601499 l 1.018524,1.275676 2.150414,-1.615626 c 3.300923,-2.480013 7.724813,-6.059833 10.416473,-8.429033 l 2.432424,-2.14102 h 18.209642 18.209642 l -1.821726,1.678689 c -4.785294,4.409571 -11.426794,8.858886 -18.359181,12.299298 l -2.231297,1.107349 -1.392625,-1.223742 c -1.666297,-1.464224 -6.579373,-5.513168 -8.865115,-7.305882 l -1.638856,-1.285359 -2.073454,1.942949 c -1.140399,1.068622 -2.272327,2.158242 -2.515395,2.421376 l -0.441941,0.478428 0.611421,0.467718 c 3.976227,3.04169 8.841833,7.014396 9.097399,7.427911 0.157764,0.255267 -6.746961,2.685924 -11.918529,4.195655 -2.84232,0.829754 -9.535699,2.528531 -11.422667,2.899065 l -1.08123,0.212316 1.69778,3.517181 c 0.933777,1.934452 1.786881,3.517183 1.895787,3.517183 0.108905,0 1.939521,-0.485015 4.068034,-1.077811 21.726517,-6.050888 37.028762,-13.143454 47.714632,-22.115654 2.13232,-1.790364 5.53243,-5.331401 7.11127,-7.406035 l 1.28164,-1.684083 0.007,-3.436227 0.007,-3.436228 0.61152,0.707107 c 0.33634,0.388908 1.24176,1.582151 2.01205,2.65165 10.8075,15.005577 13.8447,34.509399 8.12548,52.178862 -5.32863,16.462767 -17.60149,29.728203 -33.580728,36.296593 -4.936927,2.02936 -9.997865,3.32679 -15.542138,3.9844 -2.194695,0.26031 -8.118475,0.46064 -9.811106,0.33179 z M 40.319921,64.226302 V 15.435934 h -3.889087 -3.889088 v 24.023488 24.02349 l -2.342291,2.623695 c -4.195703,4.699775 -7.018153,7.676044 -11.667153,12.302995 l -4.570648,4.548968 2.577518,3.626954 c 1.417635,1.994824 2.604348,3.626952 2.63714,3.626952 0.03279,0 0.567032,-0.616508 1.1872,-1.370019 1.92535,-2.339321 8.316919,-9.750706 10.29488,-11.937495 l 1.883354,-2.082193 v 19.09695 19.096951 h 3.889088 3.889087 z M 91.319998,110.8167 c 1.779803,-0.38624 3.985103,-1.52765 5.09399,-2.63654 1.101213,-1.10121 2.109128,-2.94617 2.640363,-4.83309 0.381332,-1.35447 0.38922,-1.61188 0.444417,-14.502637 l 0.05619,-13.123693 7.196232,-0.04617 7.19622,-0.04617 0.0479,-3.579728 0.0478,-3.579728 h -7.2515 -7.251509 V 62.27844 56.087936 l -4.02167,0.04751 -4.02167,0.04751 -0.04649,6.14299 -0.04649,6.14299 H 68.1563 44.908795 l 0.04785,3.579728 0.04785,3.579728 23.206794,0.04485 23.206792,0.04485 -0.04904,11.715216 -0.04905,11.715215 -0.618719,1.233027 c -0.671642,1.33848 -1.614079,2.20777 -2.788698,2.57221 -1.485122,0.46079 -6.255558,0.3824 -13.342297,-0.21923 -1.336941,-0.1135 -2.474384,-0.16278 -2.527652,-0.10952 -0.07469,0.0747 0.898969,5.5442 1.432363,8.04629 0.08385,0.39335 0.09869,0.39486 4.456763,0.45788 7.137744,0.1032 11.99523,-0.0102 13.38824,-0.31248 z M 72.204616,94.640225 c 1.617172,-1.307985 2.940314,-2.440522 2.940314,-2.51675 0,-0.403313 -13.09691,-14.638921 -13.467962,-14.638921 -0.08721,0 -1.368381,0.967823 -2.847047,2.150717 -1.478667,1.182892 -2.718787,2.174419 -2.755824,2.203389 -0.03703,0.02897 0.510132,0.7118 1.215927,1.5174 2.540325,2.899548 7.027713,8.238381 9.279509,11.040219 1.373576,1.709096 2.37642,2.810044 2.495569,2.739701 0.109559,-0.06468 1.522341,-1.18777 3.139514,-2.495755 z M 28.122329,49.738103 c 1.409794,-0.794351 2.634917,-1.514831 2.722497,-1.601063 0.225399,-0.221936 -3.962076,-8.318506 -7.888471,-15.252523 l -1.58117,-2.792349 -0.736486,0.427719 c -0.405067,0.235243 -1.830483,1.042296 -3.16759,1.793449 -1.337107,0.751152 -2.46992,1.428539 -2.517362,1.505301 -0.04744,0.07676 0.325491,0.884241 0.82874,1.794393 1.466364,2.652004 5.083664,10.213275 7.458606,15.590787 l 0.455449,1.031261 0.931264,-0.526348 c 0.512192,-0.289493 2.084729,-1.176274 3.494523,-1.970627 z"
       id="path4569"
       inkscape:connector-curvature="0" />
    <path
       style="fill:#fff230;fill-opacity:0;stroke-width:0.17677669"
       d="M 61.002794,122.62865 C 43.982971,121.61883 28.785781,113.80441 18.170271,100.6041 11.425494,92.21702 7.2633322,82.371465 5.7436215,71.208982 5.352873,68.338881 5.2896576,60.492529 5.6346679,57.685564 7.289216,44.224351 12.67115,32.75602 21.756717,23.331186 36.360584,8.181992 57.657267,2.0232748 78.08144,7.0428266 c 8.354983,2.0533645 15.665143,5.6903324 22.87289,11.3797714 1.72769,1.363756 7.39668,6.907118 7.7623,7.590285 l 0.20509,0.383206 H 89.433256 69.944792 l 0.714477,-0.751301 c 1.977817,-2.07976 6.960535,-7.784007 6.960535,-7.968467 0,-0.07525 -6.845734,-3.6546 -6.989659,-3.6546 -0.02288,0 -0.913838,1.093806 -1.979908,2.430679 -6.691645,8.391463 -14.605566,15.721874 -23.69254,21.945637 -0.900789,0.61696 -1.678188,1.187096 -1.727553,1.266971 -0.04936,0.07987 0.493374,0.806208 1.206086,1.614076 0.712712,0.807868 1.79445,2.086483 2.403861,2.841367 l 1.108022,1.372517 0.472738,-0.337339 C 51.527033,42.939102 57.79837,37.90202 60.972361,35.07437 l 2.002499,-1.783989 18.150044,0.0072 18.150045,0.0072 -1.376606,1.312219 c -4.332869,4.130207 -10.76044,8.529014 -17.742633,12.142443 -2.732668,1.414212 -3.114367,1.565888 -3.407,1.353832 -0.181254,-0.131347 -1.314149,-1.090764 -2.517544,-2.132037 -2.567581,-2.221675 -8.97825,-7.387546 -9.167694,-7.387546 -0.07196,0 -1.252803,1.080951 -2.624086,2.402115 l -2.493243,2.402114 2.340287,1.777085 c 2.484372,1.886493 3.307057,2.552883 5.930966,4.804172 l 1.646136,1.412368 -1.292583,0.504967 c -4.869048,1.902171 -13.493036,4.4819 -19.954528,5.969079 -1.7921,0.41247 -3.28167,0.769515 -3.310158,0.793431 -0.09424,0.07912 3.344005,6.891936 3.507904,6.950842 0.220294,0.07918 5.485167,-1.352223 9.978919,-2.71304 20.37319,-6.169487 35.475073,-13.932271 44.620204,-22.936014 2.03092,-1.999523 4.10072,-4.360846 5.1162,-5.83679 l 0.54881,-0.797664 0.0481,-3.410032 0.0481,-3.410031 1.34084,1.756864 c 6.08469,7.972604 9.92014,16.908245 11.45292,26.682379 3.04223,19.399639 -3.78851,38.886022 -18.33229,52.297363 -10.44058,9.62764 -23.978444,15.05222 -38.390475,15.38295 -1.701476,0.039 -3.610664,0.0403 -4.242641,0.003 z M 40.319921,64.226302 V 15.435934 h -3.889087 -3.889088 v 24.007653 24.007652 l -3.420515,3.790483 c -4.113942,4.558912 -9.390842,10.059218 -12.718735,13.257202 -1.341481,1.289116 -2.402335,2.439538 -2.357455,2.556495 0.107761,0.280821 4.496471,6.446242 4.882095,6.858545 0.285489,0.305242 0.419457,0.177191 2.866617,-2.740039 2.739058,-3.265194 8.31911,-9.672184 9.824429,-11.280361 l 0.910087,-0.972272 0.0067,19.047689 0.0067,19.047689 h 3.889088 3.889087 z m 51.35363,46.510098 c 4.485109,-1.18436 6.993654,-4.10487 7.683256,-8.94505 0.10351,-0.72652 0.177749,-6.364882 0.179805,-13.656 l 0.0035,-12.418563 h 7.247848 7.24784 v -3.623922 -3.623922 h -7.24784 -7.247848 V 62.281759 56.094574 H 95.47425 91.408386 v 6.187185 6.187184 H 68.162251 44.916115 v 3.623922 3.623922 H 68.16825 91.420384 l -0.05019,11.711456 -0.05019,11.711457 -0.403051,0.87415 c -0.638778,1.3854 -1.196108,1.98102 -2.415309,2.58123 -0.910275,0.44813 -1.432155,0.57825 -2.615074,0.65205 -1.543453,0.0963 -7.325334,-0.17767 -11.492935,-0.54457 -1.418493,-0.12488 -2.43068,-0.14709 -2.43068,-0.0534 0,0.0884 0.276483,1.60201 0.614406,3.3637 0.337921,1.76168 0.677756,3.60081 0.755188,4.08694 l 0.140785,0.88389 3.620033,0.10513 c 1.99102,0.0578 5.767872,0.0862 8.393006,0.0631 4.208312,-0.0371 4.940277,-0.0863 6.187184,-0.41553 z M 72.062337,94.789778 c 1.695426,-1.371571 3.082593,-2.571454 3.082593,-2.666406 0,-0.323916 -7.345266,-8.462095 -11.727495,-12.993465 l -1.742491,-1.801795 -2.766754,2.216495 c -1.521715,1.219074 -2.786492,2.268528 -2.810615,2.332123 -0.02412,0.0636 0.960531,1.269098 2.188117,2.678892 2.675132,3.072194 6.622831,7.794726 8.903304,10.650796 0.912182,1.142419 1.688265,2.077126 1.724632,2.077126 0.03636,0 1.453284,-1.122194 3.148709,-2.493766 z M 28.342686,49.644942 31.126304,48.092913 29.685647,45.332036 C 24.817925,36.003523 21.502376,30.03653 21.245576,30.142438 c -0.536133,0.221114 -6.373629,3.614925 -6.377095,3.707524 -0.0024,0.0647 0.563191,1.178395 1.256918,2.474874 1.35787,2.537668 4.037032,8.104783 6.026134,12.521894 0.678637,1.507021 1.310593,2.883869 1.404346,3.059661 0.159626,0.299313 0.228693,0.286927 1.086824,-0.194898 0.504,-0.282987 2.168993,-1.212935 3.699983,-2.066551 z"
       id="path4571"
       inkscape:connector-curvature="0" />
    <path
       style="fill:#fff230;fill-opacity:0;stroke-width:0.17677669"
       d="M 61.002794,122.62865 C 43.982971,121.61883 28.785781,113.80441 18.170271,100.6041 11.425494,92.21702 7.2633322,82.371465 5.7436215,71.208982 5.352873,68.338881 5.2896576,60.492529 5.6346679,57.685564 7.289216,44.224351 12.67115,32.75602 21.756717,23.331186 36.360584,8.181992 57.657267,2.0232748 78.08144,7.0428266 c 8.354983,2.0533645 15.665143,5.6903324 22.87289,11.3797714 1.72769,1.363756 7.39668,6.907118 7.7623,7.590285 l 0.20509,0.383206 H 89.433256 69.944792 l 0.714477,-0.751301 c 1.977817,-2.07976 6.960535,-7.784007 6.960535,-7.968467 0,-0.07525 -6.845734,-3.6546 -6.989659,-3.6546 -0.02288,0 -0.913838,1.093806 -1.979908,2.430679 -6.691645,8.391463 -14.605566,15.721874 -23.69254,21.945637 -0.900789,0.61696 -1.678188,1.187096 -1.727553,1.266971 -0.04936,0.07987 0.493374,0.806208 1.206086,1.614076 0.712712,0.807868 1.79445,2.086483 2.403861,2.841367 l 1.108022,1.372517 0.472738,-0.337339 C 51.527033,42.939102 57.79837,37.90202 60.972361,35.07437 l 2.002499,-1.783989 18.150044,0.0072 18.150045,0.0072 -1.376606,1.312219 c -4.332869,4.130207 -10.76044,8.529014 -17.742633,12.142443 -2.732668,1.414212 -3.114367,1.565888 -3.407,1.353832 -0.181254,-0.131347 -1.314149,-1.090764 -2.517544,-2.132037 -2.567581,-2.221675 -8.97825,-7.387546 -9.167694,-7.387546 -0.07196,0 -1.252803,1.080951 -2.624086,2.402115 l -2.493243,2.402114 2.340287,1.777085 c 2.484372,1.886493 3.307057,2.552883 5.930966,4.804172 l 1.646136,1.412368 -1.292583,0.504967 c -4.869048,1.902171 -13.493036,4.4819 -19.954528,5.969079 -1.7921,0.41247 -3.28167,0.769515 -3.310158,0.793431 -0.09424,0.07912 3.344005,6.891936 3.507904,6.950842 0.220294,0.07918 5.485167,-1.352223 9.978919,-2.71304 20.37319,-6.169487 35.475073,-13.932271 44.620204,-22.936014 2.03092,-1.999523 4.10072,-4.360846 5.1162,-5.83679 l 0.54881,-0.797664 0.0481,-3.410032 0.0481,-3.410031 1.34084,1.756864 c 6.08469,7.972604 9.92014,16.908245 11.45292,26.682379 3.04223,19.399639 -3.78851,38.886022 -18.33229,52.297363 -10.44058,9.62764 -23.978444,15.05222 -38.390475,15.38295 -1.701476,0.039 -3.610664,0.0403 -4.242641,0.003 z M 40.319921,64.226302 V 15.435934 h -3.889087 -3.889088 v 24.007653 24.007652 l -3.420515,3.790483 c -4.113942,4.558912 -9.390842,10.059218 -12.718735,13.257202 -1.341481,1.289116 -2.402335,2.439538 -2.357455,2.556495 0.107761,0.280821 4.496471,6.446242 4.882095,6.858545 0.285489,0.305242 0.419457,0.177191 2.866617,-2.740039 2.739058,-3.265194 8.31911,-9.672184 9.824429,-11.280361 l 0.910087,-0.972272 0.0067,19.047689 0.0067,19.047689 h 3.889088 3.889087 z m 51.35363,46.510098 c 4.485109,-1.18436 6.993654,-4.10487 7.683256,-8.94505 0.10351,-0.72652 0.177749,-6.364882 0.179805,-13.656 l 0.0035,-12.418563 h 7.247848 7.24784 v -3.623922 -3.623922 h -7.24784 -7.247848 V 62.281759 56.094574 H 95.47425 91.408386 v 6.187185 6.187184 H 68.162251 44.916115 v 3.623922 3.623922 H 68.16825 91.420384 l -0.05019,11.711456 -0.05019,11.711457 -0.403051,0.87415 c -0.638778,1.3854 -1.196108,1.98102 -2.415309,2.58123 -0.910275,0.44813 -1.432155,0.57825 -2.615074,0.65205 -1.543453,0.0963 -7.325334,-0.17767 -11.492935,-0.54457 -1.418493,-0.12488 -2.43068,-0.14709 -2.43068,-0.0534 0,0.0884 0.276483,1.60201 0.614406,3.3637 0.337921,1.76168 0.677756,3.60081 0.755188,4.08694 l 0.140785,0.88389 3.620033,0.10513 c 1.99102,0.0578 5.767872,0.0862 8.393006,0.0631 4.208312,-0.0371 4.940277,-0.0863 6.187184,-0.41553 z M 72.062337,94.789778 c 1.695426,-1.371571 3.082593,-2.571454 3.082593,-2.666406 0,-0.323916 -7.345266,-8.462095 -11.727495,-12.993465 l -1.742491,-1.801795 -2.766754,2.216495 c -1.521715,1.219074 -2.786492,2.268528 -2.810615,2.332123 -0.02412,0.0636 0.960531,1.269098 2.188117,2.678892 2.675132,3.072194 6.622831,7.794726 8.903304,10.650796 0.912182,1.142419 1.688265,2.077126 1.724632,2.077126 0.03636,0 1.453284,-1.122194 3.148709,-2.493766 z M 28.342686,49.644942 31.126304,48.092913 29.685647,45.332036 C 24.817925,36.003523 21.502376,30.03653 21.245576,30.142438 c -0.536133,0.221114 -6.373629,3.614925 -6.377095,3.707524 -0.0024,0.0647 0.563191,1.178395 1.256918,2.474874 1.35787,2.537668 4.037032,8.104783 6.026134,12.521894 0.678637,1.507021 1.310593,2.883869 1.404346,3.059661 0.159626,0.299313 0.228693,0.286927 1.086824,-0.194898 0.504,-0.282987 2.168993,-1.212935 3.699983,-2.066551 z"
       id="path4573"
       inkscape:connector-curvature="0" />
    <path
       style="fill:#fff230;fill-opacity:0;stroke-width:0.17677669"
       d="M 61.002794,122.62865 C 43.982971,121.61883 28.785781,113.80441 18.170271,100.6041 11.425494,92.21702 7.2633322,82.371465 5.7436215,71.208982 5.352873,68.338881 5.2896576,60.492529 5.6346679,57.685564 7.289216,44.224351 12.67115,32.75602 21.756717,23.331186 36.360584,8.181992 57.657267,2.0232748 78.08144,7.0428266 c 8.354983,2.0533645 15.665143,5.6903324 22.87289,11.3797714 1.72769,1.363756 7.39668,6.907118 7.7623,7.590285 l 0.20509,0.383206 H 89.433256 69.944792 l 0.714477,-0.751301 c 1.977817,-2.07976 6.960535,-7.784007 6.960535,-7.968467 0,-0.07525 -6.845734,-3.6546 -6.989659,-3.6546 -0.02288,0 -0.913838,1.093806 -1.979908,2.430679 -6.691645,8.391463 -14.605566,15.721874 -23.69254,21.945637 -0.900789,0.61696 -1.678188,1.187096 -1.727553,1.266971 -0.04936,0.07987 0.493374,0.806208 1.206086,1.614076 0.712712,0.807868 1.79445,2.086483 2.403861,2.841367 l 1.108022,1.372517 0.472738,-0.337339 C 51.527033,42.939102 57.79837,37.90202 60.972361,35.07437 l 2.002499,-1.783989 18.150044,0.0072 18.150045,0.0072 -1.376606,1.312219 c -4.332869,4.130207 -10.76044,8.529014 -17.742633,12.142443 -2.732668,1.414212 -3.114367,1.565888 -3.407,1.353832 -0.181254,-0.131347 -1.314149,-1.090764 -2.517544,-2.132037 -2.567581,-2.221675 -8.97825,-7.387546 -9.167694,-7.387546 -0.07196,0 -1.252803,1.080951 -2.624086,2.402115 l -2.493243,2.402114 2.340287,1.777085 c 2.484372,1.886493 3.307057,2.552883 5.930966,4.804172 l 1.646136,1.412368 -1.292583,0.504967 c -4.869048,1.902171 -13.493036,4.4819 -19.954528,5.969079 -1.7921,0.41247 -3.28167,0.769515 -3.310158,0.793431 -0.09424,0.07912 3.344005,6.891936 3.507904,6.950842 0.220294,0.07918 5.485167,-1.352223 9.978919,-2.71304 20.37319,-6.169487 35.475073,-13.932271 44.620204,-22.936014 2.03092,-1.999523 4.10072,-4.360846 5.1162,-5.83679 l 0.54881,-0.797664 0.0481,-3.410032 0.0481,-3.410031 1.34084,1.756864 c 6.08469,7.972604 9.92014,16.908245 11.45292,26.682379 3.04223,19.399639 -3.78851,38.886022 -18.33229,52.297363 -10.44058,9.62764 -23.978444,15.05222 -38.390475,15.38295 -1.701476,0.039 -3.610664,0.0403 -4.242641,0.003 z M 40.319921,64.226302 V 15.435934 h -3.889087 -3.889088 v 24.007653 24.007652 l -3.420515,3.790483 c -4.113942,4.558912 -9.390842,10.059218 -12.718735,13.257202 -1.341481,1.289116 -2.402335,2.439538 -2.357455,2.556495 0.107761,0.280821 4.496471,6.446242 4.882095,6.858545 0.285489,0.305242 0.419457,0.177191 2.866617,-2.740039 2.739058,-3.265194 8.31911,-9.672184 9.824429,-11.280361 l 0.910087,-0.972272 0.0067,19.047689 0.0067,19.047689 h 3.889088 3.889087 z m 51.35363,46.510098 c 4.485109,-1.18436 6.993654,-4.10487 7.683256,-8.94505 0.10351,-0.72652 0.177749,-6.364882 0.179805,-13.656 l 0.0035,-12.418563 h 7.247848 7.24784 v -3.623922 -3.623922 h -7.24784 -7.247848 V 62.281759 56.094574 H 95.47425 91.408386 v 6.187185 6.187184 H 68.162251 44.916115 v 3.623922 3.623922 H 68.16825 91.420384 l -0.05019,11.711456 -0.05019,11.711457 -0.403051,0.87415 c -0.638778,1.3854 -1.196108,1.98102 -2.415309,2.58123 -0.910275,0.44813 -1.432155,0.57825 -2.615074,0.65205 -1.543453,0.0963 -7.325334,-0.17767 -11.492935,-0.54457 -1.418493,-0.12488 -2.43068,-0.14709 -2.43068,-0.0534 0,0.0884 0.276483,1.60201 0.614406,3.3637 0.337921,1.76168 0.677756,3.60081 0.755188,4.08694 l 0.140785,0.88389 3.620033,0.10513 c 1.99102,0.0578 5.767872,0.0862 8.393006,0.0631 4.208312,-0.0371 4.940277,-0.0863 6.187184,-0.41553 z M 72.062337,94.789778 c 1.695426,-1.371571 3.082593,-2.571454 3.082593,-2.666406 0,-0.323916 -7.345266,-8.462095 -11.727495,-12.993465 l -1.742491,-1.801795 -2.766754,2.216495 c -1.521715,1.219074 -2.786492,2.268528 -2.810615,2.332123 -0.02412,0.0636 0.960531,1.269098 2.188117,2.678892 2.675132,3.072194 6.622831,7.794726 8.903304,10.650796 0.912182,1.142419 1.688265,2.077126 1.724632,2.077126 0.03636,0 1.453284,-1.122194 3.148709,-2.493766 z M 28.342686,49.644942 31.126304,48.092913 29.685647,45.332036 C 24.817925,36.003523 21.502376,30.03653 21.245576,30.142438 c -0.536133,0.221114 -6.373629,3.614925 -6.377095,3.707524 -0.0024,0.0647 0.563191,1.178395 1.256918,2.474874 1.35787,2.537668 4.037032,8.104783 6.026134,12.521894 0.678637,1.507021 1.310593,2.883869 1.404346,3.059661 0.159626,0.299313 0.228693,0.286927 1.086824,-0.194898 0.504,-0.282987 2.168993,-1.212935 3.699983,-2.066551 z"
       id="path4575"
       inkscape:connector-curvature="0" />
    <path
       style="fill:#fff230;fill-opacity:0;stroke-width:0.17677669"
       d="M 61.002794,122.62865 C 43.982971,121.61883 28.785781,113.80441 18.170271,100.6041 11.425494,92.21702 7.2633322,82.371465 5.7436215,71.208982 5.352873,68.338881 5.2896576,60.492529 5.6346679,57.685564 7.289216,44.224351 12.67115,32.75602 21.756717,23.331186 36.360584,8.181992 57.657267,2.0232748 78.08144,7.0428266 c 8.354983,2.0533645 15.665143,5.6903324 22.87289,11.3797714 1.72769,1.363756 7.39668,6.907118 7.7623,7.590285 l 0.20509,0.383206 H 89.433256 69.944792 l 0.714477,-0.751301 c 1.977817,-2.07976 6.960535,-7.784007 6.960535,-7.968467 0,-0.07525 -6.845734,-3.6546 -6.989659,-3.6546 -0.02288,0 -0.913838,1.093806 -1.979908,2.430679 -6.691645,8.391463 -14.605566,15.721874 -23.69254,21.945637 -0.900789,0.61696 -1.678188,1.187096 -1.727553,1.266971 -0.04936,0.07987 0.493374,0.806208 1.206086,1.614076 0.712712,0.807868 1.79445,2.086483 2.403861,2.841367 l 1.108022,1.372517 0.472738,-0.337339 C 51.527033,42.939102 57.79837,37.90202 60.972361,35.07437 l 2.002499,-1.783989 18.150044,0.0072 18.150045,0.0072 -1.376606,1.312219 c -4.332869,4.130207 -10.76044,8.529014 -17.742633,12.142443 -2.732668,1.414212 -3.114367,1.565888 -3.407,1.353832 -0.181254,-0.131347 -1.314149,-1.090764 -2.517544,-2.132037 -2.567581,-2.221675 -8.97825,-7.387546 -9.167694,-7.387546 -0.07196,0 -1.252803,1.080951 -2.624086,2.402115 l -2.493243,2.402114 2.340287,1.777085 c 2.484372,1.886493 3.307057,2.552883 5.930966,4.804172 l 1.646136,1.412368 -1.292583,0.504967 c -4.869048,1.902171 -13.493036,4.4819 -19.954528,5.969079 -1.7921,0.41247 -3.28167,0.769515 -3.310158,0.793431 -0.09424,0.07912 3.344005,6.891936 3.507904,6.950842 0.220294,0.07918 5.485167,-1.352223 9.978919,-2.71304 20.37319,-6.169487 35.475073,-13.932271 44.620204,-22.936014 2.03092,-1.999523 4.10072,-4.360846 5.1162,-5.83679 l 0.54881,-0.797664 0.0481,-3.410032 0.0481,-3.410031 1.34084,1.756864 c 6.08469,7.972604 9.92014,16.908245 11.45292,26.682379 3.04223,19.399639 -3.78851,38.886022 -18.33229,52.297363 -10.44058,9.62764 -23.978444,15.05222 -38.390475,15.38295 -1.701476,0.039 -3.610664,0.0403 -4.242641,0.003 z M 40.319921,64.226302 V 15.435934 h -3.889087 -3.889088 v 24.007653 24.007652 l -3.420515,3.790483 c -4.113942,4.558912 -9.390842,10.059218 -12.718735,13.257202 -1.341481,1.289116 -2.402335,2.439538 -2.357455,2.556495 0.107761,0.280821 4.496471,6.446242 4.882095,6.858545 0.285489,0.305242 0.419457,0.177191 2.866617,-2.740039 2.739058,-3.265194 8.31911,-9.672184 9.824429,-11.280361 l 0.910087,-0.972272 0.0067,19.047689 0.0067,19.047689 h 3.889088 3.889087 z m 51.35363,46.510098 c 4.485109,-1.18436 6.993654,-4.10487 7.683256,-8.94505 0.10351,-0.72652 0.177749,-6.364882 0.179805,-13.656 l 0.0035,-12.418563 h 7.247848 7.24784 v -3.623922 -3.623922 h -7.24784 -7.247848 V 62.281759 56.094574 H 95.47425 91.408386 v 6.187185 6.187184 H 68.162251 44.916115 v 3.623922 3.623922 H 68.16825 91.420384 l -0.05019,11.711456 -0.05019,11.711457 -0.403051,0.87415 c -0.638778,1.3854 -1.196108,1.98102 -2.415309,2.58123 -0.910275,0.44813 -1.432155,0.57825 -2.615074,0.65205 -1.543453,0.0963 -7.325334,-0.17767 -11.492935,-0.54457 -1.418493,-0.12488 -2.43068,-0.14709 -2.43068,-0.0534 0,0.0884 0.276483,1.60201 0.614406,3.3637 0.337921,1.76168 0.677756,3.60081 0.755188,4.08694 l 0.140785,0.88389 3.620033,0.10513 c 1.99102,0.0578 5.767872,0.0862 8.393006,0.0631 4.208312,-0.0371 4.940277,-0.0863 6.187184,-0.41553 z M 72.062337,94.789778 c 1.695426,-1.371571 3.082593,-2.571454 3.082593,-2.666406 0,-0.323916 -7.345266,-8.462095 -11.727495,-12.993465 l -1.742491,-1.801795 -2.766754,2.216495 c -1.521715,1.219074 -2.786492,2.268528 -2.810615,2.332123 -0.02412,0.0636 0.960531,1.269098 2.188117,2.678892 2.675132,3.072194 6.622831,7.794726 8.903304,10.650796 0.912182,1.142419 1.688265,2.077126 1.724632,2.077126 0.03636,0 1.453284,-1.122194 3.148709,-2.493766 z M 28.342686,49.644942 31.126304,48.092913 29.685647,45.332036 C 24.817925,36.003523 21.502376,30.03653 21.245576,30.142438 c -0.536133,0.221114 -6.373629,3.614925 -6.377095,3.707524 -0.0024,0.0647 0.563191,1.178395 1.256918,2.474874 1.35787,2.537668 4.037032,8.104783 6.026134,12.521894 0.678637,1.507021 1.310593,2.883869 1.404346,3.059661 0.159626,0.299313 0.228693,0.286927 1.086824,-0.194898 0.504,-0.282987 2.168993,-1.212935 3.699983,-2.066551 z"
       id="path4577"
       inkscape:connector-curvature="0" />
    <g
       aria-label=""
       style="font-style:normal;font-variant:normal;font-weight:normal;font-stretch:normal;font-size:113.14943695px;line-height:1.25;font-family:FZZJ-DHSWLJF;-inkscape-font-specification:FZZJ-DHSWLJF;letter-spacing:0px;word-spacing:0px;fill:#ff0000;fill-opacity:1;stroke:none;stroke-width:2.82873607"
       id="text842">
      <path
         d="m 70.889258,18.120787 q 0.792046,-0.113149 1.131494,0.339449 1.018345,0 2.03669,1.018344 0.678897,0.905196 1.584092,1.244644 v 2.941886 q 0.339449,1.018345 -0.113149,1.810391 -0.678897,0.678896 -1.470943,0.565747 -3.394483,2.03669 -6.223219,4.752276 -2.03669,2.602437 -5.431173,3.055035 -1.018345,0.339448 -2.149839,0.339448 -1.018345,0 -1.92354,0.678897 -0.11315,2.03669 -1.018345,4.07338 0,3.168184 -0.339449,6.223219 1.131495,-0.565748 3.507633,-1.923541 0.678896,-0.339448 1.018345,-0.565747 1.018345,-0.113149 1.92354,-0.678897 0.452598,-0.339448 1.584092,-0.792046 0.565748,-0.339448 0.905196,-0.452597 4.752276,-1.357794 9.730851,-2.602437 0.905196,0 2.602437,0.113149 1.697242,0 2.489288,0 2.602437,0 4.412828,2.489288 -0.678897,2.036689 -1.92354,4.186529 0.339448,0.905195 -0.11315,0.905195 -0.452597,0.226299 -1.018345,0.565747 -4.073379,0.565748 -8.373058,1.018345 -0.226299,0.678897 -0.905196,0.452598 -0.565747,-0.226299 -0.565747,0.452598 0,2.149839 0.678897,4.525977 0.678897,2.376139 0.226299,4.865426 0,1.244644 -0.226299,2.262989 6.788966,-0.678897 13.691082,-1.018345 0.792046,-0.339448 1.470942,0 0.565748,0 1.357794,-0.339448 1.357793,0.452597 2.489287,-0.226299 1.131495,-0.678897 2.489288,0 1.018345,-0.452598 2.03669,0 1.131494,0.452598 2.376138,0.452598 1.357791,0.565747 3.168181,1.018344 0.11315,1.018345 1.1315,1.697242 0.79204,0.678897 1.47094,1.470943 2.37614,2.715586 0.56575,5.657472 -2.37614,1.357793 -5.431176,1.244643 -1.018344,-0.339448 -2.036689,0 -1.018345,0.226299 -1.584092,-0.678896 -0.226299,-0.11315 -0.792047,-0.226299 -0.339448,-0.11315 -2.036689,-0.565747 -0.678897,0.339448 -1.018345,0 -0.339449,-0.452598 -1.018345,-0.11315 -2.03669,-0.678896 -4.07338,-0.678896 -1.584092,0 -3.281334,0 -1.697241,-0.11315 -3.394483,0.339448 -2.03669,-0.339448 -4.186529,0.678897 -2.03669,0.678896 -4.299679,0.565747 -3.394483,0.339448 -6.788966,0.792046 -3.733931,0.339448 -6.788966,1.470942 -1.697242,0.678897 -3.733931,0.905196 -2.03669,0 -3.507633,0.905195 -2.715586,0.339449 -4.865426,1.131495 -2.262988,1.018345 -4.639127,1.470943 -2.376138,0.339448 -4.639127,1.018344 -2.376138,0.339449 -4.412828,-0.452597 -3.168184,0.792046 -6.449518,-0.565747 -1.357793,-0.339449 -2.262988,-1.131495 -1.018345,-1.018345 -2.262989,-1.470943 -0.452598,-1.244643 -1.470943,-1.584092 -0.905195,-0.452597 -1.470942,-1.357793 -0.11315,-0.792046 0.565747,-0.678897 0.678896,0 1.131494,-0.113149 h 3.394483 q 1.018345,-1.131494 2.262989,-0.339448 h 3.168184 q 1.357794,-0.226299 3.960231,-0.565747 2.602437,-0.452598 3.84708,-0.678897 4.412828,-1.131494 8.825656,-2.828736 -0.678896,-1.697242 -0.905195,-3.507633 -0.113149,-1.92354 -0.452598,-3.620782 0.565747,-0.678896 0.565747,-1.018344 0,-0.678897 0.452598,-1.131495 1.697242,-8.825656 4.752277,-17.085565 0.565747,-1.244644 1.357793,-3.394483 0.113149,-0.452598 0.226299,-0.678897 0.678896,-1.697241 -1.018345,-1.584092 -1.697242,0 -3.055035,-1.018345 -0.226299,-0.792046 -1.018345,-1.357793 -0.678897,-0.678896 -0.565747,-1.584092 -0.226299,-1.018345 0.678896,-1.244644 1.018345,-0.339448 1.697242,-0.339448 1.357793,0.113149 2.602437,-1.244644 2.376138,0 4.412828,-1.244644 3.847081,-1.470942 7.241564,-4.865425 1.018345,-0.792047 2.262989,-0.678897 1.018345,-0.905196 2.715586,-0.905196 1.697242,-0.226298 3.055035,-0.565747 z m -6.788966,33.718532 q -0.339448,0.565748 -1.018345,0.678897 0,0.678897 -0.678897,1.018345 -0.565747,0.226299 -0.905195,0.565747 -3.507633,1.018345 -5.544323,4.752277 -0.339448,0.792046 -1.018345,2.149839 -0.678896,1.018345 0.452598,1.92354 3.733932,-0.678896 7.694162,-1.357793 0.678897,-1.357793 0.905195,-3.168184 0,-1.697242 0.565748,-3.168184 0,-1.018345 0.565747,-2.262989 0.339448,-1.357793 -1.018345,-1.131495 z m 12.785886,28.853107 0.792046,0.452598 q 3.507633,0.339448 6.902116,3.168184 1.92354,0.339448 3.394483,1.584092 1.697242,1.018345 3.055035,2.602437 1.697241,1.697242 3.620782,3.055035 2.03669,1.244644 3.733931,2.941885 1.018345,0.565747 0.339449,1.244644 -1.018345,0.792046 -0.678897,1.810391 0,0.113149 0,0.226299 -0.226299,1.131494 -0.226299,2.376139 0,1.01834 -1.131494,1.69724 -1.244644,1.13149 -2.602437,0.79205 -6.449518,-3.507636 -9.844001,-9.504556 -1.018345,-1.018345 -1.697242,-2.376138 -0.565747,-1.357793 -1.584092,-2.376138 -2.03669,-3.960231 -4.07338,-7.694162 z m -22.856186,0.452598 q 0.905195,0.678896 0.226299,1.584092 -0.565747,0.792046 -0.678897,1.584092 -1.697241,1.018345 -2.03669,2.602437 0.339449,0.339448 -0.113149,1.018345 -0.565747,0.339448 -0.565747,1.018345 -1.357794,1.584092 -2.489288,3.620782 -0.339448,1.697241 -1.810391,2.828736 -4.07338,5.204877 -10.409748,5.204877 -3.733931,-0.33945 -6.902116,-2.149843 -0.678896,-0.792046 -1.810391,-1.697241 -1.018345,-1.018345 0,-1.923541 1.923541,-0.113149 3.394483,-0.905195 1.584093,-0.905195 3.055035,-1.470943 6.902116,-4.186529 14.709427,-6.788966 3.055035,-2.03669 5.431173,-4.525977 z"
         style="stroke-width:2.82873607"
         id="path840" />
    </g>
  </g>
</svg>
